<svg width="1160" height="608" fill="none" xmlns="http://www.w3.org/2000/svg"><rect width="1160" height="608" rx="16" fill="#3D4B59"/><path d="M123.5 193.467c-2.267-11.5-12.367-20.134-24.5-20.134-9.633 0-18 5.467-22.167 13.467C66.8 187.867 59 196.367 59 206.667c0 11.033 8.967 20 20 20h43.333c9.2 0 16.667-7.467 16.667-16.667 0-8.8-6.833-15.933-15.5-16.533zm-7.833 9.866l-15.5 15.5a1.65 1.65 0 0 1-2.367 0l-15.467-15.5h10V190h13.334v13.333h10z" fill="#fff"/><path d="M123.5 193.467c-2.267-11.5-12.367-20.134-24.5-20.134-9.633 0-18 5.467-22.167 13.467C66.8 187.867 59 196.367 59 206.667c0 11.033 8.967 20 20 20h43.333c9.2 0 16.667-7.467 16.667-16.667 0-8.8-6.833-15.933-15.5-16.533zm-7.833 9.866l-15.5 15.5a1.65 1.65 0 0 1-2.367 0l-15.467-15.5h10V190h13.334v13.333h10z" fill="#3A86FF" fill-opacity=".5"/><path d="M1083.5 449.467c-2.27-11.5-12.37-20.134-24.5-20.134-9.63 0-18 5.467-22.17 13.467-10.03 1.067-17.83 9.567-17.83 19.867 0 11.033 8.97 20 20 20h43.33c9.2 0 16.67-7.467 16.67-16.667 0-8.8-6.83-15.933-15.5-16.533zm-7.83 9.866l-15.5 15.5c-.67.667-1.7.667-2.37 0l-15.47-15.5h10V446h13.34v13.333h10z" fill="#fff"/><path d="M1083.5 449.467c-2.27-11.5-12.37-20.134-24.5-20.134-9.63 0-18 5.467-22.17 13.467-10.03 1.067-17.83 9.567-17.83 19.867 0 11.033 8.97 20 20 20h43.33c9.2 0 16.67-7.467 16.67-16.667 0-8.8-6.83-15.933-15.5-16.533zm-7.83 9.866l-15.5 15.5c-.67.667-1.7.667-2.37 0l-15.47-15.5h10V446h13.34v13.333h10z" fill="#3A86FF" fill-opacity=".5"/><g clip-path="url(#clip0_2093_3862)"><path d="M397.667 220c3.666 0 6.633-3 6.633-6.667l.033-33.333c0-3.667-3-6.667-6.666-6.667h-53.334c-3.666 0-6.666 3-6.666 6.667v33.333c0 3.667 3 6.667 6.666 6.667h-10a3.343 3.343 0 0 0-3.333 3.333c0 1.834 1.5 3.334 3.333 3.334h73.334c1.833 0 3.333-1.5 3.333-3.334 0-1.833-1.5-3.333-3.333-3.333h-10zm-50-40h46.666c1.834 0 3.334 1.5 3.334 3.333V210c0 1.833-1.5 3.333-3.334 3.333h-46.666a3.343 3.343 0 0 1-3.334-3.333v-26.667c0-1.833 1.5-3.333 3.334-3.333z" fill="#fff"/><path d="M397.667 220c3.666 0 6.633-3 6.633-6.667l.033-33.333c0-3.667-3-6.667-6.666-6.667h-53.334c-3.666 0-6.666 3-6.666 6.667v33.333c0 3.667 3 6.667 6.666 6.667h-10a3.343 3.343 0 0 0-3.333 3.333c0 1.834 1.5 3.334 3.333 3.334h73.334c1.833 0 3.333-1.5 3.333-3.334 0-1.833-1.5-3.333-3.333-3.333h-10zm-50-40h46.666c1.834 0 3.334 1.5 3.334 3.333V210c0 1.833-1.5 3.333-3.334 3.333h-46.666a3.343 3.343 0 0 1-3.334-3.333v-26.667c0-1.833 1.5-3.333 3.334-3.333z" fill="#3A86FF" fill-opacity=".5"/></g><path d="M794.233 42h-30.566C760 42 757 45 757 48.667v46.666C757 99 760 102 763.667 102h46.666C814 102 817 99 817 95.333V64.767c0-1.767-.7-3.467-1.967-4.7l-16.1-16.1a6.552 6.552 0 0 0-4.7-1.967zm-20.566 40h26.666c1.834 0 3.334 1.5 3.334 3.333 0 1.834-1.5 3.334-3.334 3.334h-26.666a3.343 3.343 0 0 1-3.334-3.334c0-1.833 1.5-3.333 3.334-3.333zm0-13.333h26.666c1.834 0 3.334 1.5 3.334 3.333 0 1.833-1.5 3.333-3.334 3.333h-26.666A3.343 3.343 0 0 1 770.333 72c0-1.833 1.5-3.333 3.334-3.333zm0-13.334h16.666c1.834 0 3.334 1.5 3.334 3.334 0 1.833-1.5 3.333-3.334 3.333h-16.666a3.343 3.343 0 0 1-3.334-3.333c0-1.834 1.5-3.334 3.334-3.334z" fill="#fff"/><path d="M794.233 42h-30.566C760 42 757 45 757 48.667v46.666C757 99 760 102 763.667 102h46.666C814 102 817 99 817 95.333V64.767c0-1.767-.7-3.467-1.967-4.7l-16.1-16.1a6.552 6.552 0 0 0-4.7-1.967zm-20.566 40h26.666c1.834 0 3.334 1.5 3.334 3.333 0 1.834-1.5 3.334-3.334 3.334h-26.666a3.343 3.343 0 0 1-3.334-3.334c0-1.833 1.5-3.333 3.334-3.333zm0-13.333h26.666c1.834 0 3.334 1.5 3.334 3.333 0 1.833-1.5 3.333-3.334 3.333h-26.666A3.343 3.343 0 0 1 770.333 72c0-1.833 1.5-3.333 3.334-3.333zm0-13.334h16.666c1.834 0 3.334 1.5 3.334 3.334 0 1.833-1.5 3.333-3.334 3.333h-16.666a3.343 3.343 0 0 1-3.334-3.333c0-1.834 1.5-3.334 3.334-3.334z" fill="#3A86FF" fill-opacity=".5"/><path d="M813.667 285.333h-53.334c-3.7 0-6.666 3-6.666 6.667v40a6.664 6.664 0 0 0 6.666 6.667h53.334c3.666 0 6.666-3 6.666-6.667v-40a6.664 6.664 0 0 0-6.666-6.667zm0 46.667h-53.334v-33.333h53.334V332zM787 325.333c0-1.833 1.5-3.333 3.333-3.333h13.334c1.833 0 3.333 1.5 3.333 3.333 0 1.834-1.5 3.334-3.333 3.334h-13.334a3.343 3.343 0 0 1-3.333-3.334zm-17.367-20.966c1.3-1.3 3.4-1.3 4.7 0l8.634 8.633c1.3 1.3 1.3 3.4 0 4.7l-8.634 8.633a3.32 3.32 0 0 1-4.7 0 3.32 3.32 0 0 1 0-4.7l6.267-6.3-6.267-6.266a3.32 3.32 0 0 1 0-4.7z" fill="#fff"/><path d="M813.667 285.333h-53.334c-3.7 0-6.666 3-6.666 6.667v40a6.664 6.664 0 0 0 6.666 6.667h53.334c3.666 0 6.666-3 6.666-6.667v-40a6.664 6.664 0 0 0-6.666-6.667zm0 46.667h-53.334v-33.333h53.334V332zM787 325.333c0-1.833 1.5-3.333 3.333-3.333h13.334c1.833 0 3.333 1.5 3.333 3.333 0 1.834-1.5 3.334-3.333 3.334h-13.334a3.343 3.343 0 0 1-3.333-3.334zm-17.367-20.966c1.3-1.3 3.4-1.3 4.7 0l8.634 8.633c1.3 1.3 1.3 3.4 0 4.7l-8.634 8.633a3.32 3.32 0 0 1-4.7 0 3.32 3.32 0 0 1 0-4.7l6.267-6.3-6.267-6.266a3.32 3.32 0 0 1 0-4.7z" fill="#3A86FF" fill-opacity=".5"/><path d="M787 416.99c-22.1 0-40 17.91-40 40 0 17.677 11.46 32.667 27.35 37.95 2 .377 2.733-.86 2.733-1.923 0-.95-.033-3.467-.05-6.8-11.126 2.413-13.473-5.367-13.473-5.367-1.82-4.616-4.45-5.85-4.45-5.85-3.623-2.48.28-2.43.28-2.43 4.017.28 6.127 4.12 6.127 4.12 3.566 6.117 9.363 4.35 11.65 3.327.36-2.587 1.39-4.35 2.533-5.35-8.883-1-18.22-4.44-18.22-19.767 0-4.366 1.55-7.933 4.117-10.733-.45-1.01-1.8-5.077.35-10.587 0 0 3.35-1.073 11 4.1 3.2-.89 6.6-1.33 10-1.35 3.4.02 6.8.46 10 1.35 7.6-5.173 10.95-4.1 10.95-4.1 2.15 5.51.8 9.577.4 10.587 2.55 2.8 4.1 6.367 4.1 10.733 0 15.367-9.35 18.75-18.25 19.734 1.4 1.2 2.7 3.653 2.7 7.4 0 5.353-.05 9.653-.05 10.953 0 1.05.7 2.3 2.75 1.9C815.55 489.64 827 474.64 827 456.99c0-22.09-17.91-40-40-40z" fill="#fff"/><path d="M787 416.99c-22.1 0-40 17.91-40 40 0 17.677 11.46 32.667 27.35 37.95 2 .377 2.733-.86 2.733-1.923 0-.95-.033-3.467-.05-6.8-11.126 2.413-13.473-5.367-13.473-5.367-1.82-4.616-4.45-5.85-4.45-5.85-3.623-2.48.28-2.43.28-2.43 4.017.28 6.127 4.12 6.127 4.12 3.566 6.117 9.363 4.35 11.65 3.327.36-2.587 1.39-4.35 2.533-5.35-8.883-1-18.22-4.44-18.22-19.767 0-4.366 1.55-7.933 4.117-10.733-.45-1.01-1.8-5.077.35-10.587 0 0 3.35-1.073 11 4.1 3.2-.89 6.6-1.33 10-1.35 3.4.02 6.8.46 10 1.35 7.6-5.173 10.95-4.1 10.95-4.1 2.15 5.51.8 9.577.4 10.587 2.55 2.8 4.1 6.367 4.1 10.733 0 15.367-9.35 18.75-18.25 19.734 1.4 1.2 2.7 3.653 2.7 7.4 0 5.353-.05 9.653-.05 10.953 0 1.05.7 2.3 2.75 1.9C815.55 489.64 827 474.64 827 456.99c0-22.09-17.91-40-40-40z" fill="#3A86FF" fill-opacity=".5"/><path d="M21.139 258.358c-.819 0-1.533-.188-2.142-.563a3.788 3.788 0 0 1-1.42-1.574c-.338-.674-.507-1.462-.507-2.363 0-.906.169-1.697.506-2.375a3.787 3.787 0 0 1 1.42-1.58c.61-.375 1.324-.562 2.143-.562.818 0 1.532.187 2.142.562.61.375 1.083.902 1.42 1.58.337.678.506 1.469.506 2.375 0 .901-.169 1.689-.506 2.363a3.789 3.789 0 0 1-1.42 1.574c-.61.375-1.324.563-2.142.563zm.005-1.426c.53 0 .97-.141 1.319-.421a2.46 2.46 0 0 0 .772-1.119 4.45 4.45 0 0 0 .256-1.54 4.42 4.42 0 0 0-.256-1.534 2.498 2.498 0 0 0-.773-1.131c-.348-.284-.787-.426-1.318-.426-.534 0-.977.142-1.33.426a2.538 2.538 0 0 0-.778 1.131c-.166.466-.25.977-.25 1.534 0 .561.084 1.074.25 1.54.17.466.43.839.779 1.119.352.28.795.421 1.33.421zm5.783 4.522v-12h1.66v1.415h.141a4.77 4.77 0 0 1 .426-.631 2.43 2.43 0 0 1 .773-.625c.33-.181.765-.272 1.307-.272.704 0 1.333.178 1.886.534.553.356.987.869 1.301 1.54.319.67.478 1.477.478 2.42 0 .943-.157 1.752-.472 2.426-.314.671-.746 1.188-1.295 1.551-.55.36-1.176.54-1.881.54-.53 0-.964-.089-1.301-.267a2.458 2.458 0 0 1-.784-.625 4.794 4.794 0 0 1-.438-.636h-.102v4.63h-1.699zm1.665-7.636c0 .614.089 1.152.267 1.614.178.462.435.824.773 1.085.337.257.75.386 1.238.386.508 0 .932-.134 1.273-.403.34-.273.599-.642.773-1.108.178-.466.267-.991.267-1.574a4.32 4.32 0 0 0-.262-1.551c-.17-.458-.428-.82-.772-1.085-.341-.266-.767-.398-1.279-.398-.492 0-.909.127-1.25.381-.337.253-.593.608-.767 1.062-.174.455-.261.985-.261 1.591zm11.796 4.54c-.86 0-1.6-.184-2.222-.551a3.741 3.741 0 0 1-1.432-1.563c-.333-.674-.5-1.464-.5-2.369 0-.894.167-1.682.5-2.364a3.876 3.876 0 0 1 1.41-1.596c.605-.383 1.314-.574 2.124-.574.493 0 .97.081 1.432.244.462.163.877.419 1.244.767.368.349.657.801.87 1.358.212.553.318 1.225.318 2.017v.602h-6.938v-1.272h5.273c0-.447-.09-.843-.273-1.188a2.067 2.067 0 0 0-.767-.824c-.325-.2-.708-.301-1.148-.301-.477 0-.893.118-1.25.352a2.366 2.366 0 0 0-.818.91c-.19.371-.284.774-.284 1.21v.994c0 .583.102 1.08.307 1.489.208.409.498.721.87.937.37.212.804.318 1.3.318a2.7 2.7 0 0 0 .881-.136c.265-.095.495-.235.688-.42a1.83 1.83 0 0 0 .443-.688l1.608.29c-.129.473-.36.888-.693 1.244a3.37 3.37 0 0 1-1.245.824c-.496.193-1.062.29-1.698.29zM47.54 253v5.182h-1.7v-8.728h1.631v1.421h.108c.201-.462.515-.834.944-1.114.431-.28.975-.42 1.63-.42.595 0 1.116.125 1.563.375.447.246.793.613 1.04 1.102.246.489.369 1.093.369 1.813v5.551h-1.699v-5.347c0-.633-.165-1.127-.494-1.483-.33-.36-.783-.54-1.358-.54a2.13 2.13 0 0 0-1.051.256c-.304.17-.544.42-.722.75-.174.326-.261.72-.261 1.182zm7.687 5.182v-8.728h1.63v1.421h.109c.182-.481.479-.856.892-1.125.413-.273.907-.409 1.483-.409.583 0 1.072.136 1.466.409.398.273.691.648.88 1.125h.091c.209-.466.54-.837.995-1.114.454-.28.996-.42 1.625-.42.791 0 1.437.248 1.937.744.504.496.756 1.244.756 2.244v5.853h-1.699v-5.694c0-.59-.161-1.018-.483-1.284a1.757 1.757 0 0 0-1.153-.397c-.553 0-.983.17-1.29.511-.307.337-.46.771-.46 1.301v5.563h-1.694v-5.801c0-.474-.147-.855-.443-1.143-.295-.287-.68-.431-1.153-.431-.322 0-.62.085-.892.255-.27.167-.487.4-.654.699a2.14 2.14 0 0 0-.244 1.04v5.381h-1.699zm17.726.176c-.86 0-1.6-.184-2.221-.551a3.741 3.741 0 0 1-1.432-1.563c-.334-.674-.5-1.464-.5-2.369 0-.894.166-1.682.5-2.364a3.876 3.876 0 0 1 1.409-1.596c.606-.383 1.314-.574 2.125-.574.492 0 .97.081 1.432.244.462.163.877.419 1.244.767.367.349.657.801.87 1.358.212.553.318 1.225.318 2.017v.602H69.76v-1.272h5.273c0-.447-.091-.843-.273-1.188a2.067 2.067 0 0 0-.767-.824c-.326-.2-.708-.301-1.148-.301-.477 0-.894.118-1.25.352a2.366 2.366 0 0 0-.818.91c-.19.371-.284.774-.284 1.21v.994c0 .583.102 1.08.307 1.489.208.409.498.721.87.937.37.212.804.318 1.3.318a2.7 2.7 0 0 0 .88-.136c.266-.095.495-.235.688-.42a1.83 1.83 0 0 0 .444-.688l1.608.29a2.92 2.92 0 0 1-.694 1.244c-.33.352-.744.627-1.244.824-.496.193-1.062.29-1.699.29zm9.527-8.904v1.364h-4.767v-1.364h4.767zm-3.488-2.091h1.699v8.256c0 .33.049.578.147.744a.774.774 0 0 0 .381.336c.16.057.331.085.517.085.136 0 .256-.01.358-.028l.239-.046.306 1.403a2.846 2.846 0 0 1-.42.114 3.32 3.32 0 0 1-.682.068 2.994 2.994 0 0 1-1.25-.238 2.15 2.15 0 0 1-.937-.773c-.239-.349-.358-.786-.358-1.313v-8.608zm5.192 10.819v-8.728h1.642v1.387h.09c.16-.47.44-.839.841-1.108a2.404 2.404 0 0 1 1.375-.409 6.778 6.778 0 0 1 .722.039v1.625a3.358 3.358 0 0 0-.364-.062 3.408 3.408 0 0 0-.522-.04c-.402 0-.76.085-1.074.256a1.897 1.897 0 0 0-1.012 1.71v5.33h-1.698zm5.964 0v-8.728h1.7v8.728h-1.7zm.858-10.074a1.08 1.08 0 0 1-.761-.296.959.959 0 0 1-.313-.716c0-.28.105-.519.313-.715.212-.201.466-.302.761-.302.296 0 .547.101.756.302a.938.938 0 0 1 .318.715.951.951 0 0 1-.318.716 1.06 1.06 0 0 1-.756.296zm6.627 10.25c-.845 0-1.572-.192-2.182-.574a3.799 3.799 0 0 1-1.398-1.597c-.326-.678-.488-1.454-.488-2.329 0-.887.166-1.669.5-2.347a3.823 3.823 0 0 1 1.409-1.596c.606-.383 1.32-.574 2.142-.574.663 0 1.254.123 1.772.369a3.17 3.17 0 0 1 1.256 1.023c.322.439.513.952.574 1.54h-1.653c-.091-.41-.3-.762-.625-1.057-.322-.296-.754-.443-1.296-.443a2.11 2.11 0 0 0-1.244.375c-.353.246-.627.598-.824 1.056-.197.455-.295.993-.295 1.614 0 .636.096 1.186.29 1.648.192.462.465.82.817 1.074.356.253.775.38 1.256.38.322 0 .614-.058.875-.176a1.78 1.78 0 0 0 .665-.517 1.94 1.94 0 0 0 .38-.807h1.654a3.218 3.218 0 0 1-.551 1.512 3.176 3.176 0 0 1-1.233 1.045c-.511.254-1.112.381-1.801.381zm11.766-6.773l-1.54.273a1.842 1.842 0 0 0-.307-.563 1.507 1.507 0 0 0-.557-.437c-.235-.114-.528-.171-.881-.171-.481 0-.882.108-1.204.324-.322.212-.483.487-.483.824 0 .292.108.527.324.705.216.178.564.323 1.045.437l1.387.318c.803.186 1.401.472 1.795.858.394.387.591.888.591 1.506 0 .523-.152.989-.455 1.398-.299.405-.717.723-1.255.954-.534.231-1.154.347-1.858.347-.977 0-1.775-.209-2.392-.625-.618-.421-.996-1.017-1.137-1.79l1.642-.25c.103.428.313.752.631.972.318.216.733.323 1.244.323.557 0 1.002-.115 1.336-.346.333-.235.5-.521.5-.858a.895.895 0 0 0-.307-.688c-.201-.185-.51-.325-.926-.42l-1.478-.324c-.814-.186-1.416-.481-1.806-.886-.387-.406-.58-.919-.58-1.54a2.2 2.2 0 0 1 .432-1.352c.288-.387.685-.688 1.193-.904.508-.219 1.089-.329 1.744-.329.944 0 1.686.204 2.228.613.541.406.899.949 1.074 1.631zm7.004.943V254h-5.159v-1.472h5.159zm5.849 5.83c-.859 0-1.6-.184-2.221-.551a3.737 3.737 0 0 1-1.432-1.563c-.333-.674-.5-1.464-.5-2.369 0-.894.167-1.682.5-2.364a3.877 3.877 0 0 1 1.409-1.596c.606-.383 1.315-.574 2.125-.574.493 0 .97.081 1.432.244.462.163.877.419 1.244.767.368.349.657.801.87 1.358.212.553.318 1.225.318 2.017v.602h-6.938v-1.272h5.273c0-.447-.091-.843-.273-1.188a2.065 2.065 0 0 0-.767-.824 2.149 2.149 0 0 0-1.147-.301c-.478 0-.894.118-1.25.352a2.37 2.37 0 0 0-.819.91 2.626 2.626 0 0 0-.284 1.21v.994c0 .583.103 1.08.307 1.489.208.409.498.721.869.937.372.212.805.318 1.302.318.321 0 .615-.045.88-.136.265-.095.495-.235.688-.42.193-.186.341-.415.443-.688l1.608.29c-.129.473-.36.888-.693 1.244a3.37 3.37 0 0 1-1.245.824c-.496.193-1.062.29-1.699.29zm6.592-8.904l1.926 3.398 1.943-3.398h1.858l-2.722 4.364 2.745 4.364h-1.858l-1.966-3.262-1.961 3.262h-1.863l2.716-4.364-2.682-4.364h1.864zm7.295 12v-12h1.659v1.415h.142a4.87 4.87 0 0 1 .426-.631 2.43 2.43 0 0 1 .773-.625c.33-.181.765-.272 1.307-.272.704 0 1.333.178 1.886.534.553.356.987.869 1.301 1.54.319.67.478 1.477.478 2.42 0 .943-.157 1.752-.472 2.426-.314.671-.746 1.188-1.295 1.551-.55.36-1.176.54-1.881.54-.53 0-.964-.089-1.301-.267a2.456 2.456 0 0 1-.784-.625 4.813 4.813 0 0 1-.438-.636h-.102v4.63h-1.699zm1.665-7.636c0 .614.089 1.152.267 1.614.178.462.436.824.773 1.085.337.257.75.386 1.238.386.508 0 .932-.134 1.273-.403.341-.273.599-.642.773-1.108.178-.466.267-.991.267-1.574a4.32 4.32 0 0 0-.262-1.551c-.17-.458-.428-.82-.772-1.085-.341-.266-.767-.398-1.279-.398-.492 0-.909.127-1.25.381-.337.253-.593.608-.767 1.062-.174.455-.261.985-.261 1.591zm11.71 4.54c-.818 0-1.532-.188-2.142-.563a3.786 3.786 0 0 1-1.42-1.574c-.337-.674-.506-1.462-.506-2.363 0-.906.169-1.697.506-2.375a3.784 3.784 0 0 1 1.42-1.58c.61-.375 1.324-.562 2.142-.562.818 0 1.532.187 2.142.562.61.375 1.084.902 1.421 1.58.337.678.505 1.469.505 2.375 0 .901-.168 1.689-.505 2.363a3.788 3.788 0 0 1-1.421 1.574c-.61.375-1.324.563-2.142.563zm.006-1.426c.53 0 .97-.141 1.318-.421a2.46 2.46 0 0 0 .773-1.119c.17-.466.256-.979.256-1.54 0-.557-.086-1.068-.256-1.534a2.497 2.497 0 0 0-.773-1.131c-.348-.284-.788-.426-1.318-.426-.534 0-.977.142-1.33.426a2.537 2.537 0 0 0-.778 1.131c-.167.466-.25.977-.25 1.534 0 .561.083 1.074.25 1.54.17.466.43.839.778 1.119.353.28.796.421 1.33.421zm5.783 1.25v-8.728h1.642v1.387h.091c.159-.47.439-.839.841-1.108a2.402 2.402 0 0 1 1.375-.409 6.778 6.778 0 0 1 .721.039v1.625a3.341 3.341 0 0 0-.363-.062 3.421 3.421 0 0 0-.523-.04c-.402 0-.76.085-1.074.256a1.896 1.896 0 0 0-1.011 1.71v5.33h-1.699zm10.554-8.728v1.364h-4.767v-1.364h4.767zm-3.489-2.091h1.699v8.256c0 .33.049.578.148.744a.772.772 0 0 0 .38.336c.16.057.332.085.518.085.136 0 .255-.01.357-.028l.239-.046.307 1.403a2.872 2.872 0 0 1-.421.114 3.311 3.311 0 0 1-.681.068 2.993 2.993 0 0 1-1.25-.238 2.15 2.15 0 0 1-.938-.773c-.238-.349-.358-.786-.358-1.313v-8.608zm8.86 10.995c-.86 0-1.601-.184-2.222-.551a3.743 3.743 0 0 1-1.432-1.563c-.333-.674-.5-1.464-.5-2.369 0-.894.167-1.682.5-2.364a3.877 3.877 0 0 1 1.409-1.596c.606-.383 1.315-.574 2.125-.574.493 0 .97.081 1.432.244.462.163.877.419 1.245.767.367.349.657.801.869 1.358.212.553.318 1.225.318 2.017v.602h-6.937v-1.272h5.272a2.52 2.52 0 0 0-.272-1.188 2.068 2.068 0 0 0-.768-.824c-.325-.2-.708-.301-1.147-.301-.478 0-.894.118-1.25.352a2.359 2.359 0 0 0-.818.91c-.19.371-.285.774-.285 1.21v.994c0 .583.103 1.08.307 1.489.209.409.498.721.87.937.371.212.805.318 1.301.318.322 0 .615-.045.88-.136.266-.095.495-.235.688-.42.193-.186.341-.415.443-.688l1.608.29c-.129.473-.36.888-.693 1.244-.33.352-.744.627-1.244.824-.497.193-1.063.29-1.699.29zm5.453-.176v-8.728h1.642v1.387h.091c.159-.47.439-.839.841-1.108a2.402 2.402 0 0 1 1.375-.409 6.778 6.778 0 0 1 .721.039v1.625a3.341 3.341 0 0 0-.363-.062 3.412 3.412 0 0 0-.523-.04c-.401 0-.759.085-1.074.256-.31.167-.557.399-.738.699a1.886 1.886 0 0 0-.273 1.011v5.33h-1.699zm-113.37 24.193a3.557 3.557 0 0 1-1.5-.307 2.523 2.523 0 0 1-1.062-.903c-.257-.394-.386-.877-.386-1.449 0-.493.095-.898.284-1.216.19-.318.445-.57.767-.756a4.003 4.003 0 0 1 1.08-.42c.397-.095.803-.167 1.215-.216l1.273-.148c.326-.042.563-.108.71-.199.148-.091.222-.238.222-.443v-.04c0-.496-.14-.88-.42-1.153-.277-.273-.69-.409-1.239-.409-.572 0-1.023.127-1.352.38-.326.25-.551.529-.676.836l-1.597-.364c.19-.53.466-.958.83-1.284.367-.33.79-.568 1.267-.716a4.928 4.928 0 0 1 1.505-.227c.349 0 .718.041 1.108.125a3.23 3.23 0 0 1 1.102.443c.345.216.627.525.847.926.22.398.33.915.33 1.551v5.796h-1.66v-1.194h-.068c-.11.22-.274.436-.494.648-.22.212-.502.388-.847.529-.344.14-.757.21-1.238.21zm.37-1.364c.47 0 .871-.093 1.205-.278.337-.186.593-.428.767-.727a1.89 1.89 0 0 0 .267-.972v-1.125c-.06.061-.178.117-.353.17-.17.05-.365.093-.585.131l-.642.097c-.208.026-.382.049-.523.068-.329.041-.63.112-.903.21a1.561 1.561 0 0 0-.648.426c-.159.182-.238.424-.238.727 0 .421.155.739.466.955.31.212.706.318 1.187.318zm6.024 1.171v-8.728h1.642v1.387h.091c.16-.47.44-.839.841-1.108a2.404 2.404 0 0 1 1.375-.409 6.778 6.778 0 0 1 .722.039v1.625a3.358 3.358 0 0 0-.364-.062 3.407 3.407 0 0 0-.522-.04c-.402 0-.76.085-1.074.256a1.896 1.896 0 0 0-1.012 1.71v5.33h-1.699zm10.555-8.728v1.364h-4.767v-1.364h4.767zm-3.49-2.091h1.7v8.256c0 .33.049.578.148.744a.774.774 0 0 0 .38.336c.16.057.332.085.517.085.137 0 .256-.01.358-.028l.239-.046.307 1.403a2.85 2.85 0 0 1-.42.114 3.32 3.32 0 0 1-.683.068 2.994 2.994 0 0 1-1.25-.238 2.15 2.15 0 0 1-.937-.773c-.239-.349-.358-.786-.358-1.313v-8.608zm5.193 10.819v-8.728h1.699v8.728h-1.7zm.858-10.074a1.08 1.08 0 0 1-.762-.296.959.959 0 0 1-.312-.716c0-.28.104-.519.312-.715a1.07 1.07 0 0 1 .762-.302c.295 0 .547.101.755.302a.938.938 0 0 1 .319.715.95.95 0 0 1-.319.716 1.06 1.06 0 0 1-.755.296zm7.104 1.346v1.364h-4.932v-1.364h4.932zm-3.58 8.728v-9.739c0-.545.12-.998.358-1.358a2.19 2.19 0 0 1 .949-.812 3.024 3.024 0 0 1 1.284-.273c.34 0 .632.028.875.085.242.053.422.102.54.148l-.398 1.375a8.916 8.916 0 0 0-.307-.08 1.753 1.753 0 0 0-.454-.051c-.413 0-.709.102-.887.307-.174.204-.261.5-.261.886v9.512h-1.699zm7.43.193a3.556 3.556 0 0 1-1.5-.307 2.523 2.523 0 0 1-1.062-.903c-.257-.394-.386-.877-.386-1.449 0-.493.094-.898.284-1.216.19-.318.445-.57.767-.756a4.004 4.004 0 0 1 1.08-.42 10.61 10.61 0 0 1 1.215-.216l1.273-.148c.326-.042.563-.108.71-.199.148-.091.222-.238.222-.443v-.04c0-.496-.14-.88-.42-1.153-.277-.273-.69-.409-1.24-.409-.571 0-1.022.127-1.352.38-.325.25-.55.529-.676.836l-1.596-.364c.19-.53.466-.958.83-1.284.367-.33.79-.568 1.266-.716a4.94 4.94 0 0 1 1.506-.227c.349 0 .718.041 1.108.125a3.23 3.23 0 0 1 1.102.443c.345.216.627.525.847.926.22.398.33.915.33 1.551v5.796h-1.66v-1.194h-.068a2.41 2.41 0 0 1-.494.648c-.22.212-.502.388-.847.529-.344.14-.757.21-1.238.21zm.37-1.364c.47 0 .871-.093 1.204-.278.338-.186.593-.428.767-.727a1.89 1.89 0 0 0 .267-.972v-1.125c-.06.061-.177.117-.352.17a5.32 5.32 0 0 1-.585.131l-.642.097a50.3 50.3 0 0 0-.523.068c-.33.041-.63.112-.903.21a1.562 1.562 0 0 0-.648.426c-.159.182-.239.424-.239.727 0 .421.156.739.466.955.311.212.707.318 1.188.318zm9.7 1.347c-.844 0-1.572-.192-2.182-.574a3.799 3.799 0 0 1-1.397-1.597c-.326-.678-.489-1.454-.489-2.329 0-.887.167-1.669.5-2.347a3.822 3.822 0 0 1 1.409-1.596c.606-.383 1.32-.574 2.142-.574.663 0 1.254.123 1.773.369.519.242.937.583 1.256 1.023.322.439.513.952.574 1.54h-1.654a1.976 1.976 0 0 0-.625-1.057c-.322-.296-.754-.443-1.295-.443-.474 0-.889.125-1.245.375-.352.246-.627.598-.824 1.056-.196.455-.295.993-.295 1.614 0 .636.097 1.186.29 1.648.193.462.466.82.818 1.074.356.253.775.38 1.256.38.322 0 .613-.058.875-.176.265-.121.486-.293.664-.517.182-.223.309-.492.381-.807h1.654a3.219 3.219 0 0 1-.552 1.512 3.162 3.162 0 0 1-1.233 1.045c-.511.254-1.111.381-1.801.381zm9.3-8.904v1.364h-4.767v-1.364h4.767zm-3.488-2.091h1.698v8.256c0 .33.05.578.148.744a.774.774 0 0 0 .381.336c.159.057.331.085.517.085.136 0 .256-.01.358-.028l.238-.046.307 1.403a2.817 2.817 0 0 1-.42.114 3.322 3.322 0 0 1-.682.068 2.993 2.993 0 0 1-1.25-.238 2.156 2.156 0 0 1-.938-.773c-.238-.349-.357-.786-.357-1.313v-8.608zm8.774 10.995c-.818 0-1.532-.188-2.142-.563a3.788 3.788 0 0 1-1.421-1.574c-.337-.674-.505-1.462-.505-2.363 0-.906.168-1.697.505-2.375a3.786 3.786 0 0 1 1.421-1.58c.61-.375 1.324-.562 2.142-.562.818 0 1.532.187 2.142.562.61.375 1.083.902 1.42 1.58.337.678.506 1.469.506 2.375 0 .901-.169 1.689-.506 2.363a3.786 3.786 0 0 1-1.42 1.574c-.61.375-1.324.563-2.142.563zm.005-1.426c.531 0 .97-.141 1.319-.421.348-.28.606-.653.772-1.119.171-.466.256-.979.256-1.54a4.42 4.42 0 0 0-.256-1.534 2.495 2.495 0 0 0-.772-1.131c-.349-.284-.788-.426-1.319-.426-.534 0-.977.142-1.329.426a2.53 2.53 0 0 0-.778 1.131c-.167.466-.25.977-.25 1.534 0 .561.083 1.074.25 1.54.17.466.429.839.778 1.119.352.28.795.421 1.329.421zm5.783 1.25v-8.728h1.642v1.387h.091c.159-.47.44-.839.841-1.108a2.404 2.404 0 0 1 1.375-.409 6.778 6.778 0 0 1 .722.039v1.625a3.372 3.372 0 0 0-.364-.062 3.402 3.402 0 0 0-.523-.04c-.401 0-.759.085-1.073.256a1.896 1.896 0 0 0-1.012 1.71v5.33h-1.699zm7.304 3.272c-.253 0-.484-.02-.693-.062a2.236 2.236 0 0 1-.466-.125l.409-1.392c.311.083.588.119.83.108a.996.996 0 0 0 .642-.273c.189-.17.356-.449.5-.835l.21-.58-3.193-8.841h1.818l2.21 6.773h.091l2.211-6.773h1.823l-3.596 9.892a3.951 3.951 0 0 1-.637 1.154 2.466 2.466 0 0 1-.92.716c-.356.159-.769.238-1.239.238zM328.7 258.182v-11.637h4.147c.906 0 1.656.165 2.25.495.595.329 1.04.78 1.335 1.352.296.568.444 1.208.444 1.92 0 .716-.15 1.36-.449 1.932a3.252 3.252 0 0 1-1.341 1.352c-.595.33-1.343.495-2.244.495h-2.853v-1.489h2.693c.572 0 1.036-.098 1.393-.295.356-.201.617-.474.784-.819.166-.344.25-.736.25-1.176a2.64 2.64 0 0 0-.25-1.17 1.793 1.793 0 0 0-.79-.801c-.356-.193-.826-.29-1.409-.29h-2.205v10.131H328.7zm9.922 0v-8.728h1.642v1.387h.09c.16-.47.44-.839.841-1.108a2.407 2.407 0 0 1 1.375-.409 6.778 6.778 0 0 1 .722.039v1.625a3.326 3.326 0 0 0-.364-.062 3.399 3.399 0 0 0-.522-.04c-.402 0-.76.085-1.074.256a1.896 1.896 0 0 0-1.012 1.71v5.33h-1.698zm8.426.193a3.557 3.557 0 0 1-1.5-.307 2.528 2.528 0 0 1-1.063-.903c-.257-.394-.386-.877-.386-1.449 0-.493.095-.898.284-1.216.189-.318.445-.57.767-.756a4.002 4.002 0 0 1 1.08-.42c.397-.095.803-.167 1.216-.216l1.272-.148c.326-.042.563-.108.71-.199.148-.091.222-.238.222-.443v-.04c0-.496-.14-.88-.42-1.153-.277-.273-.69-.409-1.239-.409-.572 0-1.023.127-1.352.38-.326.25-.551.529-.676.836l-1.597-.364c.189-.53.466-.958.83-1.284.367-.33.789-.568 1.267-.716a4.928 4.928 0 0 1 1.505-.227c.349 0 .718.041 1.108.125a3.22 3.22 0 0 1 1.102.443c.345.216.627.525.847.926.22.398.33.915.33 1.551v5.796h-1.659v-1.194h-.069c-.109.22-.274.436-.494.648-.22.212-.502.388-.847.529-.344.14-.757.21-1.238.21zm.369-1.364c.47 0 .871-.093 1.205-.278a1.96 1.96 0 0 0 .767-.727 1.89 1.89 0 0 0 .267-.972v-1.125c-.061.061-.178.117-.353.17-.17.05-.365.093-.585.131l-.642.097c-.208.026-.382.049-.523.068-.329.041-.63.112-.903.21a1.563 1.563 0 0 0-.648.426c-.159.182-.238.424-.238.727 0 .421.155.739.466.955.31.212.706.318 1.187.318zm9.701 1.347c-.845 0-1.572-.192-2.182-.574a3.801 3.801 0 0 1-1.398-1.597c-.326-.678-.489-1.454-.489-2.329 0-.887.167-1.669.5-2.347a3.829 3.829 0 0 1 1.409-1.596c.607-.383 1.321-.574 2.143-.574.662 0 1.253.123 1.772.369a3.17 3.17 0 0 1 1.256 1.023c.322.439.513.952.574 1.54h-1.654a1.976 1.976 0 0 0-.625-1.057c-.322-.296-.753-.443-1.295-.443-.474 0-.888.125-1.244.375-.353.246-.627.598-.824 1.056-.197.455-.296.993-.296 1.614 0 .636.097 1.186.29 1.648.193.462.466.82.818 1.074.356.253.775.38 1.256.38.322 0 .614-.058.875-.176a1.78 1.78 0 0 0 .665-.517c.182-.223.308-.492.38-.807h1.654a3.228 3.228 0 0 1-.551 1.512 3.176 3.176 0 0 1-1.233 1.045c-.512.254-1.112.381-1.801.381zm9.299-8.904v1.364h-4.767v-1.364h4.767zm-3.488-2.091h1.699v8.256c0 .33.049.578.147.744a.778.778 0 0 0 .381.336c.159.057.331.085.517.085.136 0 .256-.01.358-.028l.239-.046.306 1.403a2.817 2.817 0 0 1-.42.114 3.322 3.322 0 0 1-.682.068 2.996 2.996 0 0 1-1.25-.238 2.147 2.147 0 0 1-.937-.773c-.239-.349-.358-.786-.358-1.313v-8.608zm5.192 10.819v-8.728h1.699v8.728h-1.699zm.858-10.074a1.08 1.08 0 0 1-.762-.296.96.96 0 0 1-.312-.716c0-.28.104-.519.312-.715.212-.201.466-.302.762-.302.295 0 .547.101.755.302a.939.939 0 0 1 .318.715.951.951 0 0 1-.318.716 1.06 1.06 0 0 1-.755.296zm7.024 1.346v1.364h-4.767v-1.364h4.767zm-3.489-2.091h1.699v8.256c0 .33.049.578.148.744a.77.77 0 0 0 .381.336c.159.057.331.085.517.085.136 0 .255-.01.358-.028l.238-.046.307 1.403a2.853 2.853 0 0 1-.42.114 3.33 3.33 0 0 1-.682.068 2.993 2.993 0 0 1-1.25-.238 2.15 2.15 0 0 1-.938-.773c-.238-.349-.358-.786-.358-1.313v-8.608zm5.192 10.819v-8.728h1.699v8.728h-1.699zm.858-10.074a1.08 1.08 0 0 1-.761-.296.957.957 0 0 1-.313-.716c0-.28.104-.519.313-.715.212-.201.466-.302.761-.302.296 0 .547.101.756.302a.939.939 0 0 1 .318.715.951.951 0 0 1-.318.716c-.209.197-.46.296-.756.296zm6.627 10.25c-.819 0-1.533-.188-2.142-.563a3.788 3.788 0 0 1-1.421-1.574c-.337-.674-.506-1.462-.506-2.363 0-.906.169-1.697.506-2.375a3.786 3.786 0 0 1 1.421-1.58c.609-.375 1.323-.562 2.142-.562.818 0 1.532.187 2.142.562.61.375 1.083.902 1.42 1.58.337.678.506 1.469.506 2.375 0 .901-.169 1.689-.506 2.363a3.786 3.786 0 0 1-1.42 1.574c-.61.375-1.324.563-2.142.563zm.005-1.426c.531 0 .97-.141 1.319-.421.348-.28.606-.653.772-1.119.171-.466.256-.979.256-1.54a4.42 4.42 0 0 0-.256-1.534 2.495 2.495 0 0 0-.772-1.131c-.349-.284-.788-.426-1.319-.426-.534 0-.977.142-1.329.426a2.539 2.539 0 0 0-.779 1.131c-.166.466-.25.977-.25 1.534 0 .561.084 1.074.25 1.54.171.466.43.839.779 1.119.352.28.795.421 1.329.421zm7.482-3.932v5.182h-1.699v-8.728h1.631v1.421h.108c.201-.462.515-.834.943-1.114.432-.28.975-.42 1.631-.42.594 0 1.115.125 1.562.375.447.246.794.613 1.04 1.102.246.489.369 1.093.369 1.813v5.551h-1.699v-5.347c0-.633-.164-1.127-.494-1.483-.329-.36-.782-.54-1.358-.54-.394 0-.744.086-1.051.256-.303.17-.544.42-.722.75-.174.326-.261.72-.261 1.182zm11.449 5.358c-.86 0-1.6-.184-2.222-.551a3.741 3.741 0 0 1-1.431-1.563c-.334-.674-.5-1.464-.5-2.369 0-.894.166-1.682.5-2.364.337-.682.806-1.214 1.409-1.596.606-.383 1.314-.574 2.125-.574.492 0 .969.081 1.432.244.462.163.876.419 1.244.767.367.349.657.801.869 1.358.212.553.318 1.225.318 2.017v.602h-6.937v-1.272h5.273c0-.447-.091-.843-.273-1.188a2.072 2.072 0 0 0-.767-.824c-.326-.2-.709-.301-1.148-.301-.477 0-.894.118-1.25.352a2.367 2.367 0 0 0-.818.91c-.19.371-.284.774-.284 1.21v.994c0 .583.102 1.08.307 1.489.208.409.498.721.869.937.371.212.805.318 1.301.318a2.7 2.7 0 0 0 .881-.136c.265-.095.494-.235.687-.42.193-.186.341-.415.443-.688l1.608.29a2.898 2.898 0 0 1-.693 1.244 3.358 3.358 0 0 1-1.244.824c-.496.193-1.063.29-1.699.29zm5.453-.176v-8.728h1.642v1.387h.091c.159-.47.44-.839.841-1.108a2.404 2.404 0 0 1 1.375-.409 6.778 6.778 0 0 1 .722.039v1.625a3.372 3.372 0 0 0-.364-.062 3.402 3.402 0 0 0-.523-.04c-.401 0-.759.085-1.073.256a1.896 1.896 0 0 0-1.012 1.71v5.33h-1.699zm352.666 101.272v1.364h-4.767v-1.364h4.767zm-3.489-2.091h1.699v8.256c0 .33.049.578.148.744a.77.77 0 0 0 .381.336c.159.057.331.085.517.085.136 0 .255-.01.358-.028l.238-.046.307 1.403a2.853 2.853 0 0 1-.42.114 3.322 3.322 0 0 1-.682.068 2.993 2.993 0 0 1-1.25-.238 2.15 2.15 0 0 1-.938-.773c-.238-.349-.358-.786-.358-1.313v-8.608zm8.86 10.995c-.86 0-1.601-.184-2.222-.551a3.75 3.75 0 0 1-1.432-1.563c-.333-.674-.5-1.464-.5-2.369 0-.894.167-1.682.5-2.364.338-.682.807-1.214 1.41-1.596.606-.383 1.314-.574 2.125-.574.492 0 .969.081 1.431.244.462.163.877.419 1.245.767.367.349.657.801.869 1.358.212.553.318 1.225.318 2.017v.602h-6.937v-1.272h5.272a2.52 2.52 0 0 0-.272-1.188 2.072 2.072 0 0 0-.767-.824c-.326-.2-.709-.301-1.148-.301-.477 0-.894.118-1.25.352a2.367 2.367 0 0 0-.818.91c-.19.371-.284.774-.284 1.21v.994c0 .583.102 1.08.306 1.489.209.409.499.721.87.937.371.212.805.318 1.301.318.322 0 .615-.045.881-.136.265-.095.494-.235.687-.42.193-.186.341-.415.443-.688l1.608.29c-.129.473-.36.888-.693 1.244-.33.352-.744.627-1.244.824-.497.193-1.063.29-1.699.29zm5.453-.176v-8.728h1.642v1.387h.091c.159-.47.439-.839.841-1.108a2.404 2.404 0 0 1 1.375-.409 6.778 6.778 0 0 1 .722.039v1.625a3.42 3.42 0 0 0-.364-.062 3.412 3.412 0 0 0-.523-.04c-.401 0-.759.085-1.074.256a1.9 1.9 0 0 0-1.011 1.71v5.33h-1.699zm5.965 0v-8.728h1.63v1.421h.108a2.26 2.26 0 0 1 .892-1.125c.413-.273.908-.409 1.483-.409.584 0 1.072.136 1.466.409.398.273.692.648.881 1.125h.091a2.46 2.46 0 0 1 .994-1.114c.455-.28.996-.42 1.625-.42.792 0 1.438.248 1.938.744.503.496.755 1.244.755 2.244v5.853H789.2v-5.694c0-.59-.161-1.018-.483-1.284a1.759 1.759 0 0 0-1.154-.397c-.553 0-.983.17-1.29.511-.306.337-.46.771-.46 1.301v5.563h-1.693v-5.801c0-.474-.148-.855-.443-1.143-.296-.287-.68-.431-1.154-.431-.322 0-.619.085-.892.255-.269.167-.486.4-.653.699a2.14 2.14 0 0 0-.244 1.04v5.381h-1.699zm13.964 0v-8.728h1.699v8.728h-1.699zm.858-10.074a1.08 1.08 0 0 1-.761-.296.96.96 0 0 1-.313-.716c0-.28.105-.519.313-.715.212-.201.466-.302.761-.302.296 0 .548.101.756.302a.939.939 0 0 1 .318.715.951.951 0 0 1-.318.716 1.06 1.06 0 0 1-.756.296zm4.65 4.892v5.182h-1.699v-8.728h1.63v1.421h.108c.201-.462.516-.834.944-1.114.431-.28.975-.42 1.63-.42.595 0 1.116.125 1.563.375.447.246.793.613 1.04 1.102.246.489.369 1.093.369 1.813v5.551h-1.699v-5.347c0-.633-.165-1.127-.494-1.483-.33-.36-.783-.54-1.358-.54a2.13 2.13 0 0 0-1.051.256c-.303.17-.544.42-.722.75-.174.326-.261.72-.261 1.182zm10.227 5.375a3.557 3.557 0 0 1-1.5-.307 2.52 2.52 0 0 1-1.062-.903c-.258-.394-.387-.877-.387-1.449 0-.493.095-.898.284-1.216.19-.318.445-.57.767-.756a4.002 4.002 0 0 1 1.08-.42 10.62 10.62 0 0 1 1.216-.216l1.272-.148c.326-.042.563-.108.711-.199.147-.091.221-.238.221-.443v-.04c0-.496-.14-.88-.42-1.153-.277-.273-.69-.409-1.239-.409-.572 0-1.023.127-1.352.38-.326.25-.551.529-.676.836l-1.597-.364c.19-.53.466-.958.83-1.284.367-.33.79-.568 1.267-.716a4.928 4.928 0 0 1 1.505-.227c.349 0 .718.041 1.108.125.394.079.762.227 1.103.443.344.216.627.525.846.926.22.398.33.915.33 1.551v5.796h-1.659v-1.194h-.068c-.11.22-.275.436-.495.648a2.64 2.64 0 0 1-.846.529c-.345.14-.758.21-1.239.21zm.369-1.364c.47 0 .872-.093 1.205-.278.337-.186.593-.428.767-.727a1.89 1.89 0 0 0 .267-.972v-1.125c-.061.061-.178.117-.352.17-.171.05-.366.093-.586.131l-.642.097c-.208.026-.382.049-.522.068-.33.041-.631.112-.904.21a1.553 1.553 0 0 0-.647.426c-.16.182-.239.424-.239.727 0 .421.155.739.466.955.31.212.706.318 1.187.318zm7.723-10.466v11.637h-1.698v-11.637h1.698zM771.187 514.04a3.527 3.527 0 0 0-.443-.926 2.84 2.84 0 0 0-.653-.705 2.742 2.742 0 0 0-.87-.449 3.503 3.503 0 0 0-1.062-.153c-.656 0-1.246.168-1.773.505-.526.338-.943.832-1.25 1.483-.303.648-.455 1.442-.455 2.381 0 .943.154 1.741.461 2.392.307.652.727 1.146 1.261 1.483.534.337 1.142.506 1.824.506.633 0 1.184-.129 1.653-.387a2.69 2.69 0 0 0 1.097-1.09c.261-.474.392-1.031.392-1.671l.455.085h-3.33v-1.449h4.574v1.324c0 .978-.208 1.826-.625 2.546a4.255 4.255 0 0 1-1.716 1.659c-.727.39-1.561.585-2.5.585-1.053 0-1.977-.242-2.773-.727-.791-.485-1.409-1.173-1.852-2.063-.443-.894-.665-1.954-.665-3.181 0-.929.129-1.762.387-2.5.257-.739.619-1.366 1.085-1.881a4.74 4.74 0 0 1 1.653-1.188 5.188 5.188 0 0 1 2.085-.414c.629 0 1.214.092 1.756.278.546.186 1.03.449 1.455.79a4.462 4.462 0 0 1 1.63 2.767h-1.801zm4.344 7.96v-8.727h1.699V522h-1.699zm.858-10.074a1.08 1.08 0 0 1-.761-.295.96.96 0 0 1-.313-.716c0-.281.104-.519.313-.716.212-.201.466-.301.761-.301s.547.1.756.301a.94.94 0 0 1 .318.716.954.954 0 0 1-.318.716 1.062 1.062 0 0 1-.756.295zm7.024 1.347v1.363h-4.767v-1.363h4.767zm-3.488-2.091h1.699v8.256c0 .329.049.577.147.744a.776.776 0 0 0 .381.335c.159.057.331.085.517.085.136 0 .256-.009.358-.028.102-.019.182-.034.239-.046l.306 1.404a2.718 2.718 0 0 1-.42.113 3.314 3.314 0 0 1-.682.069 2.994 2.994 0 0 1-1.25-.239 2.14 2.14 0 0 1-.937-.773c-.239-.348-.358-.786-.358-1.312v-8.608zm7.078 5.636V522h-1.699v-11.636h1.676v4.329h.108c.205-.47.517-.843.938-1.119.42-.277.969-.415 1.647-.415.599 0 1.122.123 1.569.369.45.247.799.614 1.045 1.103.25.485.375 1.091.375 1.818V522h-1.699v-5.347c0-.64-.165-1.136-.494-1.488-.33-.356-.788-.534-1.375-.534-.402 0-.762.085-1.08.255a1.853 1.853 0 0 0-.744.75c-.178.326-.267.72-.267 1.182zm13.278 1.563v-5.108h1.705V522h-1.67v-1.511h-.091a2.721 2.721 0 0 1-.966 1.164c-.44.307-.987.461-1.642.461-.561 0-1.057-.123-1.489-.37-.428-.25-.765-.619-1.011-1.108-.243-.488-.364-1.092-.364-1.812v-5.551h1.699v5.346c0 .595.165 1.068.494 1.421.33.352.758.528 1.284.528.319 0 .635-.079.949-.238.318-.16.582-.4.79-.722.212-.322.316-.731.312-1.227zm3.948 3.619v-11.636h1.699v4.324h.102c.099-.182.241-.393.426-.631.186-.239.443-.447.773-.625.33-.182.765-.273 1.307-.273.704 0 1.333.178 1.886.534.553.356.987.869 1.301 1.54.319.67.478 1.477.478 2.42 0 .944-.158 1.752-.472 2.427-.314.67-.746 1.187-1.295 1.551-.55.36-1.177.539-1.881.539-.53 0-.964-.089-1.301-.267a2.445 2.445 0 0 1-.784-.625 4.595 4.595 0 0 1-.438-.636h-.142V522h-1.659zm1.665-4.364c0 .614.089 1.152.267 1.614.178.462.435.824.773 1.085.337.258.75.387 1.238.387.508 0 .932-.135 1.273-.404.341-.273.598-.642.773-1.108.178-.466.267-.99.267-1.574 0-.575-.087-1.092-.262-1.551-.17-.458-.428-.82-.772-1.085-.341-.265-.767-.398-1.279-.398-.492 0-.909.127-1.25.381-.337.254-.593.608-.767 1.062-.174.455-.261.985-.261 1.591zM750.301 546v-8.727h1.642v1.386h.091c.159-.47.44-.839.841-1.108a2.404 2.404 0 0 1 1.375-.409c.106 0 .231.004.375.011.148.008.263.017.347.029v1.625a3.074 3.074 0 0 0-.364-.063 3.53 3.53 0 0 0-.523-.039c-.401 0-.759.085-1.074.255a1.908 1.908 0 0 0-1.011 1.71V546h-1.699zm9.414.176c-.86 0-1.601-.184-2.222-.551a3.738 3.738 0 0 1-1.432-1.563c-.333-.674-.5-1.464-.5-2.369 0-.894.167-1.682.5-2.363a3.886 3.886 0 0 1 1.409-1.597c.606-.383 1.315-.574 2.125-.574.493 0 .97.082 1.432.244.462.163.877.419 1.245.767.367.349.657.802.869 1.358.212.553.318 1.226.318 2.017v.603h-6.937v-1.273h5.272c0-.447-.091-.843-.272-1.187a2.055 2.055 0 0 0-.768-.824c-.325-.201-.708-.302-1.147-.302-.478 0-.894.118-1.25.353a2.356 2.356 0 0 0-.818.909c-.19.371-.285.774-.285 1.21v.994c0 .584.103 1.08.307 1.489.209.409.498.722.87.938.371.212.805.318 1.301.318.322 0 .615-.046.88-.137a1.88 1.88 0 0 0 .688-.42c.193-.186.341-.415.443-.688l1.608.29c-.129.474-.36.888-.693 1.244-.33.353-.744.627-1.244.824-.497.194-1.063.29-1.699.29zm5.453 3.097v-12h1.659v1.415h.142c.099-.182.241-.393.426-.631.186-.239.443-.447.773-.625.33-.182.765-.273 1.307-.273.704 0 1.333.178 1.886.534.553.356.987.869 1.301 1.54.318.67.478 1.477.478 2.42 0 .944-.158 1.752-.472 2.427-.314.67-.746 1.187-1.295 1.551-.55.36-1.177.539-1.881.539-.53 0-.964-.089-1.301-.267a2.445 2.445 0 0 1-.784-.625 4.595 4.595 0 0 1-.438-.636h-.102v4.631h-1.699zm1.665-7.637c0 .614.089 1.152.267 1.614.178.462.435.824.773 1.085.337.258.75.387 1.238.387.508 0 .932-.135 1.273-.404.341-.273.598-.642.773-1.108.178-.466.267-.99.267-1.574 0-.575-.087-1.092-.262-1.551-.17-.458-.428-.82-.772-1.085-.341-.265-.767-.398-1.279-.398-.492 0-.909.127-1.25.381-.337.254-.593.608-.767 1.062-.174.455-.261.985-.261 1.591zm11.71 4.54c-.818 0-1.532-.187-2.142-.562a3.792 3.792 0 0 1-1.42-1.574c-.338-.674-.506-1.462-.506-2.364 0-.905.168-1.697.506-2.375a3.781 3.781 0 0 1 1.42-1.579c.61-.375 1.324-.563 2.142-.563.818 0 1.532.188 2.142.563a3.79 3.79 0 0 1 1.421 1.579c.337.678.505 1.47.505 2.375 0 .902-.168 1.69-.505 2.364a3.8 3.8 0 0 1-1.421 1.574c-.61.375-1.324.562-2.142.562zm.006-1.426c.53 0 .969-.14 1.318-.42.348-.281.606-.654.773-1.12.17-.466.255-.979.255-1.54 0-.556-.085-1.068-.255-1.534a2.507 2.507 0 0 0-.773-1.13c-.349-.284-.788-.426-1.318-.426-.534 0-.977.142-1.33.426a2.54 2.54 0 0 0-.778 1.13 4.52 4.52 0 0 0-.25 1.534c0 .561.083 1.074.25 1.54.17.466.43.839.778 1.12.353.28.796.42 1.33.42zm12.322-5.347l-1.539.273a1.838 1.838 0 0 0-.307-.562 1.528 1.528 0 0 0-.557-.438c-.235-.114-.528-.17-.881-.17-.481 0-.882.108-1.204.324-.322.212-.483.486-.483.823 0 .292.108.527.324.705.216.178.564.324 1.045.437l1.386.319c.804.185 1.402.471 1.796.858.394.386.591.888.591 1.505 0 .523-.152.989-.455 1.398-.299.405-.718.723-1.255.955-.534.231-1.154.346-1.858.346-.978 0-1.775-.208-2.392-.625-.618-.42-.997-1.017-1.137-1.79l1.642-.25c.103.428.313.752.631.972.318.216.733.324 1.244.324.557 0 1.002-.116 1.336-.347.333-.235.5-.521.5-.858a.893.893 0 0 0-.307-.687c-.201-.186-.51-.326-.926-.421l-1.478-.324c-.814-.185-1.416-.481-1.807-.886-.386-.405-.579-.918-.579-1.54a2.2 2.2 0 0 1 .432-1.352c.288-.386.685-.687 1.193-.903.508-.22 1.089-.33 1.744-.33.943 0 1.686.205 2.228.614.541.405.899.949 1.073 1.63zm1.863 6.597v-8.727h1.699V546h-1.699zm.858-10.074a1.08 1.08 0 0 1-.762-.295.963.963 0 0 1-.312-.716c0-.281.104-.519.312-.716.212-.201.466-.301.762-.301.295 0 .547.1.755.301a.942.942 0 0 1 .319.716.955.955 0 0 1-.319.716c-.208.197-.46.295-.755.295zm7.024 1.347v1.363h-4.767v-1.363h4.767zm-3.489-2.091h1.699v8.256c0 .329.049.577.148.744a.767.767 0 0 0 .381.335c.159.057.331.085.517.085.136 0 .255-.009.358-.028l.238-.046.307 1.404a2.75 2.75 0 0 1-.42.113 3.314 3.314 0 0 1-.682.069 2.994 2.994 0 0 1-1.25-.239 2.143 2.143 0 0 1-.938-.773c-.238-.348-.358-.786-.358-1.312v-8.608zm8.775 10.994c-.819 0-1.533-.187-2.142-.562a3.794 3.794 0 0 1-1.421-1.574c-.337-.674-.506-1.462-.506-2.364 0-.905.169-1.697.506-2.375a3.784 3.784 0 0 1 1.421-1.579c.609-.375 1.323-.563 2.142-.563.818 0 1.532.188 2.142.563.61.375 1.083.901 1.42 1.579.337.678.506 1.47.506 2.375 0 .902-.169 1.69-.506 2.364a3.792 3.792 0 0 1-1.42 1.574c-.61.375-1.324.562-2.142.562zm.005-1.426c.531 0 .97-.14 1.318-.42a2.46 2.46 0 0 0 .773-1.12c.171-.466.256-.979.256-1.54 0-.556-.085-1.068-.256-1.534a2.492 2.492 0 0 0-.773-1.13c-.348-.284-.787-.426-1.318-.426-.534 0-.977.142-1.329.426a2.541 2.541 0 0 0-.779 1.13c-.166.466-.25.978-.25 1.534 0 .561.084 1.074.25 1.54.171.466.43.839.779 1.12.352.28.795.42 1.329.42zm5.783 1.25v-8.727h1.642v1.386h.091c.159-.47.439-.839.841-1.108a2.404 2.404 0 0 1 1.375-.409c.106 0 .231.004.375.011.148.008.263.017.347.029v1.625a3.114 3.114 0 0 0-.364-.063 3.54 3.54 0 0 0-.523-.039c-.401 0-.759.085-1.074.255a1.908 1.908 0 0 0-1.011 1.71V546h-1.699zm7.304 3.273a3.51 3.51 0 0 1-.693-.063 2.158 2.158 0 0 1-.466-.125l.409-1.392c.311.084.587.12.83.108a.99.99 0 0 0 .642-.273c.189-.17.356-.448.5-.835l.21-.579-3.193-8.841h1.818l2.21 6.772h.091l2.21-6.772h1.824l-3.596 9.892a3.945 3.945 0 0 1-.637 1.153 2.466 2.466 0 0 1-.92.716c-.356.159-.769.239-1.239.239zm224.956-24c-.26 0-.49-.021-.69-.063a2.14 2.14 0 0 1-.47-.125l.41-1.392c.31.084.59.12.83.108a.999.999 0 0 0 .64-.273c.19-.17.36-.448.5-.835l.21-.579-3.19-8.841h1.82l2.21 6.772h.09l2.21-6.772h1.82l-3.6 9.892c-.16.454-.37.839-.63 1.153a2.54 2.54 0 0 1-.92.716c-.36.159-.77.239-1.24.239zm11.19-3.097c-.82 0-1.53-.187-2.14-.562-.61-.375-1.08-.9-1.42-1.574-.34-.674-.51-1.462-.51-2.364 0-.905.17-1.697.51-2.375.34-.678.81-1.204 1.42-1.579.61-.375 1.32-.563 2.14-.563.82 0 1.53.188 2.14.563.61.375 1.09.901 1.42 1.579.34.678.51 1.47.51 2.375 0 .902-.17 1.69-.51 2.364a3.746 3.746 0 0 1-1.42 1.574c-.61.375-1.32.562-2.14.562zm.01-1.426c.53 0 .97-.14 1.31-.42.35-.281.61-.654.78-1.12.17-.466.25-.979.25-1.54 0-.556-.08-1.068-.25-1.534a2.527 2.527 0 0 0-.78-1.13c-.34-.284-.78-.426-1.31-.426-.54 0-.98.142-1.33.426-.35.284-.61.661-.78 1.13-.17.466-.25.978-.25 1.534 0 .561.08 1.074.25 1.54.17.466.43.839.78 1.12.35.28.79.42 1.33.42zm11.31-2.369v-5.108h1.7V522h-1.67v-1.511h-.09c-.2.466-.52.854-.97 1.164-.43.307-.98.461-1.64.461-.56 0-1.05-.123-1.49-.37-.42-.25-.76-.619-1.01-1.108-.24-.488-.36-1.092-.36-1.812v-5.551h1.7v5.346c0 .595.16 1.068.49 1.421.33.352.76.528 1.29.528.31 0 .63-.079.95-.238.31-.16.58-.4.78-.722.22-.322.32-.731.32-1.227zm3.81 3.619v-8.727h1.64v1.386h.09c.16-.47.44-.839.84-1.108.41-.273.87-.409 1.38-.409a7.813 7.813 0 0 1 .72.04v1.625c-.07-.019-.19-.04-.36-.063a3.635 3.635 0 0 0-.53-.039c-.4 0-.76.085-1.07.255a1.9 1.9 0 0 0-.74.699c-.18.296-.27.633-.27 1.011V522h-1.7zm-47.46 24.193c-.55 0-1.05-.102-1.5-.307a2.49 2.49 0 0 1-1.06-.903c-.26-.394-.39-.877-.39-1.449 0-.492.1-.898.29-1.216.19-.318.44-.57.76-.756.33-.185.69-.325 1.08-.42.4-.095.81-.167 1.22-.216l1.27-.148c.33-.041.56-.108.71-.198.15-.091.22-.239.22-.444v-.039c0-.497-.14-.881-.42-1.154-.27-.273-.69-.409-1.23-.409-.58 0-1.03.127-1.36.381-.32.25-.55.528-.67.835l-1.6-.364c.19-.53.47-.958.83-1.284.37-.329.79-.568 1.27-.716.47-.151.98-.227 1.5-.227.35 0 .72.042 1.11.125.39.08.76.227 1.1.443.35.216.63.525.85.926.22.398.33.915.33 1.552V546h-1.66v-1.193h-.07c-.11.22-.27.435-.49.648-.22.212-.5.388-.85.528-.34.14-.76.21-1.24.21zm.37-1.363c.47 0 .87-.093 1.21-.279a1.946 1.946 0 0 0 1.03-1.699v-1.125c-.06.061-.18.118-.35.171a5.4 5.4 0 0 1-.59.13c-.22.034-.43.067-.64.097l-.52.068c-.33.042-.63.112-.91.21-.26.099-.48.241-.64.427-.16.181-.24.424-.24.727 0 .42.15.738.46.954.31.212.71.319 1.19.319zm6.03 1.17v-8.727h1.64v1.386h.09c.16-.47.44-.839.84-1.108.4-.273.86-.409 1.37-.409a7.833 7.833 0 0 1 .73.04v1.625c-.07-.019-.19-.04-.37-.063a3.5 3.5 0 0 0-.52-.039c-.4 0-.76.085-1.07.255a1.9 1.9 0 0 0-.74.699c-.18.296-.28.633-.28 1.011V546h-1.69zm10.55-8.727v1.363h-4.77v-1.363h4.77zm-3.49-2.091h1.7v8.256c0 .329.05.577.15.744.1.163.22.274.38.335.16.057.33.085.52.085.13 0 .25-.009.35-.028.11-.019.18-.034.24-.046l.31 1.404c-.1.038-.24.076-.42.113a3.3 3.3 0 0 1-.68.069c-.45.007-.87-.072-1.25-.239-.39-.167-.7-.424-.94-.773-.24-.348-.36-.786-.36-1.312v-8.608zm5.19 10.818v-8.727h1.7V546h-1.7zm.86-10.074c-.29 0-.55-.098-.76-.295a.954.954 0 0 1-.31-.716c0-.281.1-.519.31-.716.21-.201.47-.301.76-.301.3 0 .55.1.76.301a.94.94 0 0 1 .31.716c0 .276-.1.515-.31.716-.21.197-.46.295-.76.295zm7.1 1.347v1.363h-4.93v-1.363h4.93zm-3.57 8.727v-9.739c0-.545.11-.998.35-1.358.24-.363.56-.634.95-.812.4-.182.82-.273 1.29-.273.34 0 .63.029.87.085.24.053.42.103.54.148l-.4 1.375a9.3 9.3 0 0 0-.3-.079 1.766 1.766 0 0 0-.46-.052c-.41 0-.71.103-.88.307-.18.205-.27.5-.27.887V546h-1.69zm7.43.193c-.56 0-1.06-.102-1.5-.307a2.518 2.518 0 0 1-1.07-.903c-.25-.394-.38-.877-.38-1.449 0-.492.09-.898.28-1.216.19-.318.45-.57.77-.756.32-.185.68-.325 1.08-.42.4-.095.8-.167 1.21-.216.53-.06.95-.11 1.28-.148.32-.041.56-.108.71-.198.14-.091.22-.239.22-.444v-.039c0-.497-.14-.881-.42-1.154-.28-.273-.69-.409-1.24-.409-.57 0-1.02.127-1.35.381-.33.25-.55.528-.68.835l-1.6-.364c.19-.53.47-.958.83-1.284.37-.329.79-.568 1.27-.716.48-.151.98-.227 1.51-.227.34 0 .71.042 1.1.125.4.08.77.227 1.11.443.34.216.62.525.84.926.22.398.33.915.33 1.552V546h-1.66v-1.193h-.06c-.11.22-.28.435-.5.648-.22.212-.5.388-.85.528-.34.14-.75.21-1.23.21zm.36-1.363c.47 0 .88-.093 1.21-.279.34-.185.59-.428.77-.727.17-.303.26-.627.26-.972v-1.125c-.06.061-.17.118-.35.171-.17.049-.36.093-.58.13-.22.034-.44.067-.65.097l-.52.068c-.33.042-.63.112-.9.21-.27.099-.49.241-.65.427-.16.181-.24.424-.24.727 0 .42.16.738.47.954.31.212.7.319 1.18.319zm9.71 1.346c-.85 0-1.58-.191-2.19-.574a3.78 3.78 0 0 1-1.39-1.596c-.33-.678-.49-1.455-.49-2.33 0-.886.16-1.668.5-2.346.33-.682.8-1.214 1.41-1.597.6-.383 1.32-.574 2.14-.574.66 0 1.25.123 1.77.369.52.243.94.584 1.26 1.023.32.44.51.953.57 1.54h-1.65a1.96 1.96 0 0 0-.63-1.057c-.32-.295-.75-.443-1.29-.443-.48 0-.89.125-1.25.375-.35.246-.62.598-.82 1.057-.2.454-.3.992-.3 1.613 0 .637.1 1.186.29 1.648.2.462.47.82.82 1.074.36.254.78.381 1.26.381.32 0 .61-.059.87-.177.27-.121.49-.293.67-.517.18-.223.31-.492.38-.806h1.65a3.17 3.17 0 0 1-.55 1.511c-.31.443-.72.792-1.23 1.045-.51.254-1.12.381-1.8.381zm9.3-8.903v1.363h-4.77v-1.363h4.77zm-3.49-2.091h1.7v8.256c0 .329.04.577.14.744a.8.8 0 0 0 .38.335c.16.057.34.085.52.085.14 0 .26-.009.36-.028l.24-.046.3 1.404a2.28 2.28 0 0 1-.42.113 3.3 3.3 0 0 1-.68.069c-.44.007-.86-.072-1.25-.239-.38-.167-.7-.424-.94-.773-.23-.348-.35-.786-.35-1.312v-8.608zm8.77 10.994c-.82 0-1.53-.187-2.14-.562-.61-.375-1.08-.9-1.42-1.574-.34-.674-.51-1.462-.51-2.364 0-.905.17-1.697.51-2.375.34-.678.81-1.204 1.42-1.579.61-.375 1.32-.563 2.14-.563.82 0 1.53.188 2.14.563.61.375 1.09.901 1.42 1.579.34.678.51 1.47.51 2.375 0 .902-.17 1.69-.51 2.364a3.746 3.746 0 0 1-1.42 1.574c-.61.375-1.32.562-2.14.562zm.01-1.426c.53 0 .97-.14 1.31-.42.35-.281.61-.654.78-1.12.17-.466.25-.979.25-1.54 0-.556-.08-1.068-.25-1.534a2.527 2.527 0 0 0-.78-1.13c-.34-.284-.78-.426-1.31-.426-.54 0-.98.142-1.33.426-.35.284-.61.661-.78 1.13-.17.466-.25.978-.25 1.534 0 .561.08 1.074.25 1.54.17.466.43.839.78 1.12.35.28.79.42 1.33.42zm5.78 1.25v-8.727h1.64v1.386h.09c.16-.47.44-.839.84-1.108.41-.273.87-.409 1.38-.409a7.813 7.813 0 0 1 .72.04v1.625c-.07-.019-.19-.04-.36-.063a3.635 3.635 0 0 0-.53-.039c-.4 0-.76.085-1.07.255a1.9 1.9 0 0 0-.74.699c-.18.296-.27.633-.27 1.011V546h-1.7zm7.3 3.273c-.25 0-.48-.021-.69-.063a2.315 2.315 0 0 1-.47-.125l.41-1.392c.31.084.59.12.83.108a.957.957 0 0 0 .64-.273c.19-.17.36-.448.5-.835l.22-.579-3.2-8.841h1.82l2.21 6.772h.09l2.21-6.772h1.83l-3.6 9.892c-.17.454-.38.839-.64 1.153-.26.318-.56.557-.92.716-.35.159-.77.239-1.24.239zM758.405 130.29a1.1 1.1 0 0 1-.801-.33 1.096 1.096 0 0 1-.335-.807c0-.31.111-.576.335-.795a1.09 1.09 0 0 1 .801-.335c.311 0 .578.111.801.335.224.219.335.485.335.795a1.161 1.161 0 0 1-.568.983c-.17.102-.36.154-.568.154zm4.935-5.29v5.182h-1.699v-11.637h1.676v4.33h.108c.204-.47.517-.843.937-1.119.421-.277.97-.415 1.648-.415.599 0 1.121.123 1.568.369a2.5 2.5 0 0 1 1.046 1.102c.25.485.375 1.091.375 1.819v5.551H767.3v-5.347c0-.64-.165-1.136-.494-1.489-.33-.356-.788-.534-1.375-.534-.402 0-.762.086-1.08.256a1.84 1.84 0 0 0-.744.75c-.178.326-.267.72-.267 1.182zm11.426 5.358c-.845 0-1.572-.192-2.182-.574a3.801 3.801 0 0 1-1.398-1.597c-.325-.678-.488-1.454-.488-2.329 0-.887.166-1.669.5-2.347a3.822 3.822 0 0 1 1.409-1.596c.606-.383 1.32-.574 2.142-.574.663 0 1.254.123 1.773.369.519.242.937.583 1.255 1.023.322.439.514.952.574 1.54h-1.653a1.976 1.976 0 0 0-.625-1.057c-.322-.296-.754-.443-1.296-.443a2.11 2.11 0 0 0-1.244.375c-.352.246-.627.598-.824 1.056-.197.455-.295.993-.295 1.614 0 .636.096 1.186.289 1.648.194.462.466.82.819 1.074.356.253.774.38 1.255.38.322 0 .614-.058.875-.176.266-.121.487-.293.665-.517.182-.223.309-.492.381-.807h1.653a3.207 3.207 0 0 1-.551 1.512 3.176 3.176 0 0 1-1.233 1.045c-.511.254-1.112.381-1.801.381zm6.925-11.813v11.637h-1.699v-11.637h1.699zm10.321 2.909v1.364h-4.932v-1.364h4.932zm-3.579 8.728v-9.739c0-.545.119-.998.358-1.358.238-.364.554-.634.948-.812a3.026 3.026 0 0 1 1.285-.273c.34 0 .632.028.875.085.242.053.422.102.539.148l-.397 1.375a9.197 9.197 0 0 0-.307-.08 1.757 1.757 0 0 0-.455-.051c-.413 0-.708.102-.886.307-.174.204-.262.5-.262.886v9.512h-1.698zm5.156 0v-8.728h1.699v8.728h-1.699zm.858-10.074c-.296 0-.549-.099-.761-.296a.957.957 0 0 1-.313-.716c0-.28.104-.519.313-.715.212-.201.465-.302.761-.302.295 0 .547.101.756.302a.939.939 0 0 1 .318.715.951.951 0 0 1-.318.716 1.063 1.063 0 0 1-.756.296zm4.649-1.563v11.637h-1.699v-11.637h1.699zm5.871 11.813c-.86 0-1.6-.184-2.221-.551a3.737 3.737 0 0 1-1.432-1.563c-.334-.674-.5-1.464-.5-2.369 0-.894.166-1.682.5-2.364a3.877 3.877 0 0 1 1.409-1.596c.606-.383 1.314-.574 2.125-.574.492 0 .969.081 1.432.244.462.163.876.419 1.244.767.367.349.657.801.869 1.358.212.553.318 1.225.318 2.017v.602h-6.937v-1.272h5.273c0-.447-.091-.843-.273-1.188a2.072 2.072 0 0 0-.767-.824c-.326-.2-.708-.301-1.148-.301-.477 0-.894.118-1.25.352a2.367 2.367 0 0 0-.818.91 2.626 2.626 0 0 0-.284 1.21v.994c0 .583.102 1.08.307 1.489.208.409.498.721.869.937.371.212.805.318 1.301.318a2.7 2.7 0 0 0 .881-.136c.265-.095.494-.235.687-.42a1.83 1.83 0 0 0 .444-.688l1.607.29a2.898 2.898 0 0 1-.693 1.244 3.358 3.358 0 0 1-1.244.824c-.496.193-1.063.29-1.699.29zm11.993-6.773l-1.54.273a1.818 1.818 0 0 0-.306-.563 1.515 1.515 0 0 0-.557-.437c-.235-.114-.529-.171-.881-.171-.481 0-.883.108-1.205.324-.321.212-.482.487-.482.824 0 .292.107.527.323.705.216.178.565.323 1.046.437l1.386.318c.803.186 1.402.472 1.796.858.394.387.591.888.591 1.506 0 .523-.152.989-.455 1.398-.299.405-.718.723-1.256.954-.534.231-1.153.347-1.858.347-.977 0-1.774-.209-2.392-.625-.617-.421-.996-1.017-1.136-1.79l1.642-.25c.102.428.313.752.631.972.318.216.733.323 1.244.323.557 0 1.002-.115 1.335-.346.334-.235.5-.521.5-.858a.891.891 0 0 0-.307-.688c-.2-.185-.509-.325-.926-.42l-1.477-.324c-.814-.186-1.417-.481-1.807-.886-.386-.406-.579-.919-.579-1.54 0-.515.144-.966.431-1.352.288-.387.686-.688 1.194-.904.507-.219 1.089-.329 1.744-.329.943 0 1.686.204 2.227.613.542.406.9.949 1.074 1.631z" fill="#C9CDD1"/><path d="M143 198.5a1.5 1.5 0 0 0 0 3v-3zm184 1.5l-15-8.66v17.32l15-8.66zm-184 1.5h32v-3h-32v3zm152 0h18.5v-3H295v3z" fill="#939BA3"/><path d="M195.645 194.364V206h-1.761v-9.875h-.068l-2.784 1.818v-1.682l2.903-1.897h1.71zm5.769 11.744a1.1 1.1 0 0 1-.801-.33 1.096 1.096 0 0 1-.335-.806c0-.311.111-.576.335-.796.223-.223.49-.335.801-.335.31 0 .578.112.801.335.224.22.335.485.335.796 0 .208-.053.399-.159.573a1.172 1.172 0 0 1-.409.41c-.17.102-.36.153-.568.153zm12.631-.108h-3.767v-11.636h3.887c1.14 0 2.119.233 2.937.698a4.613 4.613 0 0 1 1.881 1.995c.439.863.659 1.899.659 3.108 0 1.212-.222 2.254-.665 3.125a4.661 4.661 0 0 1-1.909 2.011c-.833.466-1.841.699-3.023.699zm-2.011-1.534h1.915c.886 0 1.623-.167 2.21-.5a3.148 3.148 0 0 0 1.318-1.46c.292-.64.438-1.421.438-2.341 0-.913-.146-1.688-.438-2.324a3.1 3.1 0 0 0-1.289-1.449c-.572-.33-1.283-.494-2.131-.494h-2.023v8.568zm13.155 1.71c-.818 0-1.532-.187-2.142-.562a3.792 3.792 0 0 1-1.42-1.574c-.338-.674-.506-1.462-.506-2.364 0-.905.168-1.697.506-2.375a3.781 3.781 0 0 1 1.42-1.579c.61-.375 1.324-.563 2.142-.563.818 0 1.532.188 2.142.563a3.79 3.79 0 0 1 1.421 1.579c.337.678.505 1.47.505 2.375 0 .902-.168 1.69-.505 2.364a3.8 3.8 0 0 1-1.421 1.574c-.61.375-1.324.562-2.142.562zm.006-1.426c.53 0 .969-.14 1.318-.42.348-.281.606-.654.773-1.12.17-.466.255-.979.255-1.54 0-.556-.085-1.068-.255-1.534a2.507 2.507 0 0 0-.773-1.13c-.349-.284-.788-.426-1.318-.426-.534 0-.978.142-1.33.426a2.54 2.54 0 0 0-.778 1.13 4.52 4.52 0 0 0-.25 1.534c0 .561.083 1.074.25 1.54.17.466.43.839.778 1.12.352.28.796.42 1.33.42zm7.409 1.25l-2.568-8.727h1.755l1.711 6.409h.085l1.716-6.409h1.756l1.704 6.38h.085l1.699-6.38h1.756L239.74 206h-1.733l-1.772-6.301h-.131L234.331 206h-1.727zm12.834-5.182V206h-1.699v-8.727h1.631v1.42h.108c.2-.462.515-.833.943-1.113.432-.281.975-.421 1.631-.421.594 0 1.115.125 1.562.375.447.246.794.614 1.04 1.102.246.489.369 1.093.369 1.813V206h-1.699v-5.347c0-.632-.164-1.126-.494-1.483-.33-.359-.782-.539-1.358-.539-.394 0-.744.085-1.051.255a1.846 1.846 0 0 0-.722.75c-.174.326-.261.72-.261 1.182zm9.386-6.454V206h-1.698v-11.636h1.698zm5.786 11.812c-.818 0-1.532-.187-2.142-.562a3.792 3.792 0 0 1-1.42-1.574c-.338-.674-.506-1.462-.506-2.364 0-.905.168-1.697.506-2.375a3.781 3.781 0 0 1 1.42-1.579c.61-.375 1.324-.563 2.142-.563.818 0 1.532.188 2.142.563a3.79 3.79 0 0 1 1.421 1.579c.337.678.505 1.47.505 2.375 0 .902-.168 1.69-.505 2.364a3.8 3.8 0 0 1-1.421 1.574c-.61.375-1.324.562-2.142.562zm.006-1.426c.53 0 .969-.14 1.318-.42.348-.281.606-.654.773-1.12.17-.466.255-.979.255-1.54 0-.556-.085-1.068-.255-1.534a2.507 2.507 0 0 0-.773-1.13c-.349-.284-.788-.426-1.318-.426-.534 0-.978.142-1.33.426a2.54 2.54 0 0 0-.778 1.13 4.52 4.52 0 0 0-.25 1.534c0 .561.083 1.074.25 1.54.17.466.43.839.778 1.12.352.28.796.42 1.33.42zm8.322 1.443a3.557 3.557 0 0 1-1.5-.307 2.52 2.52 0 0 1-1.062-.903c-.258-.394-.387-.877-.387-1.449 0-.492.095-.898.285-1.216.189-.318.445-.57.767-.756a4.029 4.029 0 0 1 1.079-.42 10.62 10.62 0 0 1 1.216-.216l1.273-.148c.326-.041.562-.108.71-.198.148-.091.222-.239.222-.444v-.039c0-.497-.141-.881-.421-1.154-.276-.273-.689-.409-1.238-.409-.572 0-1.023.127-1.353.381-.326.25-.551.528-.676.835l-1.596-.364c.189-.53.465-.958.829-1.284.367-.329.79-.568 1.267-.716a4.96 4.96 0 0 1 1.506-.227c.348 0 .718.042 1.108.125.394.08.761.227 1.102.443.345.216.627.525.847.926.219.398.329.915.329 1.552V206h-1.659v-1.193h-.068c-.11.22-.275.435-.494.648-.22.212-.502.388-.847.528s-.758.21-1.239.21zm.37-1.363c.469 0 .871-.093 1.204-.279.337-.185.593-.428.767-.727.178-.303.267-.627.267-.972v-1.125c-.06.061-.178.118-.352.171-.17.049-.366.093-.585.13-.22.034-.434.067-.642.097l-.523.068a4.24 4.24 0 0 0-.903.21 1.555 1.555 0 0 0-.648.427c-.159.181-.239.424-.239.727 0 .42.156.738.466.954.311.212.707.319 1.188.319zm9.291 1.34c-.705 0-1.333-.179-1.886-.539-.55-.364-.981-.881-1.296-1.551-.31-.675-.466-1.483-.466-2.427 0-.943.157-1.75.472-2.42.318-.671.754-1.184 1.307-1.54a3.398 3.398 0 0 1 1.88-.534c.542 0 .978.091 1.307.273.333.178.591.386.773.625.185.238.329.449.432.631h.102v-4.324h1.699V206h-1.659v-1.358h-.142c-.103.186-.25.398-.443.636a2.46 2.46 0 0 1-.785.625c-.333.178-.765.267-1.295.267zm.375-1.448c.489 0 .901-.129 1.239-.387.341-.261.598-.623.772-1.085.178-.462.267-1 .267-1.614 0-.606-.087-1.136-.261-1.591-.174-.454-.43-.808-.767-1.062s-.754-.381-1.25-.381c-.511 0-.938.133-1.278.398-.341.265-.599.627-.773 1.085a4.418 4.418 0 0 0-.256 1.551c0 .584.087 1.108.262 1.574.174.466.431.835.772 1.108.345.269.769.404 1.273.404z" fill="#C9CDD1"/><path d="M415 198.5a1.5 1.5 0 0 0 0 3v-3zM743 72l-15-8.66v17.32L743 72zM415 201.5h140v-3H415v3zM580.5 176v-18h-3v18h3zm0-62V96h-3v18h3zM603 73.5h126.5v-3H603v3zM580.5 96c0-12.426 10.074-22.5 22.5-22.5v-3c-14.083 0-25.5 11.417-25.5 25.5h3zM555 201.5c14.083 0 25.5-11.417 25.5-25.5h-3c0 12.426-10.074 22.5-22.5 22.5v3z" fill="#939BA3"/><path d="M551.119 142v-1.273l3.938-4.079c.42-.443.767-.832 1.04-1.165a4.38 4.38 0 0 0 .619-.96c.136-.303.204-.625.204-.966 0-.387-.09-.72-.272-1a1.787 1.787 0 0 0-.745-.654 2.367 2.367 0 0 0-1.062-.233c-.417 0-.78.086-1.091.256a1.754 1.754 0 0 0-.716.722c-.167.31-.25.674-.25 1.091h-1.676c0-.709.163-1.328.489-1.858a3.3 3.3 0 0 1 1.341-1.233c.568-.296 1.214-.443 1.937-.443.731 0 1.375.145 1.932.437.56.288.998.682 1.312 1.182.315.496.472 1.057.472 1.682 0 .432-.082.854-.244 1.267-.159.413-.438.873-.836 1.38-.397.504-.95 1.116-1.659 1.836l-2.312 2.42v.085h5.238V142h-7.659zm10.779.108a1.1 1.1 0 0 1-.801-.33 1.096 1.096 0 0 1-.335-.806c0-.311.111-.576.335-.796.223-.223.49-.335.801-.335.31 0 .578.112.801.335.223.22.335.485.335.796 0 .208-.053.399-.159.573a1.172 1.172 0 0 1-.409.41c-.17.102-.36.153-.568.153zm9.521-.108l-3.227-11.636h1.847l2.267 9.011h.108l2.358-9.011h1.829l2.358 9.017h.108l2.262-9.017h1.852L579.948 142h-1.767l-2.449-8.716h-.091L573.192 142h-1.773zm12.503 0v-8.727h1.642v1.386h.091c.159-.47.44-.839.841-1.108a2.407 2.407 0 0 1 1.375-.409c.106 0 .231.004.375.011.148.008.264.017.347.029v1.625a3.074 3.074 0 0 0-.364-.063 3.528 3.528 0 0 0-.522-.039c-.402 0-.76.085-1.074.255a1.904 1.904 0 0 0-1.012 1.71V142h-1.699zm5.965 0v-8.727h1.699V142h-1.699zm.858-10.074a1.08 1.08 0 0 1-.761-.295.96.96 0 0 1-.313-.716c0-.281.104-.519.313-.716.212-.201.466-.301.761-.301s.547.1.756.301a.94.94 0 0 1 .318.716.954.954 0 0 1-.318.716 1.062 1.062 0 0 1-.756.295zm7.024 1.347v1.363h-4.767v-1.363h4.767zm-3.488-2.091h1.699v8.256c0 .329.049.577.147.744a.776.776 0 0 0 .381.335c.159.057.331.085.517.085.136 0 .256-.009.358-.028.102-.019.182-.034.239-.046l.306 1.404a2.718 2.718 0 0 1-.42.113 3.314 3.314 0 0 1-.682.069 2.994 2.994 0 0 1-1.25-.239 2.14 2.14 0 0 1-.937-.773c-.239-.348-.358-.786-.358-1.312v-8.608zm8.859 10.994c-.86 0-1.6-.184-2.221-.551a3.731 3.731 0 0 1-1.432-1.563c-.334-.674-.5-1.464-.5-2.369 0-.894.166-1.682.5-2.363a3.886 3.886 0 0 1 1.409-1.597c.606-.383 1.314-.574 2.125-.574a4.3 4.3 0 0 1 1.432.244c.462.163.877.419 1.244.767.367.349.657.802.869 1.358.212.553.318 1.226.318 2.017v.603h-6.937v-1.273h5.273c0-.447-.091-.843-.273-1.187a2.06 2.06 0 0 0-.767-.824c-.326-.201-.708-.302-1.148-.302-.477 0-.894.118-1.25.353a2.364 2.364 0 0 0-.818.909 2.626 2.626 0 0 0-.284 1.21v.994c0 .584.102 1.08.307 1.489.208.409.498.722.869.938.371.212.805.318 1.301.318a2.7 2.7 0 0 0 .881-.137 1.83 1.83 0 0 0 1.131-1.108l1.608.29c-.129.474-.36.888-.694 1.244a3.346 3.346 0 0 1-1.244.824c-.496.194-1.062.29-1.699.29z" fill="#C9CDD1"/><path d="M415 198.5a1.5 1.5 0 0 0 0 3v-3zM743 312l-15-8.66v17.32l15-8.66zM415 201.5h140v-3H415v3zM577.5 224v10h3v-10h-3zm0 54v10h3v-10h-3zm25.5 35.5h126.5v-3H603v3zM577.5 288c0 14.083 11.417 25.5 25.5 25.5v-3c-12.426 0-22.5-10.074-22.5-22.5h-3zM555 201.5c12.426 0 22.5 10.074 22.5 22.5h3c0-14.083-11.417-25.5-25.5-25.5v3z" fill="#939BA3"/><path d="M526.67 262.159c-.78 0-1.477-.134-2.09-.403-.61-.269-1.093-.642-1.449-1.12a2.97 2.97 0 0 1-.569-1.67h1.785c.022.345.138.644.346.898.212.25.489.443.83.579a3.02 3.02 0 0 0 1.136.205c.458 0 .864-.08 1.216-.239a1.99 1.99 0 0 0 .835-.665c.201-.288.301-.619.301-.994 0-.39-.1-.733-.301-1.028-.197-.3-.487-.535-.869-.705-.379-.17-.837-.256-1.375-.256h-.983v-1.431h.983c.432 0 .811-.078 1.136-.233.33-.156.587-.372.773-.648.186-.28.278-.608.278-.983 0-.36-.081-.672-.244-.938a1.633 1.633 0 0 0-.682-.63c-.291-.152-.636-.228-1.034-.228-.379 0-.733.071-1.062.211a1.958 1.958 0 0 0-.796.591 1.518 1.518 0 0 0-.329.914h-1.699a2.87 2.87 0 0 1 .557-1.659c.356-.477.825-.85 1.409-1.119a4.583 4.583 0 0 1 1.943-.403c.746 0 1.39.145 1.932.437.545.288.966.672 1.261 1.153a2.9 2.9 0 0 1 .443 1.58c.004.652-.178 1.205-.545 1.659-.364.455-.849.76-1.455.915v.091c.773.117 1.371.424 1.796.92.428.496.64 1.112.636 1.847a2.869 2.869 0 0 1-.534 1.721c-.356.508-.843.908-1.46 1.199-.618.288-1.324.432-2.12.432zm6.884-.051c-.31 0-.578-.11-.801-.33a1.096 1.096 0 0 1-.335-.806c0-.311.111-.576.335-.796.223-.223.491-.335.801-.335.311 0 .578.112.801.335.224.22.335.485.335.796 0 .208-.053.399-.159.573a1.172 1.172 0 0 1-.409.41c-.17.102-.36.153-.568.153zm7.243-.108v-11.636h1.756v10.125h5.273V262h-7.029zm12.395.176c-.818 0-1.532-.187-2.142-.562a3.792 3.792 0 0 1-1.42-1.574c-.337-.674-.506-1.462-.506-2.364 0-.905.169-1.697.506-2.375a3.781 3.781 0 0 1 1.42-1.579c.61-.375 1.324-.563 2.142-.563.818 0 1.533.188 2.142.563.61.375 1.084.901 1.421 1.579.337.678.505 1.47.505 2.375 0 .902-.168 1.69-.505 2.364a3.794 3.794 0 0 1-1.421 1.574c-.609.375-1.324.562-2.142.562zm.006-1.426c.53 0 .97-.14 1.318-.42.349-.281.606-.654.773-1.12.17-.466.256-.979.256-1.54 0-.556-.086-1.068-.256-1.534a2.5 2.5 0 0 0-.773-1.13c-.348-.284-.788-.426-1.318-.426-.534 0-.977.142-1.33.426a2.54 2.54 0 0 0-.778 1.13 4.52 4.52 0 0 0-.25 1.534c0 .561.083 1.074.25 1.54.17.466.43.839.778 1.12.353.28.796.42 1.33.42zm9.459 1.426c-.845 0-1.572-.191-2.182-.574a3.798 3.798 0 0 1-1.398-1.596c-.325-.678-.488-1.455-.488-2.33 0-.886.166-1.668.5-2.346a3.83 3.83 0 0 1 1.409-1.597c.606-.383 1.32-.574 2.142-.574.663 0 1.254.123 1.773.369.519.243.937.584 1.255 1.023.322.44.514.953.574 1.54h-1.653a1.983 1.983 0 0 0-.625-1.057c-.322-.295-.754-.443-1.296-.443a2.11 2.11 0 0 0-1.244.375c-.352.246-.627.598-.824 1.057-.197.454-.295.992-.295 1.613 0 .637.096 1.186.289 1.648.194.462.466.82.819 1.074.356.254.774.381 1.255.381.322 0 .614-.059.875-.177a1.78 1.78 0 0 0 .665-.517 1.94 1.94 0 0 0 .381-.806h1.653a3.203 3.203 0 0 1-.551 1.511 3.168 3.168 0 0 1-1.233 1.045c-.511.254-1.112.381-1.801.381zm7.766.017a3.557 3.557 0 0 1-1.5-.307 2.528 2.528 0 0 1-1.063-.903c-.257-.394-.386-.877-.386-1.449 0-.492.095-.898.284-1.216.189-.318.445-.57.767-.756a4.035 4.035 0 0 1 1.08-.42c.397-.095.803-.167 1.215-.216l1.273-.148c.326-.041.563-.108.71-.198.148-.091.222-.239.222-.444v-.039c0-.497-.14-.881-.42-1.154-.277-.273-.69-.409-1.239-.409-.572 0-1.023.127-1.352.381-.326.25-.552.528-.677.835l-1.596-.364c.189-.53.466-.958.829-1.284.368-.329.79-.568 1.267-.716a4.97 4.97 0 0 1 1.506-.227c.349 0 .718.042 1.108.125.394.08.761.227 1.102.443.345.216.627.525.847.926.22.398.33.915.33 1.552V262h-1.66v-1.193h-.068c-.11.22-.274.435-.494.648-.22.212-.502.388-.847.528-.344.14-.757.21-1.238.21zm.369-1.363c.47 0 .871-.093 1.205-.279.337-.185.592-.428.767-.727.178-.303.267-.627.267-.972v-1.125c-.061.061-.178.118-.353.171-.17.049-.365.093-.585.13-.22.034-.434.067-.642.097l-.523.068a4.27 4.27 0 0 0-.903.21 1.555 1.555 0 0 0-.648.427c-.159.181-.238.424-.238.727 0 .42.155.738.466.954.31.212.706.319 1.187.319zm7.723-10.466V262h-1.699v-11.636h1.699zm10.242 2.909v1.363h-4.767v-1.363h4.767zm-3.489-2.091h1.699v8.256c0 .329.049.577.148.744a.767.767 0 0 0 .381.335c.159.057.331.085.517.085.136 0 .255-.009.358-.028l.238-.046.307 1.404a2.75 2.75 0 0 1-.42.113c-.182.042-.41.065-.682.069a2.994 2.994 0 0 1-1.25-.239 2.143 2.143 0 0 1-.938-.773c-.238-.348-.358-.786-.358-1.312v-8.608zm8.86 10.994c-.86 0-1.601-.184-2.222-.551a3.738 3.738 0 0 1-1.432-1.563c-.333-.674-.5-1.464-.5-2.369 0-.894.167-1.682.5-2.363a3.886 3.886 0 0 1 1.409-1.597c.607-.383 1.315-.574 2.125-.574.493 0 .97.082 1.432.244.462.163.877.419 1.245.767.367.349.657.802.869 1.358.212.553.318 1.226.318 2.017v.603h-6.937v-1.273h5.272c0-.447-.091-.843-.272-1.187a2.06 2.06 0 0 0-.767-.824c-.326-.201-.709-.302-1.148-.302-.477 0-.894.118-1.25.353a2.364 2.364 0 0 0-.818.909c-.19.371-.284.774-.284 1.21v.994c0 .584.102 1.08.306 1.489.209.409.498.722.87.938.371.212.805.318 1.301.318.322 0 .615-.046.881-.137.265-.094.494-.234.687-.42.193-.186.341-.415.443-.688l1.608.29c-.129.474-.36.888-.693 1.244-.33.353-.744.627-1.244.824-.497.194-1.063.29-1.699.29zm11.993-6.773l-1.54.273a1.817 1.817 0 0 0-.307-.562 1.52 1.52 0 0 0-.557-.438c-.234-.114-.528-.17-.88-.17-.481 0-.883.108-1.205.324-.322.212-.483.486-.483.823 0 .292.108.527.324.705.216.178.564.324 1.046.437l1.386.319c.803.185 1.401.471 1.795.858.394.386.591.888.591 1.505 0 .523-.151.989-.454 1.398-.3.405-.718.723-1.256.955-.534.231-1.153.346-1.858.346-.977 0-1.775-.208-2.392-.625-.617-.42-.996-1.017-1.136-1.79l1.642-.25c.102.428.312.752.63.972.319.216.733.324 1.245.324.557 0 1.002-.116 1.335-.347.333-.235.5-.521.5-.858a.89.89 0 0 0-.307-.687c-.201-.186-.509-.326-.926-.421l-1.477-.324c-.815-.185-1.417-.481-1.807-.886-.386-.405-.58-.918-.58-1.54a2.2 2.2 0 0 1 .432-1.352c.288-.386.686-.687 1.193-.903.508-.22 1.089-.33 1.745-.33.943 0 1.685.205 2.227.614.542.405.9.949 1.074 1.63zm5.936-2.13v1.363h-4.767v-1.363h4.767zm-3.489-2.091h1.699v8.256c0 .329.05.577.148.744a.767.767 0 0 0 .381.335c.159.057.331.085.517.085.136 0 .255-.009.358-.028l.238-.046.307 1.404a2.75 2.75 0 0 1-.42.113 3.314 3.314 0 0 1-.682.069 2.994 2.994 0 0 1-1.25-.239 2.143 2.143 0 0 1-.938-.773c-.238-.348-.358-.786-.358-1.312v-8.608zM613.76 262v-8.727h1.699V262h-1.699zm.858-10.074a1.08 1.08 0 0 1-.761-.295.964.964 0 0 1-.313-.716.95.95 0 0 1 .313-.716c.212-.201.466-.301.761-.301.296 0 .548.1.756.301a.94.94 0 0 1 .318.716.954.954 0 0 1-.318.716c-.208.197-.46.295-.756.295zm4.65 4.892V262h-1.699v-8.727h1.63v1.42h.108c.201-.462.515-.833.943-1.113.432-.281.976-.421 1.631-.421.595 0 1.116.125 1.563.375.447.246.793.614 1.039 1.102.247.489.37 1.093.37 1.813V262h-1.699v-5.347c0-.632-.165-1.126-.494-1.483-.33-.359-.783-.539-1.358-.539-.394 0-.745.085-1.052.255a1.844 1.844 0 0 0-.721.75c-.174.326-.261.72-.261 1.182zm11.346 8.637c-.693 0-1.29-.091-1.79-.273-.496-.182-.901-.423-1.215-.722a3.016 3.016 0 0 1-.705-.983l1.46-.602c.103.167.239.343.409.528.175.19.409.351.705.483.299.133.684.199 1.153.199.644 0 1.176-.157 1.597-.471.42-.311.631-.807.631-1.489v-1.716h-.108c-.103.186-.25.392-.444.619-.189.228-.45.425-.784.591-.333.167-.767.25-1.301.25-.689 0-1.31-.161-1.863-.483-.55-.325-.985-.805-1.307-1.437-.318-.637-.478-1.419-.478-2.347 0-.928.158-1.723.472-2.386.318-.663.754-1.171 1.307-1.523a3.4 3.4 0 0 1 1.881-.534c.541 0 .979.091 1.312.273.333.178.593.386.778.625.19.238.336.449.438.631h.125v-1.415h1.665v8.92c0 .75-.174 1.366-.523 1.847-.348.481-.82.837-1.415 1.068-.591.231-1.257.347-2 .347zm-.017-4.995c.489 0 .902-.113 1.239-.341.341-.231.598-.56.773-.988.178-.432.267-.949.267-1.551 0-.588-.087-1.105-.262-1.552-.174-.447-.43-.795-.767-1.045-.337-.254-.754-.381-1.25-.381-.511 0-.937.133-1.278.398a2.393 2.393 0 0 0-.773 1.068 4.26 4.26 0 0 0-.256 1.512c0 .572.088 1.073.262 1.505.174.432.432.769.772 1.012.345.242.769.363 1.273.363z" fill="#C9CDD1"/><path d="M827 454.5a1.5 1.5 0 0 0 0 3v-3zm188 1.5l-15-8.66v17.32l15-8.66zm-188 1.5h33v-3h-33v3zm155 0h19.5v-3H982v3z" fill="#939BA3"/><path d="M880.943 454.148h-1.773a2.716 2.716 0 0 0-.38-1 2.806 2.806 0 0 0-.682-.733 2.93 2.93 0 0 0-.903-.455 3.54 3.54 0 0 0-1.052-.153c-.67 0-1.27.168-1.801.505-.526.338-.943.832-1.25 1.483-.303.652-.454 1.447-.454 2.387 0 .947.151 1.746.454 2.398.307.651.726 1.143 1.256 1.477.53.333 1.127.5 1.79.5.367 0 .716-.049 1.045-.148a3 3 0 0 0 .904-.449 2.737 2.737 0 0 0 1.073-1.71l1.773.006a4.744 4.744 0 0 1-.551 1.579 4.36 4.36 0 0 1-1.04 1.239c-.42.345-.901.612-1.443.801a5.347 5.347 0 0 1-1.773.284c-1.007 0-1.905-.239-2.693-.716-.788-.481-1.409-1.168-1.863-2.062-.451-.894-.677-1.961-.677-3.199 0-1.243.228-2.309.682-3.199.455-.894 1.076-1.58 1.864-2.057.788-.481 1.684-.721 2.687-.721.618 0 1.194.089 1.728.267.538.174 1.02.431 1.448.772.429.337.783.75 1.063 1.239.28.485.47 1.04.568 1.665zm3.681-3.784V462h-1.756v-11.636h1.756zm6.676-.546l-3.75 13.932h-1.517l3.75-13.932h1.517zm11.068 4.33h-1.772a2.717 2.717 0 0 0-1.063-1.733 2.93 2.93 0 0 0-.903-.455 3.538 3.538 0 0 0-1.051-.153 3.29 3.29 0 0 0-1.802.505c-.526.338-.943.832-1.25 1.483-.303.652-.454 1.447-.454 2.387 0 .947.151 1.746.454 2.398.307.651.726 1.143 1.256 1.477.53.333 1.127.5 1.79.5.367 0 .716-.049 1.045-.148a3 3 0 0 0 .904-.449 2.732 2.732 0 0 0 1.074-1.71l1.772.006a4.722 4.722 0 0 1-.551 1.579 4.36 4.36 0 0 1-1.04 1.239c-.42.345-.901.612-1.443.801a5.343 5.343 0 0 1-1.773.284c-1.007 0-1.905-.239-2.693-.716-.788-.481-1.409-1.168-1.863-2.062-.451-.894-.676-1.961-.676-3.199 0-1.243.227-2.309.681-3.199.455-.894 1.076-1.58 1.864-2.057.788-.481 1.684-.721 2.687-.721.618 0 1.194.089 1.728.267a4.55 4.55 0 0 1 1.449.772c.428.337.782.75 1.062 1.239.28.485.47 1.04.568 1.665zM908.06 462h-3.767v-11.636h3.887c1.14 0 2.119.233 2.937.698a4.613 4.613 0 0 1 1.881 1.995c.439.863.659 1.899.659 3.108 0 1.212-.222 2.254-.665 3.125a4.667 4.667 0 0 1-1.909 2.011c-.833.466-1.841.699-3.023.699zm-2.011-1.534h1.915c.886 0 1.623-.167 2.21-.5a3.154 3.154 0 0 0 1.318-1.46c.292-.64.438-1.421.438-2.341 0-.913-.146-1.688-.438-2.324a3.096 3.096 0 0 0-1.29-1.449c-.572-.33-1.282-.494-2.13-.494h-2.023v8.568zm21.156-10.102h1.762v7.653c0 .814-.192 1.536-.574 2.165a4.016 4.016 0 0 1-1.614 1.477c-.693.356-1.505.534-2.437.534-.928 0-1.739-.178-2.432-.534a4.016 4.016 0 0 1-1.614-1.477c-.382-.629-.574-1.351-.574-2.165v-7.653h1.756v7.511c0 .527.116.994.347 1.403.235.41.566.731.994.966.428.231.936.347 1.523.347.591 0 1.1-.116 1.528-.347.432-.235.762-.556.989-.966.231-.409.346-.876.346-1.403v-7.511zm4.002 14.909v-12h1.659v1.415h.142c.099-.182.241-.393.426-.631.186-.239.443-.447.773-.625.329-.182.765-.273 1.307-.273.704 0 1.333.178 1.886.534.553.356.987.869 1.301 1.54.318.67.478 1.477.478 2.42 0 .944-.158 1.752-.472 2.427-.314.67-.746 1.187-1.296 1.551-.549.36-1.176.539-1.88.539-.531 0-.964-.089-1.301-.267a2.445 2.445 0 0 1-.784-.625 4.595 4.595 0 0 1-.438-.636h-.102v4.631h-1.699zm1.665-7.637c0 .614.089 1.152.267 1.614.178.462.435.824.772 1.085.338.258.75.387 1.239.387.508 0 .932-.135 1.273-.404.341-.273.598-.642.773-1.108.178-.466.267-.99.267-1.574a4.35 4.35 0 0 0-.262-1.551c-.17-.458-.428-.82-.772-1.085-.341-.265-.768-.398-1.279-.398-.492 0-.909.127-1.25.381-.337.254-.593.608-.767 1.062-.174.455-.261.985-.261 1.591zm9.733-7.272V462h-1.699v-11.636h1.699zm5.785 11.812c-.818 0-1.532-.187-2.142-.562a3.799 3.799 0 0 1-1.42-1.574c-.337-.674-.506-1.462-.506-2.364 0-.905.169-1.697.506-2.375a3.788 3.788 0 0 1 1.42-1.579c.61-.375 1.324-.563 2.142-.563.819 0 1.533.188 2.142.563.61.375 1.084.901 1.421 1.579.337.678.506 1.47.506 2.375 0 .902-.169 1.69-.506 2.364a3.794 3.794 0 0 1-1.421 1.574c-.609.375-1.323.562-2.142.562zm.006-1.426c.53 0 .97-.14 1.318-.42.349-.281.606-.654.773-1.12.17-.466.256-.979.256-1.54 0-.556-.086-1.068-.256-1.534a2.5 2.5 0 0 0-.773-1.13c-.348-.284-.788-.426-1.318-.426-.534 0-.977.142-1.329.426a2.541 2.541 0 0 0-.779 1.13 4.52 4.52 0 0 0-.25 1.534c0 .561.083 1.074.25 1.54.171.466.43.839.779 1.12.352.28.795.42 1.329.42zm8.323 1.443a3.557 3.557 0 0 1-1.5-.307 2.528 2.528 0 0 1-1.063-.903c-.257-.394-.386-.877-.386-1.449 0-.492.095-.898.284-1.216.189-.318.445-.57.767-.756a4.035 4.035 0 0 1 1.08-.42c.397-.095.803-.167 1.215-.216l1.273-.148c.326-.041.563-.108.71-.198.148-.091.222-.239.222-.444v-.039c0-.497-.14-.881-.42-1.154-.277-.273-.69-.409-1.239-.409-.572 0-1.023.127-1.352.381-.326.25-.552.528-.677.835l-1.596-.364c.189-.53.466-.958.829-1.284.368-.329.79-.568 1.267-.716a4.97 4.97 0 0 1 1.506-.227c.349 0 .718.042 1.108.125.394.08.761.227 1.102.443.345.216.627.525.847.926.22.398.33.915.33 1.552V462h-1.66v-1.193h-.068c-.11.22-.274.435-.494.648-.22.212-.502.388-.847.528-.344.14-.757.21-1.238.21zm.369-1.363c.47 0 .871-.093 1.205-.279.337-.185.592-.428.767-.727.178-.303.267-.627.267-.972v-1.125c-.061.061-.178.118-.353.171-.17.049-.365.093-.585.13-.22.034-.434.067-.642.097l-.523.068a4.27 4.27 0 0 0-.903.21 1.555 1.555 0 0 0-.648.427c-.159.181-.238.424-.238.727 0 .42.155.738.466.954.31.212.706.319 1.187.319zm9.291 1.34c-.704 0-1.333-.179-1.886-.539-.549-.364-.981-.881-1.295-1.551-.311-.675-.466-1.483-.466-2.427 0-.943.157-1.75.471-2.42.318-.671.754-1.184 1.307-1.54a3.4 3.4 0 0 1 1.881-.534c.541 0 .977.091 1.307.273.333.178.59.386.772.625.186.238.33.449.432.631h.102v-4.324h1.699V462h-1.659v-1.358h-.142c-.102.186-.25.398-.443.636-.19.239-.451.447-.784.625-.334.178-.765.267-1.296.267zm.375-1.448c.489 0 .902-.129 1.239-.387.341-.261.598-.623.773-1.085.178-.462.267-1 .267-1.614 0-.606-.087-1.136-.262-1.591-.174-.454-.43-.808-.767-1.062s-.753-.381-1.25-.381c-.511 0-.937.133-1.278.398-.341.265-.599.627-.773 1.085-.17.459-.255.976-.255 1.551 0 .584.087 1.108.261 1.574.174.466.432.835.773 1.108.344.269.769.404 1.272.404z" fill="#C9CDD1"/><path d="M372.5 268.182a1.5 1.5 0 1 0-3 0h3zM743 456l-15-8.66v17.32l15-8.66zM369.5 268.182V432h3V268.182h-3zM395 457.5h113.5v-3H395v3zm210.5 0h124v-3h-124v3zm-236-25.5c0 14.083 11.417 25.5 25.5 25.5v-3c-12.426 0-22.5-10.074-22.5-22.5h-3z" fill="#939BA3"/><path d="M519.375 459.727v-1.42l5.028-7.943h1.12v2.091h-.711l-3.596 5.693v.091h6.892v1.488h-8.733zm5.517 2.273v-2.705l.011-.647v-8.284h1.665V462h-1.676zm5.725.108c-.311 0-.578-.11-.802-.33a1.1 1.1 0 0 1-.335-.806c0-.311.112-.576.335-.796.224-.223.491-.335.802-.335.31 0 .577.112.801.335.223.22.335.485.335.796 0 .208-.053.399-.159.573a1.18 1.18 0 0 1-.409.41c-.171.102-.36.153-.568.153zm16.908-7.96h-1.773a2.7 2.7 0 0 0-1.063-1.733 2.93 2.93 0 0 0-.903-.455 3.538 3.538 0 0 0-1.051-.153c-.671 0-1.271.168-1.801.505-.527.338-.944.832-1.25 1.483-.303.652-.455 1.447-.455 2.387 0 .947.152 1.746.455 2.398.306.651.725 1.143 1.255 1.477.531.333 1.127.5 1.79.5.368 0 .716-.049 1.046-.148.333-.102.634-.252.903-.449s.496-.437.682-.721c.189-.288.32-.618.392-.989l1.773.006a4.745 4.745 0 0 1-.552 1.579c-.269.477-.615.89-1.039 1.239a4.694 4.694 0 0 1-1.444.801 5.34 5.34 0 0 1-1.772.284c-1.008 0-1.906-.239-2.693-.716-.788-.481-1.41-1.168-1.864-2.062-.451-.894-.676-1.961-.676-3.199 0-1.243.227-2.309.682-3.199.454-.894 1.075-1.58 1.863-2.057.788-.481 1.684-.721 2.688-.721a5.43 5.43 0 0 1 1.727.267 4.55 4.55 0 0 1 1.449.772c.428.337.782.75 1.062 1.239.281.485.47 1.04.569 1.665zm5.464 8.028c-.818 0-1.532-.187-2.142-.562a3.792 3.792 0 0 1-1.42-1.574c-.337-.674-.506-1.462-.506-2.364 0-.905.169-1.697.506-2.375a3.781 3.781 0 0 1 1.42-1.579c.61-.375 1.324-.563 2.142-.563.818 0 1.532.188 2.142.563.61.375 1.084.901 1.421 1.579.337.678.505 1.47.505 2.375 0 .902-.168 1.69-.505 2.364a3.794 3.794 0 0 1-1.421 1.574c-.61.375-1.324.562-2.142.562zm.006-1.426c.53 0 .97-.14 1.318-.42.349-.281.606-.654.773-1.12.17-.466.255-.979.255-1.54 0-.556-.085-1.068-.255-1.534a2.5 2.5 0 0 0-.773-1.13c-.348-.284-.788-.426-1.318-.426-.534 0-.977.142-1.33.426a2.54 2.54 0 0 0-.778 1.13 4.52 4.52 0 0 0-.25 1.534c0 .561.083 1.074.25 1.54.17.466.43.839.778 1.12.353.28.796.42 1.33.42zm5.783 1.25v-8.727h1.63v1.42h.108c.182-.481.479-.856.892-1.125.413-.273.908-.409 1.483-.409.584 0 1.072.136 1.466.409.398.273.692.648.881 1.125h.091c.208-.466.54-.837.994-1.113.455-.281.996-.421 1.625-.421.792 0 1.438.248 1.938.744.503.497.755 1.245.755 2.245V462h-1.699v-5.693c0-.591-.161-1.019-.483-1.284a1.755 1.755 0 0 0-1.153-.398c-.553 0-.983.17-1.29.511-.307.337-.46.771-.46 1.302V462h-1.693v-5.801c0-.474-.148-.854-.443-1.142-.296-.288-.68-.432-1.154-.432-.322 0-.619.085-.892.256a1.867 1.867 0 0 0-.653.699 2.135 2.135 0 0 0-.244 1.039V462h-1.699zm13.964 0v-8.727h1.631v1.42h.108c.182-.481.479-.856.892-1.125.413-.273.907-.409 1.483-.409.583 0 1.072.136 1.466.409.398.273.691.648.881 1.125h.09c.209-.466.54-.837.995-1.113.454-.281.996-.421 1.625-.421.791 0 1.437.248 1.937.744.504.497.756 1.245.756 2.245V462h-1.699v-5.693c0-.591-.161-1.019-.483-1.284a1.757 1.757 0 0 0-1.153-.398c-.553 0-.983.17-1.29.511-.307.337-.46.771-.46 1.302V462h-1.693v-5.801c0-.474-.148-.854-.444-1.142-.295-.288-.68-.432-1.153-.432-.322 0-.619.085-.892.256a1.87 1.87 0 0 0-.654.699 2.147 2.147 0 0 0-.244 1.039V462h-1.699zm13.965 0v-8.727h1.699V462h-1.699zm.858-10.074c-.296 0-.549-.098-.761-.295a.96.96 0 0 1-.313-.716c0-.281.104-.519.313-.716.212-.201.465-.301.761-.301.295 0 .547.1.756.301a.94.94 0 0 1 .318.716.954.954 0 0 1-.318.716 1.062 1.062 0 0 1-.756.295zm7.024 1.347v1.363h-4.767v-1.363h4.767zm-3.488-2.091h1.698v8.256c0 .329.05.577.148.744a.772.772 0 0 0 .381.335c.159.057.331.085.517.085.136 0 .256-.009.358-.028.102-.019.182-.034.238-.046l.307 1.404a2.718 2.718 0 0 1-.42.113 3.314 3.314 0 0 1-.682.069 2.994 2.994 0 0 1-1.25-.239 2.149 2.149 0 0 1-.938-.773c-.238-.348-.357-.786-.357-1.312v-8.608z" fill="#C9CDD1"/><path d="M831 70.5a1.5 1.5 0 0 0 0 3v-3zm0 241.5l15 8.66v-17.32L831 312zm0-238.5h32v-3h-32v3zM885.5 96v192h3V96h-3zM863 310.5h-18.5v3H863v-3zm22.5-22.5c0 12.426-10.074 22.5-22.5 22.5v3c14.083 0 25.5-11.417 25.5-25.5h-3zM863 73.5c12.426 0 22.5 10.074 22.5 22.5h3c0-14.083-11.417-25.5-25.5-25.5v3z" fill="#939BA3"/><rect x=".5" y=".5" width="1159" height="607" rx="15.5" stroke="#fff" stroke-opacity=".05"/><defs><clipPath id="clip0_2093_3862"><path fill="#fff" transform="translate(331 160)" d="M0 0h80v80H0z"/></clipPath></defs></svg>