<svg width="1160" height="608" fill="none" xmlns="http://www.w3.org/2000/svg"><rect width="1160" height="608" rx="16" fill="#3D4B59"/><rect x="366" y="336" width="476" height="188" rx="4" stroke="#939BA3" stroke-width="4"/><path d="M1076.33 190.333h-46.66c-3.67 0-6.67 3-6.67 6.667v13.333c0 3.667 3 6.667 6.67 6.667h46.66c3.67 0 6.67-3 6.67-6.667V197c0-3.667-3-6.667-6.67-6.667zm-40 20c-3.66 0-6.66-3-6.66-6.666 0-3.667 3-6.667 6.66-6.667 3.67 0 6.67 3 6.67 6.667 0 3.666-3 6.666-6.67 6.666zm40-53.333h-46.66c-3.67 0-6.67 3-6.67 6.667V177c0 3.667 3 6.667 6.67 6.667h46.66c3.67 0 6.67-3 6.67-6.667v-13.333c0-3.667-3-6.667-6.67-6.667zm-40 20c-3.66 0-6.66-3-6.66-6.667 0-3.666 3-6.666 6.66-6.666 3.67 0 6.67 3 6.67 6.666 0 3.667-3 6.667-6.67 6.667zm40 83.333h-46.66c-3.67 0-6.67 3-6.67 6.667v13.333c0 3.667 3 6.667 6.67 6.667h46.66c3.67 0 6.67-3 6.67-6.667V267c0-3.667-3-6.667-6.67-6.667zm-40 20c-3.66 0-6.66-3-6.66-6.666 0-3.667 3-6.667 6.66-6.667 3.67 0 6.67 3 6.67 6.667 0 3.666-3 6.666-6.67 6.666zm40-53.333h-46.66c-3.67 0-6.67 3-6.67 6.667V247c0 3.667 3 6.667 6.67 6.667h46.66c3.67 0 6.67-3 6.67-6.667v-13.333c0-3.667-3-6.667-6.67-6.667zm-40 20c-3.66 0-6.66-3-6.66-6.667 0-3.666 3-6.666 6.66-6.666 3.67 0 6.67 3 6.67 6.666 0 3.667-3 6.667-6.67 6.667z" fill="#26D7A0"/><path d="M377.333 248.667h53.334c3.666 0 6.666-3 6.666-6.667s-3-6.667-6.666-6.667h-53.334c-3.666 0-6.666 3-6.666 6.667s3 6.667 6.666 6.667zm0-10H384v6.666h-6.667v-6.666zM370.667 202c0 3.667 3 6.667 6.666 6.667h53.334c3.666 0 6.666-3 6.666-6.667s-3-6.667-6.666-6.667h-53.334c-3.666 0-6.666 3-6.666 6.667zM384 205.333h-6.667v-6.666H384v6.666zm-6.667 23.334h53.334c3.666 0 6.666-3 6.666-6.667s-3-6.667-6.666-6.667h-53.334c-3.666 0-6.666 3-6.666 6.667s3 6.667 6.666 6.667zm0-10H384v6.666h-6.667v-6.666z" fill="#fff"/><path d="M377.333 248.667h53.334c3.666 0 6.666-3 6.666-6.667s-3-6.667-6.666-6.667h-53.334c-3.666 0-6.666 3-6.666 6.667s3 6.667 6.666 6.667zm0-10H384v6.666h-6.667v-6.666zM370.667 202c0 3.667 3 6.667 6.666 6.667h53.334c3.666 0 6.666-3 6.666-6.667s-3-6.667-6.666-6.667h-53.334c-3.666 0-6.666 3-6.666 6.667zM384 205.333h-6.667v-6.666H384v6.666zm-6.667 23.334h53.334c3.666 0 6.666-3 6.666-6.667s-3-6.667-6.666-6.667h-53.334c-3.666 0-6.666 3-6.666 6.667s3 6.667 6.666 6.667zm0-10H384v6.666h-6.667v-6.666z" fill="#3A86FF" fill-opacity=".5"/><path d="M124.5 319.467c-2.267-11.5-12.367-20.134-24.5-20.134-9.633 0-18 5.467-22.167 13.467C67.8 313.867 60 322.367 60 332.667c0 11.033 8.967 20 20 20h43.333c9.2 0 16.667-7.467 16.667-16.667 0-8.8-6.833-15.933-15.5-16.533zm-7.833 9.866l-15.5 15.5a1.65 1.65 0 0 1-2.367 0l-15.467-15.5h10V316h13.334v13.333h10z" fill="#26D7A0"/><path d="M124.5 111.467c-2.267-11.5-12.367-20.133-24.5-20.133-9.633 0-18 5.466-22.167 13.466C67.8 105.867 60 114.367 60 124.667c0 11.033 8.967 20 20 20h43.333c9.2 0 16.667-7.467 16.667-16.667 0-8.8-6.833-15.933-15.5-16.533zm-7.833 9.866l-15.5 15.5a1.65 1.65 0 0 1-2.367 0l-15.467-15.5h10V108h13.334v13.333h10z" fill="#fff"/><path d="M124.5 111.467c-2.267-11.5-12.367-20.133-24.5-20.133-9.633 0-18 5.466-22.167 13.466C67.8 105.867 60 114.367 60 124.667c0 11.033 8.967 20 20 20h43.333c9.2 0 16.667-7.467 16.667-16.667 0-8.8-6.833-15.933-15.5-16.533zm-7.833 9.866l-15.5 15.5a1.65 1.65 0 0 1-2.367 0l-15.467-15.5h10V108h13.334v13.333h10z" fill="#3A86FF" fill-opacity=".5"/><path d="M504 406c0-.767-.034-1.5-.1-2.267l6.2-4.7c1.333-1 1.7-2.866.866-4.333l-6.233-10.767a3.29 3.29 0 0 0-4.167-1.4l-7.166 3.034a25.3 25.3 0 0 0-3.9-2.267l-.967-7.7a3.342 3.342 0 0 0-3.3-2.933H472.8c-1.7 0-3.134 1.266-3.334 2.933l-.966 7.7a25.206 25.206 0 0 0-3.9 2.267l-7.167-3.034a3.292 3.292 0 0 0-4.167 1.4l-6.233 10.8a3.361 3.361 0 0 0 .867 4.334l6.2 4.7a25.656 25.656 0 0 0 0 4.5l-6.2 4.7c-1.334 1-1.7 2.866-.867 4.333l6.233 10.767a3.292 3.292 0 0 0 4.167 1.4l7.167-3.034a25.206 25.206 0 0 0 3.9 2.267l.966 7.7a3.343 3.343 0 0 0 3.3 2.933H485.2c1.666 0 3.1-1.266 3.3-2.933l.966-7.7a25.206 25.206 0 0 0 3.9-2.267l7.167 3.034a3.292 3.292 0 0 0 4.167-1.4l6.233-10.767a3.36 3.36 0 0 0-.867-4.333l-6.2-4.7c.1-.767.134-1.5.134-2.267zm-24.867 11.667c-6.433 0-11.667-5.234-11.667-11.667s5.234-11.667 11.667-11.667S490.8 399.567 490.8 406s-5.234 11.667-11.667 11.667z" fill="#26D7A0"/><path d="M755 406c0-.767-.034-1.5-.1-2.267l6.2-4.7c1.333-1 1.7-2.866.866-4.333l-6.233-10.767a3.29 3.29 0 0 0-4.167-1.4l-7.166 3.034a25.3 25.3 0 0 0-3.9-2.267l-.967-7.7a3.342 3.342 0 0 0-3.3-2.933H723.8c-1.7 0-3.134 1.266-3.334 2.933l-.966 7.7a25.206 25.206 0 0 0-3.9 2.267l-7.167-3.034a3.292 3.292 0 0 0-4.167 1.4l-6.233 10.8a3.361 3.361 0 0 0 .867 4.334l6.2 4.7a25.656 25.656 0 0 0 0 4.5l-6.2 4.7c-1.334 1-1.7 2.866-.867 4.333l6.233 10.767a3.292 3.292 0 0 0 4.167 1.4l7.167-3.034a25.206 25.206 0 0 0 3.9 2.267l.966 7.7a3.343 3.343 0 0 0 3.3 2.933H736.2c1.666 0 3.1-1.266 3.3-2.933l.966-7.7a25.206 25.206 0 0 0 3.9-2.267l7.167 3.034a3.292 3.292 0 0 0 4.167-1.4l6.233-10.767a3.36 3.36 0 0 0-.867-4.333l-6.2-4.7c.1-.767.134-1.5.134-2.267zm-24.867 11.667c-6.433 0-11.667-5.234-11.667-11.667s5.234-11.667 11.667-11.667S741.8 399.567 741.8 406s-5.234 11.667-11.667 11.667z" fill="#fff"/><path d="M755 406c0-.767-.034-1.5-.1-2.267l6.2-4.7c1.333-1 1.7-2.866.866-4.333l-6.233-10.767a3.29 3.29 0 0 0-4.167-1.4l-7.166 3.034a25.3 25.3 0 0 0-3.9-2.267l-.967-7.7a3.342 3.342 0 0 0-3.3-2.933H723.8c-1.7 0-3.134 1.266-3.334 2.933l-.966 7.7a25.206 25.206 0 0 0-3.9 2.267l-7.167-3.034a3.292 3.292 0 0 0-4.167 1.4l-6.233 10.8a3.361 3.361 0 0 0 .867 4.334l6.2 4.7a25.656 25.656 0 0 0 0 4.5l-6.2 4.7c-1.334 1-1.7 2.866-.867 4.333l6.233 10.767a3.292 3.292 0 0 0 4.167 1.4l7.167-3.034a25.206 25.206 0 0 0 3.9 2.267l.966 7.7a3.343 3.343 0 0 0 3.3 2.933H736.2c1.666 0 3.1-1.266 3.3-2.933l.966-7.7a25.206 25.206 0 0 0 3.9-2.267l7.167 3.034a3.292 3.292 0 0 0 4.167-1.4l6.233-10.767a3.36 3.36 0 0 0-.867-4.333l-6.2-4.7c.1-.767.134-1.5.134-2.267zm-24.867 11.667c-6.433 0-11.667-5.234-11.667-11.667s5.234-11.667 11.667-11.667S741.8 399.567 741.8 406s-5.234 11.667-11.667 11.667z" fill="#3A86FF" fill-opacity=".5"/><path d="M363.612 283.454c-.254 0-.485-.02-.694-.062a2.236 2.236 0 0 1-.466-.125l.41-1.392c.31.083.587.119.829.108a.991.991 0 0 0 .642-.273c.19-.17.356-.449.5-.835l.21-.58-3.193-8.841h1.818l2.211 6.773h.09l2.211-6.773h1.824l-3.597 9.892a3.973 3.973 0 0 1-.636 1.154 2.478 2.478 0 0 1-.921.716c-.356.159-.769.238-1.238.238zm11.191-3.096c-.818 0-1.532-.188-2.142-.563a3.793 3.793 0 0 1-1.42-1.574c-.337-.674-.506-1.462-.506-2.363 0-.906.169-1.697.506-2.375a3.79 3.79 0 0 1 1.42-1.58c.61-.375 1.324-.562 2.142-.562.819 0 1.533.187 2.142.562.61.375 1.084.902 1.421 1.58.337.678.506 1.469.506 2.375 0 .901-.169 1.689-.506 2.363a3.788 3.788 0 0 1-1.421 1.574c-.609.375-1.323.563-2.142.563zm.006-1.426c.53 0 .97-.141 1.318-.421a2.46 2.46 0 0 0 .773-1.119c.17-.466.256-.979.256-1.54 0-.557-.086-1.068-.256-1.534a2.497 2.497 0 0 0-.773-1.131c-.348-.284-.788-.426-1.318-.426-.534 0-.977.142-1.329.426a2.539 2.539 0 0 0-.779 1.131c-.167.466-.25.977-.25 1.534 0 .561.083 1.074.25 1.54.171.466.43.839.779 1.119.352.28.795.421 1.329.421zm11.311-2.37v-5.108h1.705v8.728h-1.671v-1.512h-.09a2.73 2.73 0 0 1-.966 1.165c-.44.307-.987.46-1.642.46-.561 0-1.057-.123-1.489-.369-.428-.25-.765-.619-1.011-1.108-.243-.489-.364-1.093-.364-1.812v-5.552h1.699v5.347c0 .595.165 1.068.494 1.42.33.353.758.529 1.284.529.318 0 .635-.08.949-.239.318-.159.581-.399.79-.721.212-.322.316-.731.312-1.228zm3.812 3.62v-8.728h1.642v1.387h.091a2.11 2.11 0 0 1 .84-1.108 2.407 2.407 0 0 1 1.375-.409 6.778 6.778 0 0 1 .722.039v1.625a3.326 3.326 0 0 0-.364-.062 3.399 3.399 0 0 0-.522-.04c-.402 0-.76.085-1.074.256a1.896 1.896 0 0 0-1.012 1.71v5.33h-1.698zm16.562-6.597l-1.539.273a1.842 1.842 0 0 0-.307-.563 1.515 1.515 0 0 0-.557-.437c-.235-.114-.528-.171-.881-.171-.481 0-.882.108-1.204.324-.322.212-.483.487-.483.824 0 .292.108.527.324.705.216.178.564.323 1.045.437l1.386.318c.803.186 1.402.472 1.796.858.394.387.591.888.591 1.506 0 .523-.152.989-.455 1.398-.299.405-.718.723-1.255.954-.535.231-1.154.347-1.858.347-.978 0-1.775-.209-2.392-.625-.618-.421-.997-1.017-1.137-1.79l1.642-.25c.103.428.313.752.631.972.318.216.733.323 1.244.323.557 0 1.002-.115 1.335-.346.334-.235.5-.521.5-.858a.894.894 0 0 0-.306-.688c-.201-.185-.51-.325-.926-.42l-1.478-.324c-.814-.186-1.416-.481-1.807-.886-.386-.406-.579-.919-.579-1.54a2.2 2.2 0 0 1 .432-1.352c.288-.387.685-.688 1.193-.904.507-.219 1.089-.329 1.744-.329.943 0 1.686.204 2.227.613.542.406.9.949 1.074 1.631zm5.624 6.773c-.86 0-1.6-.184-2.222-.551a3.741 3.741 0 0 1-1.431-1.563c-.334-.674-.5-1.464-.5-2.369 0-.894.166-1.682.5-2.364.337-.682.806-1.214 1.409-1.596.606-.383 1.314-.574 2.125-.574.492 0 .969.081 1.432.244.462.163.876.419 1.244.767.367.349.657.801.869 1.358.212.553.318 1.225.318 2.017v.602h-6.937v-1.272h5.273c0-.447-.091-.843-.273-1.188a2.072 2.072 0 0 0-.767-.824c-.326-.2-.709-.301-1.148-.301-.477 0-.894.118-1.25.352a2.367 2.367 0 0 0-.818.91 2.626 2.626 0 0 0-.284 1.21v.994c0 .583.102 1.08.307 1.489.208.409.498.721.869.937.371.212.805.318 1.301.318a2.7 2.7 0 0 0 .881-.136c.265-.095.494-.235.687-.42.193-.186.341-.415.443-.688l1.608.29a2.898 2.898 0 0 1-.693 1.244 3.358 3.358 0 0 1-1.244.824c-.496.193-1.063.29-1.699.29zm5.453-.176v-8.728h1.642v1.387h.091c.159-.47.44-.839.841-1.108a2.404 2.404 0 0 1 1.375-.409 6.778 6.778 0 0 1 .722.039v1.625a3.372 3.372 0 0 0-.364-.062 3.402 3.402 0 0 0-.523-.04c-.401 0-.759.085-1.073.256a1.896 1.896 0 0 0-1.012 1.71v5.33h-1.699zm13.696-8.728l-3.164 8.728h-1.818l-3.171-8.728h1.824l2.21 6.716h.091l2.205-6.716h1.823zm4.886 8.904c-.86 0-1.601-.184-2.222-.551a3.743 3.743 0 0 1-1.432-1.563c-.333-.674-.5-1.464-.5-2.369 0-.894.167-1.682.5-2.364a3.877 3.877 0 0 1 1.409-1.596c.606-.383 1.315-.574 2.125-.574.493 0 .97.081 1.432.244.462.163.877.419 1.244.767.368.349.658.801.87 1.358.212.553.318 1.225.318 2.017v.602h-6.938v-1.272h5.273c0-.447-.091-.843-.273-1.188a2.058 2.058 0 0 0-.767-.824c-.325-.2-.708-.301-1.147-.301-.478 0-.894.118-1.25.352a2.37 2.37 0 0 0-.819.91 2.626 2.626 0 0 0-.284 1.21v.994c0 .583.103 1.08.307 1.489.208.409.498.721.869.937.372.212.805.318 1.302.318.322 0 .615-.045.88-.136.265-.095.495-.235.688-.42.193-.186.341-.415.443-.688l1.608.29c-.129.473-.36.888-.693 1.244a3.37 3.37 0 0 1-1.245.824c-.496.193-1.062.29-1.698.29zm5.453-.176v-8.728h1.642v1.387h.091c.159-.47.439-.839.841-1.108a2.402 2.402 0 0 1 1.375-.409 6.778 6.778 0 0 1 .721.039v1.625a3.341 3.341 0 0 0-.363-.062 3.421 3.421 0 0 0-.523-.04c-.402 0-.76.085-1.074.256a1.896 1.896 0 0 0-1.011 1.71v5.33h-1.699zm-83.838 21.039l-.011-2.073h.295l3.478-3.694h2.034l-3.966 4.205h-.267l-1.563 1.562zm-1.562 2.961v-11.637h1.699v11.637h-1.699zm5.511 0l-3.125-4.148 1.171-1.188 4.039 5.336h-2.085zm7.128.159c-.814 0-1.534-.14-2.159-.421-.621-.28-1.108-.666-1.46-1.159a2.788 2.788 0 0 1-.523-1.682 2.97 2.97 0 0 1 1.148-2.397 2.607 2.607 0 0 1 1.193-.534v-.069a2.35 2.35 0 0 1-1.392-.931 2.732 2.732 0 0 1-.517-1.66 2.712 2.712 0 0 1 .472-1.59 3.29 3.29 0 0 1 1.323-1.108c.561-.269 1.199-.404 1.915-.404.709 0 1.341.137 1.898.409a3.295 3.295 0 0 1 1.324 1.108c.322.466.485.995.488 1.585a2.759 2.759 0 0 1-.534 1.66c-.352.481-.81.791-1.375.931v.069c.436.075.828.253 1.176.534.353.276.633.623.841 1.039.213.413.32.866.324 1.358a2.852 2.852 0 0 1-.534 1.682c-.352.493-.841.879-1.466 1.159-.621.281-1.335.421-2.142.421zm0-1.438c.481 0 .898-.079 1.25-.238.352-.163.625-.389.818-.677.194-.291.292-.632.296-1.022a1.917 1.917 0 0 0-.318-1.074 2.122 2.122 0 0 0-.836-.733 2.644 2.644 0 0 0-1.21-.267c-.458 0-.865.089-1.221.267a2.11 2.11 0 0 0-.841.733c-.205.31-.305.668-.301 1.074a1.8 1.8 0 0 0 .278 1.022c.193.288.468.514.824.677.356.159.776.238 1.261.238zm0-5.415c.387 0 .729-.077 1.029-.232a1.77 1.77 0 0 0 .704-.648c.174-.277.263-.601.267-.972a1.804 1.804 0 0 0-.261-.954 1.665 1.665 0 0 0-.699-.631 2.266 2.266 0 0 0-1.04-.227 2.33 2.33 0 0 0-1.057.227 1.656 1.656 0 0 0-.698.631 1.751 1.751 0 0 0-.245.954c-.004.371.08.695.25.972.171.276.406.492.705.648.303.155.651.232 1.045.232zm12.564.097l-1.54.273a1.818 1.818 0 0 0-.306-.563 1.515 1.515 0 0 0-.557-.437c-.235-.114-.529-.171-.881-.171-.481 0-.882.108-1.204.324-.322.212-.483.487-.483.824 0 .292.108.527.324.705.215.178.564.323 1.045.437l1.386.318c.803.186 1.402.472 1.796.858.394.387.591.888.591 1.506 0 .523-.152.989-.455 1.398-.299.405-.718.723-1.256.954-.534.231-1.153.347-1.857.347-.978 0-1.775-.209-2.393-.625-.617-.421-.996-1.017-1.136-1.79l1.642-.25c.102.428.313.752.631.972.318.216.733.323 1.244.323.557 0 1.002-.115 1.335-.346.334-.235.5-.521.5-.858a.894.894 0 0 0-.306-.688c-.201-.185-.51-.325-.927-.42l-1.477-.324c-.814-.186-1.417-.481-1.807-.886-.386-.406-.579-.919-.579-1.54a2.2 2.2 0 0 1 .432-1.352c.287-.387.685-.688 1.193-.904.507-.219 1.089-.329 1.744-.329.943 0 1.686.204 2.227.613.542.406.9.949 1.074 1.631zm9.597 6.773c-.818 0-1.532-.188-2.142-.563a3.786 3.786 0 0 1-1.42-1.574c-.338-.674-.506-1.462-.506-2.363 0-.906.168-1.697.506-2.375a3.784 3.784 0 0 1 1.42-1.58c.61-.375 1.324-.562 2.142-.562.818 0 1.532.187 2.142.562.61.375 1.083.902 1.421 1.58.337.678.505 1.469.505 2.375 0 .901-.168 1.689-.505 2.363a3.795 3.795 0 0 1-1.421 1.574c-.61.375-1.324.563-2.142.563zm.006-1.426c.53 0 .969-.141 1.318-.421.348-.28.606-.653.773-1.119.17-.466.255-.979.255-1.54 0-.557-.085-1.068-.255-1.534a2.505 2.505 0 0 0-.773-1.131c-.349-.284-.788-.426-1.318-.426-.534 0-.977.142-1.33.426a2.537 2.537 0 0 0-.778 1.131c-.167.466-.25.977-.25 1.534 0 .561.083 1.074.25 1.54.17.466.43.839.778 1.119.353.28.796.421 1.33.421zm5.783 1.25v-8.728h1.642v1.387h.091a2.11 2.11 0 0 1 .84-1.108 2.407 2.407 0 0 1 1.375-.409 6.725 6.725 0 0 1 .722.039v1.625a3.326 3.326 0 0 0-.364-.062 3.399 3.399 0 0 0-.522-.04c-.402 0-.76.085-1.074.256a1.896 1.896 0 0 0-1.012 1.71v5.33h-1.698zm10.159 0v-11.637h1.699v4.324h.102a4.87 4.87 0 0 1 .426-.631 2.42 2.42 0 0 1 .773-.625c.33-.181.765-.272 1.307-.272.704 0 1.333.178 1.886.534.553.356.987.869 1.301 1.54.318.67.478 1.477.478 2.42 0 .943-.158 1.752-.472 2.426-.314.671-.746 1.188-1.295 1.551-.55.36-1.177.54-1.881.54-.53 0-.964-.089-1.301-.267a2.445 2.445 0 0 1-.784-.625 4.718 4.718 0 0 1-.438-.636h-.142v1.358h-1.659zm1.665-4.364c0 .614.089 1.152.267 1.614.178.462.435.824.773 1.085.337.257.75.386 1.238.386.508 0 .932-.134 1.273-.403.341-.273.598-.642.773-1.108.178-.466.267-.991.267-1.574a4.32 4.32 0 0 0-.262-1.551c-.17-.458-.428-.82-.772-1.085-.341-.266-.767-.398-1.279-.398-.492 0-.909.127-1.25.381-.337.253-.593.608-.767 1.062-.174.455-.261.985-.261 1.591zm8.038 4.364v-8.728h1.699v8.728h-1.699zm.858-10.074a1.08 1.08 0 0 1-.761-.296.957.957 0 0 1-.313-.716c0-.28.104-.519.313-.715.212-.201.466-.302.761-.302.296 0 .548.101.756.302a.939.939 0 0 1 .318.715.951.951 0 0 1-.318.716 1.06 1.06 0 0 1-.756.296zm4.649 4.892v5.182h-1.698v-8.728h1.63v1.421h.108c.201-.462.515-.834.943-1.114.432-.28.976-.42 1.631-.42.595 0 1.116.125 1.563.375.447.246.793.613 1.039 1.102.247.489.37 1.093.37 1.813v5.551h-1.699v-5.347c0-.633-.165-1.127-.494-1.483-.33-.36-.783-.54-1.358-.54-.394 0-.745.086-1.052.256-.303.17-.543.42-.721.75-.174.326-.262.72-.262 1.182zm10.228 5.375a3.557 3.557 0 0 1-1.5-.307 2.528 2.528 0 0 1-1.063-.903c-.257-.394-.386-.877-.386-1.449 0-.493.095-.898.284-1.216.189-.318.445-.57.767-.756a4.002 4.002 0 0 1 1.08-.42c.397-.095.803-.167 1.216-.216l1.272-.148c.326-.042.563-.108.711-.199.147-.091.221-.238.221-.443v-.04c0-.496-.14-.88-.42-1.153-.277-.273-.69-.409-1.239-.409-.572 0-1.023.127-1.352.38-.326.25-.551.529-.676.836l-1.597-.364c.189-.53.466-.958.83-1.284.367-.33.789-.568 1.267-.716a4.928 4.928 0 0 1 1.505-.227c.349 0 .718.041 1.108.125.394.079.762.227 1.103.443.344.216.626.525.846.926.22.398.33.915.33 1.551v5.796h-1.659v-1.194h-.069c-.109.22-.274.436-.494.648-.22.212-.502.388-.846.529-.345.14-.758.21-1.239.21zm.369-1.364c.47 0 .871-.093 1.205-.278.337-.186.593-.428.767-.727a1.89 1.89 0 0 0 .267-.972v-1.125c-.061.061-.178.117-.352.17-.171.05-.366.093-.586.131l-.642.097c-.208.026-.382.049-.522.068-.33.041-.631.112-.904.21a1.563 1.563 0 0 0-.648.426c-.159.182-.238.424-.238.727 0 .421.155.739.466.955.31.212.706.318 1.187.318zm6.024 1.171v-8.728h1.643v1.387h.09c.16-.47.44-.839.841-1.108a2.407 2.407 0 0 1 1.375-.409 6.778 6.778 0 0 1 .722.039v1.625a3.326 3.326 0 0 0-.364-.062 3.399 3.399 0 0 0-.522-.04c-.402 0-.76.085-1.074.256a1.896 1.896 0 0 0-1.012 1.71v5.33h-1.699zm7.305 3.272c-.254 0-.485-.02-.694-.062a2.206 2.206 0 0 1-.465-.125l.409-1.392c.31.083.587.119.829.108a.991.991 0 0 0 .642-.273c.19-.17.356-.449.5-.835l.21-.58-3.193-8.841h1.818l2.211 6.773h.091l2.21-6.773h1.824l-3.597 9.892a3.973 3.973 0 0 1-.636 1.154 2.478 2.478 0 0 1-.921.716c-.356.159-.769.238-1.238.238zm-44.951 156.722c-.819 0-1.533-.187-2.142-.562a3.794 3.794 0 0 1-1.421-1.574c-.337-.674-.506-1.462-.506-2.364 0-.905.169-1.697.506-2.375a3.784 3.784 0 0 1 1.421-1.579c.609-.375 1.323-.563 2.142-.563.818 0 1.532.188 2.142.563.61.375 1.083.901 1.42 1.579.337.678.506 1.47.506 2.375 0 .902-.169 1.69-.506 2.364a3.792 3.792 0 0 1-1.42 1.574c-.61.375-1.324.562-2.142.562zm.005-1.426c.531 0 .97-.14 1.318-.42a2.46 2.46 0 0 0 .773-1.12c.171-.466.256-.979.256-1.54 0-.556-.085-1.068-.256-1.534a2.492 2.492 0 0 0-.773-1.13c-.348-.284-.787-.426-1.318-.426-.534 0-.977.142-1.329.426a2.541 2.541 0 0 0-.779 1.13c-.166.466-.25.978-.25 1.534 0 .561.084 1.074.25 1.54.171.466.43.839.779 1.12.352.28.795.42 1.329.42zm5.783 4.523v-12h1.659v1.415h.142c.099-.182.241-.393.426-.631.186-.239.444-.447.773-.625.33-.182.765-.273 1.307-.273.704 0 1.333.178 1.886.534.553.356.987.869 1.301 1.54.319.67.478 1.477.478 2.42 0 .944-.158 1.752-.472 2.427-.314.67-.746 1.187-1.295 1.551-.55.36-1.176.539-1.881.539-.53 0-.964-.089-1.301-.267a2.445 2.445 0 0 1-.784-.625 4.685 4.685 0 0 1-.438-.636h-.102v4.631h-1.699zm1.665-7.637c0 .614.089 1.152.267 1.614.178.462.436.824.773 1.085.337.258.75.387 1.238.387.508 0 .932-.135 1.273-.404.341-.273.598-.642.773-1.108.178-.466.267-.99.267-1.574 0-.575-.087-1.092-.262-1.551-.17-.458-.428-.82-.772-1.085-.341-.265-.767-.398-1.279-.398-.492 0-.909.127-1.25.381-.337.254-.593.608-.767 1.062-.174.455-.261.985-.261 1.591zm11.795 4.54c-.859 0-1.6-.184-2.221-.551a3.731 3.731 0 0 1-1.432-1.563c-.333-.674-.5-1.464-.5-2.369 0-.894.167-1.682.5-2.363a3.886 3.886 0 0 1 1.409-1.597c.606-.383 1.315-.574 2.125-.574.493 0 .97.082 1.432.244.462.163.877.419 1.244.767.368.349.657.802.87 1.358.212.553.318 1.226.318 2.017v.603h-6.938v-1.273h5.273c0-.447-.091-.843-.273-1.187a2.052 2.052 0 0 0-.767-.824c-.326-.201-.708-.302-1.147-.302-.478 0-.894.118-1.25.353a2.366 2.366 0 0 0-.819.909 2.626 2.626 0 0 0-.284 1.21v.994c0 .584.103 1.08.307 1.489.208.409.498.722.869.938.372.212.805.318 1.302.318.321 0 .615-.046.88-.137.265-.094.495-.234.688-.42.193-.186.341-.415.443-.688l1.608.29c-.129.474-.36.888-.693 1.244-.33.353-.745.627-1.245.824-.496.194-1.062.29-1.699.29zm7.153-5.358V464h-1.699v-8.727h1.63v1.42h.108c.201-.462.516-.833.944-1.113.431-.281.975-.421 1.63-.421.595 0 1.116.125 1.563.375.447.246.793.614 1.04 1.102.246.489.369 1.093.369 1.813V464h-1.699v-5.347c0-.632-.165-1.126-.494-1.483-.33-.359-.783-.539-1.358-.539a2.13 2.13 0 0 0-1.051.255 1.846 1.846 0 0 0-.722.75c-.174.326-.261.72-.261 1.182zm7.687 5.182v-8.727h1.631v1.42h.108c.182-.481.479-.856.892-1.125.413-.273.907-.409 1.483-.409.583 0 1.072.136 1.466.409.398.273.691.648.88 1.125h.091c.209-.466.54-.837.995-1.113.454-.281.996-.421 1.625-.421.791 0 1.437.248 1.937.744.504.497.756 1.245.756 2.245V464h-1.699v-5.693c0-.591-.161-1.019-.483-1.284a1.757 1.757 0 0 0-1.153-.398c-.553 0-.983.17-1.29.511-.307.337-.46.771-.46 1.302V464h-1.694v-5.801c0-.474-.147-.854-.443-1.142-.295-.288-.68-.432-1.153-.432-.322 0-.619.085-.892.256a1.87 1.87 0 0 0-.654.699 2.147 2.147 0 0 0-.244 1.039V464h-1.699zm17.726.176c-.86 0-1.6-.184-2.221-.551a3.731 3.731 0 0 1-1.432-1.563c-.334-.674-.5-1.464-.5-2.369 0-.894.166-1.682.5-2.363a3.886 3.886 0 0 1 1.409-1.597c.606-.383 1.314-.574 2.125-.574a4.3 4.3 0 0 1 1.432.244c.462.163.877.419 1.244.767.367.349.657.802.869 1.358.212.553.319 1.226.319 2.017v.603h-6.938v-1.273h5.273c0-.447-.091-.843-.273-1.187a2.052 2.052 0 0 0-.767-.824c-.326-.201-.708-.302-1.148-.302-.477 0-.894.118-1.25.353a2.364 2.364 0 0 0-.818.909 2.626 2.626 0 0 0-.284 1.21v.994c0 .584.102 1.08.307 1.489.208.409.498.722.869.938.371.212.805.318 1.301.318a2.7 2.7 0 0 0 .881-.137 1.83 1.83 0 0 0 1.131-1.108l1.608.29c-.129.474-.36.888-.694 1.244a3.346 3.346 0 0 1-1.244.824c-.496.194-1.062.29-1.699.29zm9.527-8.903v1.363h-4.767v-1.363h4.767zm-3.488-2.091h1.699v8.256c0 .329.049.577.147.744a.776.776 0 0 0 .381.335c.159.057.331.085.517.085.136 0 .256-.009.358-.028.102-.019.182-.034.239-.046l.306 1.404a2.718 2.718 0 0 1-.42.113 3.314 3.314 0 0 1-.682.069 2.997 2.997 0 0 1-1.25-.239 2.14 2.14 0 0 1-.937-.773c-.239-.348-.358-.786-.358-1.312v-8.608zM464.184 464v-8.727h1.642v1.386h.091a2.11 2.11 0 0 1 .84-1.108 2.407 2.407 0 0 1 1.375-.409c.107 0 .232.004.375.011.148.008.264.017.347.029v1.625a3.035 3.035 0 0 0-.364-.063 3.528 3.528 0 0 0-.522-.039c-.402 0-.76.085-1.074.255a1.904 1.904 0 0 0-1.012 1.71V464h-1.698zm5.964 0v-8.727h1.699V464h-1.699zm.858-10.074a1.08 1.08 0 0 1-.761-.295.96.96 0 0 1-.313-.716c0-.281.104-.519.313-.716.212-.201.466-.301.761-.301.296 0 .548.1.756.301a.94.94 0 0 1 .318.716.954.954 0 0 1-.318.716c-.208.197-.46.295-.756.295zm6.627 10.25c-.845 0-1.572-.191-2.182-.574a3.798 3.798 0 0 1-1.398-1.596c-.326-.678-.488-1.455-.488-2.33 0-.886.166-1.668.5-2.346a3.83 3.83 0 0 1 1.409-1.597c.606-.383 1.32-.574 2.142-.574.663 0 1.253.123 1.772.369.519.243.938.584 1.256 1.023.322.44.513.953.574 1.54h-1.653a1.99 1.99 0 0 0-.625-1.057c-.322-.295-.754-.443-1.296-.443a2.11 2.11 0 0 0-1.244.375c-.352.246-.627.598-.824 1.057-.197.454-.296.992-.296 1.613 0 .637.097 1.186.29 1.648.193.462.466.82.818 1.074.356.254.775.381 1.256.381.322 0 .614-.059.875-.177a1.78 1.78 0 0 0 .665-.517 1.94 1.94 0 0 0 .381-.806h1.653a3.214 3.214 0 0 1-.551 1.511 3.168 3.168 0 0 1-1.233 1.045c-.511.254-1.112.381-1.801.381zm11.766-6.773l-1.54.273a1.838 1.838 0 0 0-.307-.562 1.52 1.52 0 0 0-.557-.438c-.235-.114-.528-.17-.881-.17-.481 0-.882.108-1.204.324-.322.212-.483.486-.483.823 0 .292.108.527.324.705.216.178.564.324 1.045.437l1.387.319c.803.185 1.401.471 1.795.858.394.386.591.888.591 1.505 0 .523-.152.989-.455 1.398-.299.405-.717.723-1.255.955-.534.231-1.154.346-1.858.346-.977 0-1.775-.208-2.392-.625-.618-.42-.996-1.017-1.137-1.79l1.642-.25c.103.428.313.752.631.972.318.216.733.324 1.244.324.557 0 1.002-.116 1.336-.347.333-.235.5-.521.5-.858a.893.893 0 0 0-.307-.687c-.201-.186-.51-.326-.926-.421l-1.478-.324c-.814-.185-1.416-.481-1.806-.886-.387-.405-.58-.918-.58-1.54a2.2 2.2 0 0 1 .432-1.352c.288-.386.685-.687 1.193-.903.508-.22 1.089-.33 1.744-.33.944 0 1.686.205 2.228.614.541.405.899.949 1.074 1.63zm7.004.944v1.471h-5.159v-1.471h5.159zm5.849 5.829c-.859 0-1.6-.184-2.221-.551a3.731 3.731 0 0 1-1.432-1.563c-.333-.674-.5-1.464-.5-2.369 0-.894.167-1.682.5-2.363a3.886 3.886 0 0 1 1.409-1.597c.606-.383 1.315-.574 2.125-.574.493 0 .97.082 1.432.244.462.163.877.419 1.244.767.368.349.657.802.87 1.358.212.553.318 1.226.318 2.017v.603h-6.938v-1.273h5.273c0-.447-.091-.843-.273-1.187a2.052 2.052 0 0 0-.767-.824c-.326-.201-.708-.302-1.147-.302-.478 0-.894.118-1.25.353a2.366 2.366 0 0 0-.819.909 2.626 2.626 0 0 0-.284 1.21v.994c0 .584.103 1.08.307 1.489.208.409.498.722.869.938.372.212.805.318 1.302.318.321 0 .615-.046.88-.137.265-.094.495-.234.688-.42.193-.186.341-.415.443-.688l1.608.29c-.129.474-.36.888-.693 1.244-.33.353-.745.627-1.245.824-.496.194-1.062.29-1.699.29zm6.592-8.903l1.926 3.397 1.943-3.397h1.858l-2.722 4.363 2.745 4.364h-1.858l-1.966-3.261-1.961 3.261h-1.863l2.716-4.364-2.682-4.363h1.864zm7.295 12v-12h1.659v1.415h.142c.099-.182.241-.393.426-.631.186-.239.444-.447.773-.625.33-.182.765-.273 1.307-.273.704 0 1.333.178 1.886.534.553.356.987.869 1.301 1.54.319.67.478 1.477.478 2.42 0 .944-.157 1.752-.472 2.427-.314.67-.746 1.187-1.295 1.551-.55.36-1.176.539-1.881.539-.53 0-.964-.089-1.301-.267a2.456 2.456 0 0 1-.784-.625 4.685 4.685 0 0 1-.438-.636h-.102v4.631h-1.699zm1.665-7.637c0 .614.089 1.152.267 1.614.178.462.436.824.773 1.085.337.258.75.387 1.238.387.508 0 .932-.135 1.273-.404.341-.273.599-.642.773-1.108.178-.466.267-.99.267-1.574 0-.575-.087-1.092-.262-1.551-.17-.458-.428-.82-.772-1.085-.341-.265-.767-.398-1.279-.398-.492 0-.909.127-1.25.381-.337.254-.593.608-.767 1.062-.174.455-.261.985-.261 1.591zm11.71 4.54c-.818 0-1.532-.187-2.142-.562a3.792 3.792 0 0 1-1.42-1.574c-.337-.674-.506-1.462-.506-2.364 0-.905.169-1.697.506-2.375a3.781 3.781 0 0 1 1.42-1.579c.61-.375 1.324-.563 2.142-.563.818 0 1.532.188 2.142.563.61.375 1.084.901 1.421 1.579.337.678.505 1.47.505 2.375 0 .902-.168 1.69-.505 2.364a3.794 3.794 0 0 1-1.421 1.574c-.61.375-1.324.562-2.142.562zm.006-1.426c.53 0 .97-.14 1.318-.42.349-.281.606-.654.773-1.12.17-.466.256-.979.256-1.54 0-.556-.086-1.068-.256-1.534a2.5 2.5 0 0 0-.773-1.13c-.348-.284-.788-.426-1.318-.426-.534 0-.977.142-1.33.426a2.54 2.54 0 0 0-.778 1.13 4.52 4.52 0 0 0-.25 1.534c0 .561.083 1.074.25 1.54.17.466.43.839.778 1.12.353.28.796.42 1.33.42zm5.783 1.25v-8.727h1.642v1.386h.091c.159-.47.439-.839.841-1.108a2.402 2.402 0 0 1 1.375-.409c.106 0 .231.004.375.011.147.008.263.017.346.029v1.625a3.047 3.047 0 0 0-.363-.063 3.551 3.551 0 0 0-.523-.039c-.402 0-.76.085-1.074.255a1.904 1.904 0 0 0-1.011 1.71V464h-1.699zm10.554-8.727v1.363h-4.767v-1.363h4.767zm-3.489-2.091h1.699v8.256c0 .329.049.577.148.744a.77.77 0 0 0 .38.335c.16.057.332.085.518.085.136 0 .255-.009.357-.028.103-.019.182-.034.239-.046l.307 1.404a2.768 2.768 0 0 1-.421.113 3.303 3.303 0 0 1-.681.069 2.994 2.994 0 0 1-1.25-.239 2.143 2.143 0 0 1-.938-.773c-.238-.348-.358-.786-.358-1.312v-8.608zm8.86 10.994c-.86 0-1.601-.184-2.222-.551a3.738 3.738 0 0 1-1.432-1.563c-.333-.674-.5-1.464-.5-2.369 0-.894.167-1.682.5-2.363a3.886 3.886 0 0 1 1.409-1.597c.606-.383 1.315-.574 2.125-.574.493 0 .97.082 1.432.244.462.163.877.419 1.245.767.367.349.657.802.869 1.358.212.553.318 1.226.318 2.017v.603h-6.937v-1.273h5.272c0-.447-.091-.843-.272-1.187a2.055 2.055 0 0 0-.768-.824c-.325-.201-.708-.302-1.147-.302-.478 0-.894.118-1.25.353a2.356 2.356 0 0 0-.818.909c-.19.371-.285.774-.285 1.21v.994c0 .584.103 1.08.307 1.489.209.409.498.722.87.938.371.212.805.318 1.301.318.322 0 .615-.046.88-.137a1.88 1.88 0 0 0 .688-.42c.193-.186.341-.415.443-.688l1.608.29c-.129.474-.36.888-.693 1.244-.33.353-.744.627-1.244.824-.497.194-1.063.29-1.699.29zm5.453-.176v-8.727h1.642v1.386h.091c.159-.47.439-.839.841-1.108a2.402 2.402 0 0 1 1.375-.409c.106 0 .231.004.375.011.148.008.263.017.346.029v1.625a3.047 3.047 0 0 0-.363-.063 3.54 3.54 0 0 0-.523-.039c-.401 0-.759.085-1.074.255a1.9 1.9 0 0 0-1.011 1.71V464h-1.699zm-100.033 24v-11.636h1.699v4.324h.102c.099-.182.241-.393.426-.631.186-.239.444-.447.773-.625.33-.182.765-.273 1.307-.273.704 0 1.333.178 1.886.534.553.356.987.869 1.301 1.54.319.67.478 1.477.478 2.42 0 .944-.158 1.752-.472 2.427-.314.67-.746 1.187-1.295 1.551-.55.36-1.176.539-1.881.539-.53 0-.964-.089-1.301-.267a2.445 2.445 0 0 1-.784-.625 4.685 4.685 0 0 1-.438-.636h-.142V488h-1.659zm1.665-4.364c0 .614.089 1.152.267 1.614.178.462.436.824.773 1.085.337.258.75.387 1.238.387.508 0 .932-.135 1.273-.404.341-.273.598-.642.773-1.108.178-.466.267-.99.267-1.574 0-.575-.087-1.092-.262-1.551-.17-.458-.428-.82-.772-1.085-.341-.265-.767-.398-1.279-.398-.492 0-.909.127-1.25.381-.337.254-.593.608-.767 1.062-.174.455-.261.985-.261 1.591zm8.038 4.364v-8.727h1.699V488h-1.699zm.858-10.074a1.08 1.08 0 0 1-.761-.295.964.964 0 0 1-.313-.716.95.95 0 0 1 .313-.716c.212-.201.466-.301.761-.301.296 0 .548.1.756.301a.94.94 0 0 1 .318.716.954.954 0 0 1-.318.716c-.208.197-.46.295-.756.295zm4.65 4.892V488h-1.699v-8.727h1.63v1.42h.108c.201-.462.516-.833.944-1.113.431-.281.975-.421 1.63-.421.595 0 1.116.125 1.563.375.447.246.793.614 1.04 1.102.246.489.369 1.093.369 1.813V488h-1.699v-5.347c0-.632-.165-1.126-.494-1.483-.33-.359-.783-.539-1.358-.539a2.13 2.13 0 0 0-1.051.255 1.846 1.846 0 0 0-.722.75c-.174.326-.261.72-.261 1.182zm10.227 5.375a3.557 3.557 0 0 1-1.5-.307 2.52 2.52 0 0 1-1.062-.903c-.258-.394-.387-.877-.387-1.449 0-.492.095-.898.284-1.216.19-.318.445-.57.767-.756a4.035 4.035 0 0 1 1.08-.42 10.62 10.62 0 0 1 1.216-.216l1.272-.148c.326-.041.563-.108.711-.198.147-.091.221-.239.221-.444v-.039c0-.497-.14-.881-.42-1.154-.277-.273-.69-.409-1.239-.409-.572 0-1.023.127-1.352.381-.326.25-.551.528-.676.835l-1.597-.364c.19-.53.466-.958.83-1.284.367-.329.79-.568 1.267-.716a4.959 4.959 0 0 1 1.505-.227c.349 0 .718.042 1.108.125.394.08.762.227 1.103.443.344.216.627.525.846.926.22.398.33.915.33 1.552V488h-1.659v-1.193h-.068c-.11.22-.275.435-.495.648a2.622 2.622 0 0 1-.846.528c-.345.14-.758.21-1.239.21zm.369-1.363c.47 0 .872-.093 1.205-.279.337-.185.593-.428.767-.727.178-.303.267-.627.267-.972v-1.125c-.061.061-.178.118-.352.171a5.366 5.366 0 0 1-.586.13c-.219.034-.433.067-.642.097l-.522.068c-.33.042-.631.112-.904.21a1.545 1.545 0 0 0-.647.427c-.16.181-.239.424-.239.727 0 .42.155.738.466.954.31.212.706.319 1.187.319zm6.025 1.17v-8.727h1.642v1.386h.091a2.11 2.11 0 0 1 .84-1.108 2.407 2.407 0 0 1 1.375-.409c.107 0 .232.004.375.011.148.008.264.017.347.029v1.625a3.035 3.035 0 0 0-.364-.063 3.528 3.528 0 0 0-.522-.039c-.402 0-.76.085-1.074.255a1.904 1.904 0 0 0-1.012 1.71V488h-1.698zm7.304 3.273a3.51 3.51 0 0 1-.693-.063 2.142 2.142 0 0 1-.466-.125l.409-1.392c.31.084.587.12.829.108a.986.986 0 0 0 .642-.273c.19-.17.356-.448.5-.835l.211-.579-3.194-8.841h1.819l2.21 6.772h.091l2.21-6.772h1.824l-3.597 9.892a3.944 3.944 0 0 1-.636 1.153 2.478 2.478 0 0 1-.921.716c-.356.159-.769.239-1.238.239zM685.828 464v-11.636h4.148c.905 0 1.655.164 2.25.494.595.329 1.04.78 1.335 1.352.296.568.443 1.209.443 1.921 0 .716-.149 1.36-.449 1.931-.295.569-.742 1.019-1.34 1.353-.595.329-1.343.494-2.245.494h-2.852v-1.489h2.693c.572 0 1.036-.098 1.392-.295a1.85 1.85 0 0 0 .784-.818c.167-.345.25-.737.25-1.176 0-.44-.083-.83-.25-1.171a1.79 1.79 0 0 0-.789-.801c-.357-.193-.826-.29-1.41-.29h-2.204V464h-1.756zm9.922 0v-8.727h1.642v1.386h.091c.159-.47.44-.839.841-1.108a2.404 2.404 0 0 1 1.375-.409c.106 0 .231.004.375.011.148.008.263.017.347.029v1.625a3.074 3.074 0 0 0-.364-.063 3.53 3.53 0 0 0-.523-.039c-.401 0-.759.085-1.074.255a1.908 1.908 0 0 0-1.011 1.71V464h-1.699zm9.328.176c-.818 0-1.532-.187-2.142-.562a3.799 3.799 0 0 1-1.42-1.574c-.337-.674-.506-1.462-.506-2.364 0-.905.169-1.697.506-2.375a3.788 3.788 0 0 1 1.42-1.579c.61-.375 1.324-.563 2.142-.563.819 0 1.533.188 2.143.563a3.788 3.788 0 0 1 1.42 1.579c.337.678.506 1.47.506 2.375 0 .902-.169 1.69-.506 2.364a3.799 3.799 0 0 1-1.42 1.574c-.61.375-1.324.562-2.143.562zm.006-1.426c.53 0 .97-.14 1.318-.42.349-.281.606-.654.773-1.12.171-.466.256-.979.256-1.54 0-.556-.085-1.068-.256-1.534a2.5 2.5 0 0 0-.773-1.13c-.348-.284-.788-.426-1.318-.426-.534 0-.977.142-1.329.426a2.541 2.541 0 0 0-.779 1.13c-.166.466-.25.978-.25 1.534 0 .561.084 1.074.25 1.54.171.466.43.839.779 1.12.352.28.795.42 1.329.42zm5.783 1.25v-8.727h1.631v1.42h.108a2.25 2.25 0 0 1 .892-1.125c.413-.273.907-.409 1.483-.409.583 0 1.072.136 1.466.409.397.273.691.648.88 1.125h.091c.208-.466.54-.837.994-1.113.455-.281.997-.421 1.625-.421.792 0 1.438.248 1.938.744.504.497.756 1.245.756 2.245V464h-1.699v-5.693c0-.591-.161-1.019-.483-1.284a1.76 1.76 0 0 0-1.154-.398c-.553 0-.983.17-1.289.511-.307.337-.461.771-.461 1.302V464h-1.693v-5.801c0-.474-.148-.854-.443-1.142-.295-.288-.68-.432-1.153-.432-.322 0-.62.085-.892.256a1.87 1.87 0 0 0-.654.699 2.135 2.135 0 0 0-.244 1.039V464h-1.699zm17.726.176c-.86 0-1.6-.184-2.222-.551a3.735 3.735 0 0 1-1.431-1.563c-.334-.674-.5-1.464-.5-2.369 0-.894.166-1.682.5-2.363a3.88 3.88 0 0 1 1.409-1.597c.606-.383 1.314-.574 2.125-.574.492 0 .969.082 1.431.244.463.163.877.419 1.245.767.367.349.657.802.869 1.358.212.553.318 1.226.318 2.017v.603H725.4v-1.273h5.273c0-.447-.091-.843-.273-1.187a2.06 2.06 0 0 0-.767-.824c-.326-.201-.709-.302-1.148-.302-.477 0-.894.118-1.25.353a2.364 2.364 0 0 0-.818.909c-.19.371-.284.774-.284 1.21v.994c0 .584.102 1.08.307 1.489.208.409.498.722.869.938.371.212.805.318 1.301.318a2.7 2.7 0 0 0 .881-.137c.265-.094.494-.234.687-.42.193-.186.341-.415.443-.688l1.608.29c-.128.474-.36.888-.693 1.244a3.346 3.346 0 0 1-1.244.824c-.496.194-1.063.29-1.699.29zm9.527-8.903v1.363h-4.767v-1.363h4.767zm-3.489-2.091h1.699v8.256c0 .329.05.577.148.744a.772.772 0 0 0 .381.335c.159.057.331.085.517.085.136 0 .255-.009.358-.028.102-.019.182-.034.238-.046l.307 1.404a2.718 2.718 0 0 1-.42.113 3.314 3.314 0 0 1-.682.069 2.994 2.994 0 0 1-1.25-.239 2.149 2.149 0 0 1-.938-.773c-.238-.348-.358-.786-.358-1.312v-8.608zm7.079 5.636V464h-1.699v-11.636h1.676v4.329h.108c.204-.47.517-.843.937-1.119.421-.277.97-.415 1.648-.415.599 0 1.121.123 1.568.369.451.247.8.614 1.046 1.103.25.485.375 1.091.375 1.818V464h-1.699v-5.347c0-.64-.165-1.136-.494-1.488-.33-.356-.788-.534-1.375-.534-.402 0-.762.085-1.08.255a1.853 1.853 0 0 0-.744.75c-.178.326-.267.72-.267 1.182zm11.511 5.358c-.86 0-1.6-.184-2.221-.551a3.731 3.731 0 0 1-1.432-1.563c-.334-.674-.5-1.464-.5-2.369 0-.894.166-1.682.5-2.363a3.886 3.886 0 0 1 1.409-1.597c.606-.383 1.314-.574 2.125-.574a4.3 4.3 0 0 1 1.432.244c.462.163.877.419 1.244.767.367.349.657.802.869 1.358.212.553.319 1.226.319 2.017v.603h-6.938v-1.273h5.273c0-.447-.091-.843-.273-1.187a2.052 2.052 0 0 0-.767-.824c-.326-.201-.708-.302-1.148-.302-.477 0-.894.118-1.25.353a2.364 2.364 0 0 0-.818.909 2.626 2.626 0 0 0-.284 1.21v.994c0 .584.102 1.08.307 1.489.208.409.498.722.869.938.371.212.805.318 1.301.318a2.7 2.7 0 0 0 .881-.137 1.83 1.83 0 0 0 1.131-1.108l1.608.29c-.129.474-.36.888-.694 1.244a3.346 3.346 0 0 1-1.244.824c-.496.194-1.062.29-1.699.29zm10.982-3.795v-5.108h1.704V464h-1.67v-1.511h-.091a2.721 2.721 0 0 1-.966 1.164c-.439.307-.987.461-1.642.461-.56 0-1.057-.123-1.489-.37-.428-.25-.765-.619-1.011-1.108-.242-.488-.364-1.092-.364-1.812v-5.551h1.699v5.346c0 .595.165 1.068.495 1.421.329.352.757.528 1.284.528.318 0 .634-.079.949-.238.318-.16.581-.4.789-.722.213-.322.317-.731.313-1.227zm10.351-2.978l-1.54.273a1.817 1.817 0 0 0-.307-.562 1.52 1.52 0 0 0-.557-.438c-.234-.114-.528-.17-.88-.17-.481 0-.883.108-1.205.324-.322.212-.483.486-.483.823 0 .292.108.527.324.705.216.178.565.324 1.046.437l1.386.319c.803.185 1.401.471 1.795.858.394.386.591.888.591 1.505 0 .523-.151.989-.454 1.398-.299.405-.718.723-1.256.955-.534.231-1.153.346-1.858.346-.977 0-1.774-.208-2.392-.625-.617-.42-.996-1.017-1.136-1.79l1.642-.25c.102.428.312.752.63.972.319.216.733.324 1.245.324.557 0 1.002-.116 1.335-.347.333-.235.5-.521.5-.858a.89.89 0 0 0-.307-.687c-.201-.186-.509-.326-.926-.421l-1.477-.324c-.815-.185-1.417-.481-1.807-.886-.386-.405-.58-.918-.58-1.54a2.2 2.2 0 0 1 .432-1.352c.288-.386.686-.687 1.193-.903.508-.22 1.089-.33 1.745-.33.943 0 1.685.205 2.227.614.542.405.9.949 1.074 1.63zM686.421 488h-1.864l4.187-11.636h2.029L694.96 488h-1.863l-3.29-9.523h-.091L686.421 488zm.312-4.557h6.046v1.477h-6.046v-1.477zm13.114 8.012c-.693 0-1.29-.091-1.79-.273-.496-.182-.901-.423-1.216-.722a3.028 3.028 0 0 1-.704-.983l1.46-.602c.102.167.238.343.409.528.174.19.409.351.704.483.3.133.684.199 1.154.199.644 0 1.176-.157 1.596-.471.421-.311.631-.807.631-1.489v-1.716h-.108c-.102.186-.25.392-.443.619a2.377 2.377 0 0 1-.784.591c-.333.167-.767.25-1.301.25-.69 0-1.311-.161-1.864-.483-.549-.325-.985-.805-1.307-1.437-.318-.637-.477-1.419-.477-2.347 0-.928.157-1.723.472-2.386.318-.663.753-1.171 1.306-1.523a3.4 3.4 0 0 1 1.881-.534c.542 0 .979.091 1.313.273.333.178.592.386.778.625.189.238.335.449.438.631h.125v-1.415h1.664v8.92c0 .75-.174 1.366-.522 1.847-.349.481-.82.837-1.415 1.068-.591.231-1.258.347-2 .347zm-.017-4.995c.488 0 .901-.113 1.238-.341.341-.231.599-.56.773-.988.178-.432.267-.949.267-1.551 0-.588-.087-1.105-.261-1.552-.174-.447-.43-.795-.767-1.045-.337-.254-.754-.381-1.25-.381-.512 0-.938.133-1.279.398-.341.261-.598.617-.772 1.068a4.237 4.237 0 0 0-.256 1.512c0 .572.087 1.073.261 1.505.175.432.432.769.773 1.012.345.242.769.363 1.273.363zm9.818 1.716c-.86 0-1.6-.184-2.221-.551a3.731 3.731 0 0 1-1.432-1.563c-.334-.674-.5-1.464-.5-2.369 0-.894.166-1.682.5-2.363a3.886 3.886 0 0 1 1.409-1.597c.606-.383 1.314-.574 2.125-.574.492 0 .969.082 1.432.244.462.163.876.419 1.244.767.367.349.657.802.869 1.358.212.553.318 1.226.318 2.017v.603h-6.937v-1.273h5.273c0-.447-.091-.843-.273-1.187a2.06 2.06 0 0 0-.767-.824c-.326-.201-.708-.302-1.148-.302-.477 0-.894.118-1.25.353a2.364 2.364 0 0 0-.818.909 2.626 2.626 0 0 0-.284 1.21v.994c0 .584.102 1.08.307 1.489.208.409.498.722.869.938.371.212.805.318 1.301.318a2.7 2.7 0 0 0 .881-.137 1.83 1.83 0 0 0 1.131-1.108l1.607.29a2.892 2.892 0 0 1-.693 1.244 3.346 3.346 0 0 1-1.244.824c-.496.194-1.063.29-1.699.29zm7.152-5.358V488h-1.699v-8.727h1.631v1.42h.108c.201-.462.515-.833.943-1.113.432-.281.976-.421 1.631-.421.595 0 1.115.125 1.562.375.447.246.794.614 1.04 1.102.246.489.369 1.093.369 1.813V488h-1.698v-5.347c0-.632-.165-1.126-.495-1.483-.329-.359-.782-.539-1.358-.539-.394 0-.744.085-1.051.255a1.844 1.844 0 0 0-.721.75c-.175.326-.262.72-.262 1.182zm11.762-3.545v1.363h-4.767v-1.363h4.767zm-3.489-2.091h1.699v8.256c0 .329.049.577.148.744a.77.77 0 0 0 .38.335c.159.057.332.085.517.085.137 0 .256-.009.358-.028.103-.019.182-.034.239-.046l.307 1.404a2.768 2.768 0 0 1-.421.113 3.303 3.303 0 0 1-.681.069 2.994 2.994 0 0 1-1.25-.239 2.143 2.143 0 0 1-.938-.773c-.239-.348-.358-.786-.358-1.312v-8.608zm9.25 10.818v-8.727h1.631v1.42h.108c.182-.481.479-.856.892-1.125.413-.273.907-.409 1.483-.409.583 0 1.072.136 1.466.409.398.273.691.648.881 1.125h.09c.209-.466.54-.837.995-1.113.454-.281.996-.421 1.625-.421.791 0 1.437.248 1.937.744.504.497.756 1.245.756 2.245V488h-1.699v-5.693c0-.591-.161-1.019-.483-1.284a1.757 1.757 0 0 0-1.153-.398c-.553 0-.983.17-1.29.511-.307.337-.46.771-.46 1.302V488h-1.693v-5.801c0-.474-.148-.854-.444-1.142-.295-.288-.68-.432-1.153-.432-.322 0-.619.085-.892.256a1.86 1.86 0 0 0-.653.699 2.136 2.136 0 0 0-.245 1.039V488h-1.699zm17.641.176c-.818 0-1.532-.187-2.142-.562a3.792 3.792 0 0 1-1.42-1.574c-.338-.674-.506-1.462-.506-2.364 0-.905.168-1.697.506-2.375a3.781 3.781 0 0 1 1.42-1.579c.61-.375 1.324-.563 2.142-.563.818 0 1.532.188 2.142.563a3.79 3.79 0 0 1 1.421 1.579c.337.678.505 1.47.505 2.375 0 .902-.168 1.69-.505 2.364a3.8 3.8 0 0 1-1.421 1.574c-.61.375-1.324.562-2.142.562zm.006-1.426c.53 0 .969-.14 1.318-.42.348-.281.606-.654.773-1.12.17-.466.255-.979.255-1.54 0-.556-.085-1.068-.255-1.534a2.507 2.507 0 0 0-.773-1.13c-.349-.284-.788-.426-1.318-.426-.534 0-.977.142-1.33.426a2.54 2.54 0 0 0-.778 1.13 4.52 4.52 0 0 0-.25 1.534c0 .561.083 1.074.25 1.54.17.466.43.839.778 1.12.353.28.796.42 1.33.42zm9.05 1.42c-.705 0-1.334-.179-1.887-.539-.549-.364-.981-.881-1.295-1.551-.311-.675-.466-1.483-.466-2.427 0-.943.157-1.75.472-2.42.318-.671.753-1.184 1.306-1.54a3.4 3.4 0 0 1 1.881-.534c.542 0 .977.091 1.307.273.333.178.591.386.773.625.185.238.329.449.431.631h.103v-4.324h1.699V488h-1.66v-1.358h-.142c-.102.186-.25.398-.443.636a2.456 2.456 0 0 1-.784.625c-.333.178-.765.267-1.295.267zm.375-1.448c.488 0 .901-.129 1.238-.387.341-.261.599-.623.773-1.085.178-.462.267-1 .267-1.614 0-.606-.087-1.136-.261-1.591-.175-.454-.43-.808-.767-1.062s-.754-.381-1.25-.381c-.512 0-.938.133-1.279.398-.341.265-.598.627-.772 1.085a4.418 4.418 0 0 0-.256 1.551c0 .584.087 1.108.261 1.574.174.466.432.835.773 1.108.345.269.769.404 1.273.404zm9.959 1.454c-.86 0-1.601-.184-2.222-.551a3.738 3.738 0 0 1-1.432-1.563c-.333-.674-.5-1.464-.5-2.369 0-.894.167-1.682.5-2.363a3.886 3.886 0 0 1 1.409-1.597c.606-.383 1.315-.574 2.125-.574.493 0 .97.082 1.432.244.462.163.877.419 1.244.767.368.349.658.802.87 1.358.212.553.318 1.226.318 2.017v.603h-6.938v-1.273h5.273c0-.447-.091-.843-.273-1.187a2.045 2.045 0 0 0-.767-.824c-.325-.201-.708-.302-1.147-.302-.478 0-.894.118-1.25.353a2.366 2.366 0 0 0-.819.909 2.626 2.626 0 0 0-.284 1.21v.994c0 .584.103 1.08.307 1.489.209.409.498.722.87.938.371.212.804.318 1.301.318.322 0 .615-.046.88-.137.265-.094.495-.234.688-.42.193-.186.341-.415.443-.688l1.608.29c-.129.474-.36.888-.693 1.244-.33.353-.745.627-1.245.824-.496.194-1.062.29-1.698.29zm239.476-172.818c-.82 0-1.53-.188-2.14-.563-.61-.375-1.08-.899-1.42-1.574-.34-.674-.51-1.462-.51-2.363 0-.906.17-1.697.51-2.375.34-.678.81-1.205 1.42-1.58.61-.375 1.32-.562 2.14-.562.82 0 1.53.187 2.14.562.61.375 1.09.902 1.42 1.58.34.678.51 1.469.51 2.375 0 .901-.17 1.689-.51 2.363a3.74 3.74 0 0 1-1.42 1.574c-.61.375-1.32.563-2.14.563zm.01-1.426c.53 0 .97-.141 1.31-.421.35-.28.61-.653.78-1.119.17-.466.25-.979.25-1.54 0-.557-.08-1.068-.25-1.534-.17-.47-.43-.847-.78-1.131-.34-.284-.78-.426-1.31-.426-.54 0-.98.142-1.33.426-.35.284-.61.661-.78 1.131-.17.466-.25.977-.25 1.534 0 .561.08 1.074.25 1.54.17.466.43.839.78 1.119.35.28.79.421 1.33.421zm5.78 4.522v-12h1.66v1.415h.14c.1-.182.24-.392.43-.631.18-.238.44-.447.77-.625.33-.181.76-.272 1.31-.272.7 0 1.33.178 1.88.534.56.356.99.869 1.3 1.54.32.67.48 1.477.48 2.42 0 .943-.16 1.752-.47 2.426-.31.671-.75 1.188-1.3 1.551-.55.36-1.17.54-1.88.54-.53 0-.96-.089-1.3-.267a2.483 2.483 0 0 1-.78-.625 4.574 4.574 0 0 1-.44-.636h-.1v4.63h-1.7zm1.66-7.636c0 .614.09 1.152.27 1.614.18.462.44.824.77 1.085.34.257.75.386 1.24.386.51 0 .93-.134 1.28-.403.34-.273.59-.642.77-1.108.18-.466.27-.991.27-1.574 0-.576-.09-1.093-.27-1.551-.17-.458-.42-.82-.77-1.085-.34-.266-.77-.398-1.28-.398-.49 0-.91.127-1.25.381-.33.253-.59.608-.76 1.062-.18.455-.27.985-.27 1.591zm11.8 4.54c-.86 0-1.6-.184-2.22-.551a3.676 3.676 0 0 1-1.43-1.563c-.34-.674-.5-1.464-.5-2.369 0-.894.16-1.682.5-2.364.33-.682.8-1.214 1.41-1.596.6-.383 1.31-.574 2.12-.574.49 0 .97.081 1.43.244.46.163.88.419 1.25.767.36.349.65.801.87 1.358.21.553.31 1.225.31 2.017v.602h-6.93v-1.272h5.27c0-.447-.09-.843-.27-1.188a2.13 2.13 0 0 0-.77-.824c-.33-.2-.71-.301-1.15-.301-.48 0-.89.118-1.25.352-.35.231-.62.535-.82.91-.19.371-.28.774-.28 1.21v.994c0 .583.1 1.08.31 1.489.2.409.49.721.87.937.37.212.8.318 1.3.318.32 0 .61-.045.88-.136.26-.095.49-.235.69-.42.19-.186.34-.415.44-.688l1.61.29a2.87 2.87 0 0 1-.7 1.244 3.35 3.35 0 0 1-1.24.824c-.5.193-1.06.29-1.7.29zm7.15-5.358v5.182h-1.7v-8.728h1.63v1.421h.11c.2-.462.52-.834.94-1.114.44-.28.98-.42 1.64-.42.59 0 1.11.125 1.56.375.45.246.79.613 1.04 1.102.24.489.37 1.093.37 1.813v5.551h-1.7v-5.347c0-.633-.17-1.127-.5-1.483-.33-.36-.78-.54-1.35-.54-.4 0-.75.086-1.06.256-.3.17-.54.42-.72.75-.17.326-.26.72-.26 1.182zm7.69 5.182v-8.728h1.63v1.421h.11c.18-.481.48-.856.89-1.125.41-.273.91-.409 1.48-.409.59 0 1.08.136 1.47.409.4.273.69.648.88 1.125h.09a2.45 2.45 0 0 1 1-1.114c.45-.28.99-.42 1.62-.42.79 0 1.44.248 1.94.744s.75 1.244.75 2.244v5.853h-1.7v-5.694c0-.59-.16-1.018-.48-1.284a1.757 1.757 0 0 0-1.15-.397c-.56 0-.98.17-1.29.511-.31.337-.46.771-.46 1.301v5.563h-1.7v-5.801c0-.474-.14-.855-.44-1.143-.29-.287-.68-.431-1.15-.431-.32 0-.62.085-.89.255-.27.167-.49.4-.66.699-.16.299-.24.646-.24 1.04v5.381h-1.7zm17.73.176c-.86 0-1.6-.184-2.23-.551a3.805 3.805 0 0 1-1.43-1.563c-.33-.674-.5-1.464-.5-2.369 0-.894.17-1.682.5-2.364.34-.682.81-1.214 1.41-1.596.61-.383 1.32-.574 2.13-.574.49 0 .97.081 1.43.244a3.5 3.5 0 0 1 1.24.767c.37.349.66.801.87 1.358.21.553.32 1.225.32 2.017v.602h-6.94v-1.272h5.28c0-.447-.1-.843-.28-1.188a2.106 2.106 0 0 0-.76-.824c-.33-.2-.71-.301-1.15-.301-.48 0-.9.118-1.25.352-.35.231-.63.535-.82.91-.19.371-.28.774-.28 1.21v.994c0 .583.1 1.08.3 1.489.21.409.5.721.87.937.37.212.81.318 1.3.318.32 0 .62-.045.88-.136.27-.095.5-.235.69-.42.19-.186.34-.415.44-.688l1.61.29c-.13.473-.36.888-.69 1.244a3.39 3.39 0 0 1-1.25.824c-.49.193-1.06.29-1.69.29zm9.52-8.904v1.364h-4.76v-1.364h4.76zm-3.49-2.091h1.7v8.256c0 .33.05.578.15.744.1.163.23.275.38.336.16.057.33.085.52.085.13 0 .25-.01.36-.028l.23-.046.31 1.403c-.1.038-.24.076-.42.114-.18.042-.41.064-.68.068-.45.008-.86-.072-1.25-.238-.39-.167-.7-.425-.94-.773-.24-.349-.36-.786-.36-1.313v-8.608zm5.2 10.819v-8.728h1.64v1.387h.09c.16-.47.44-.839.84-1.108.41-.273.86-.409 1.37-.409a6.735 6.735 0 0 1 .73.039v1.625a3.375 3.375 0 0 0-.37-.062c-.17-.027-.35-.04-.52-.04-.4 0-.76.085-1.07.256-.31.167-.56.399-.74.699-.18.295-.28.632-.28 1.011v5.33h-1.69zm5.96 0v-8.728h1.7v8.728h-1.7zm.86-10.074c-.3 0-.55-.099-.76-.296a.96.96 0 0 1 0-1.431c.21-.201.46-.302.76-.302.29 0 .55.101.75.302.22.196.32.435.32.715 0 .277-.1.516-.32.716-.2.197-.46.296-.75.296zm6.63 10.25c-.85 0-1.58-.192-2.19-.574a3.783 3.783 0 0 1-1.39-1.597c-.33-.678-.49-1.454-.49-2.329 0-.887.16-1.669.5-2.347.33-.682.8-1.214 1.41-1.596.6-.383 1.32-.574 2.14-.574.66 0 1.25.123 1.77.369.52.242.94.583 1.26 1.023.32.439.51.952.57 1.54h-1.65c-.09-.41-.3-.762-.63-1.057-.32-.296-.75-.443-1.29-.443-.48 0-.89.125-1.25.375-.35.246-.62.598-.82 1.056-.2.455-.3.993-.3 1.614 0 .636.1 1.186.29 1.648.2.462.47.82.82 1.074.36.253.78.38 1.26.38.32 0 .61-.058.87-.176.27-.121.49-.293.67-.517.18-.223.3-.492.38-.807h1.65a3.174 3.174 0 0 1-.55 1.512c-.31.443-.72.791-1.23 1.045-.52.254-1.12.381-1.8.381zm11.76-6.773l-1.54.273a1.751 1.751 0 0 0-.31-.563 1.473 1.473 0 0 0-.55-.437c-.24-.114-.53-.171-.88-.171-.48 0-.89.108-1.21.324-.32.212-.48.487-.48.824 0 .292.11.527.32.705.22.178.57.323 1.05.437l1.38.318c.81.186 1.41.472 1.8.858.39.387.59.888.59 1.506 0 .523-.15.989-.45 1.398-.3.405-.72.723-1.26.954-.53.231-1.15.347-1.86.347-.97 0-1.77-.209-2.39-.625-.62-.421-1-1.017-1.14-1.79l1.65-.25c.1.428.31.752.63.972.32.216.73.323 1.24.323.56 0 1-.115 1.34-.346.33-.235.5-.521.5-.858a.911.911 0 0 0-.31-.688c-.2-.185-.51-.325-.93-.42l-1.47-.324c-.82-.186-1.42-.481-1.81-.886-.39-.406-.58-.919-.58-1.54 0-.515.14-.966.43-1.352.29-.387.69-.688 1.2-.904.5-.219 1.08-.329 1.74-.329.94 0 1.69.204 2.23.613.54.406.9.949 1.07 1.631zm-75.34 30.597v-8.728h1.64v1.387h.09c.16-.47.44-.839.84-1.108.41-.273.87-.409 1.38-.409.11 0 .23.003.37.011.15.008.27.017.35.028v1.625a3.542 3.542 0 0 0-.36-.062c-.18-.027-.35-.04-.53-.04-.4 0-.76.085-1.07.256a1.892 1.892 0 0 0-1.01 1.71v5.33h-1.7zm9.41.176c-.86 0-1.6-.184-2.22-.551-.62-.372-1.09-.892-1.43-1.563-.33-.674-.5-1.464-.5-2.369 0-.894.17-1.682.5-2.364.34-.682.81-1.214 1.41-1.596.61-.383 1.31-.574 2.12-.574.5 0 .97.081 1.44.244a3.5 3.5 0 0 1 1.24.767c.37.349.66.801.87 1.358.21.553.32 1.225.32 2.017v.602h-6.94v-1.272h5.27c0-.447-.09-.843-.27-1.188a2.059 2.059 0 0 0-.77-.824c-.32-.2-.7-.301-1.14-.301-.48 0-.9.118-1.25.352-.36.231-.63.535-.82.91-.19.371-.29.774-.29 1.21v.994c0 .583.11 1.08.31 1.489.21.409.5.721.87.937.37.212.8.318 1.3.318.32 0 .62-.045.88-.136.27-.095.5-.235.69-.42.19-.186.34-.415.44-.688l1.61.29c-.13.473-.36.888-.69 1.244a3.39 3.39 0 0 1-1.25.824c-.49.193-1.06.29-1.7.29zm9.13 0c-.84 0-1.57-.192-2.18-.574a3.875 3.875 0 0 1-1.4-1.597c-.32-.678-.49-1.454-.49-2.329 0-.887.17-1.669.5-2.347.34-.682.81-1.214 1.41-1.596.61-.383 1.32-.574 2.15-.574.66 0 1.25.123 1.77.369.52.242.94.583 1.25 1.023.33.439.52.952.58 1.54h-1.66c-.09-.41-.29-.762-.62-1.057-.32-.296-.75-.443-1.3-.443-.47 0-.88.125-1.24.375-.35.246-.63.598-.82 1.056-.2.455-.3.993-.3 1.614 0 .636.1 1.186.29 1.648.19.462.47.82.82 1.074.35.253.77.38 1.25.38.33 0 .62-.058.88-.176.26-.121.49-.293.66-.517.19-.223.31-.492.38-.807h1.66a3.282 3.282 0 0 1-.55 1.512c-.31.443-.72.791-1.24 1.045-.51.254-1.11.381-1.8.381zm8.99 0c-.86 0-1.6-.184-2.22-.551a3.676 3.676 0 0 1-1.43-1.563c-.34-.674-.5-1.464-.5-2.369 0-.894.16-1.682.5-2.364.33-.682.8-1.214 1.41-1.596.6-.383 1.31-.574 2.12-.574.49 0 .97.081 1.43.244.47.163.88.419 1.25.767.36.349.65.801.87 1.358.21.553.31 1.225.31 2.017v.602h-6.93v-1.272h5.27c0-.447-.09-.843-.27-1.188a2.059 2.059 0 0 0-.77-.824c-.33-.2-.71-.301-1.15-.301-.47 0-.89.118-1.25.352-.35.231-.62.535-.82.91-.19.371-.28.774-.28 1.21v.994c0 .583.1 1.08.31 1.489.21.409.5.721.87.937.37.212.8.318 1.3.318.32 0 .61-.045.88-.136.26-.095.49-.235.69-.42.19-.186.34-.415.44-.688l1.61.29a2.87 2.87 0 0 1-.7 1.244 3.35 3.35 0 0 1-1.24.824c-.5.193-1.06.29-1.7.29zm12.67-8.904l-3.17 8.728h-1.81l-3.17-8.728h1.82l2.21 6.716h.09l2.21-6.716h1.82zm1.42 8.728v-8.728h1.7v8.728h-1.7zm.86-10.074c-.3 0-.55-.099-.76-.296a.96.96 0 0 1 0-1.431c.21-.201.46-.302.76-.302.29 0 .55.101.75.302.22.196.32.435.32.715 0 .277-.1.516-.32.716-.2.197-.46.296-.75.296zm6.71 10.25c-.86 0-1.6-.184-2.22-.551a3.676 3.676 0 0 1-1.43-1.563c-.34-.674-.5-1.464-.5-2.369 0-.894.16-1.682.5-2.364.33-.682.8-1.214 1.41-1.596.6-.383 1.31-.574 2.12-.574.49 0 .97.081 1.43.244.46.163.88.419 1.25.767.36.349.65.801.87 1.358.21.553.31 1.225.31 2.017v.602h-6.93v-1.272h5.27c0-.447-.09-.843-.27-1.188a2.13 2.13 0 0 0-.77-.824c-.33-.2-.71-.301-1.15-.301-.48 0-.89.118-1.25.352-.35.231-.62.535-.82.91-.19.371-.28.774-.28 1.21v.994c0 .583.1 1.08.31 1.489.2.409.49.721.87.937.37.212.8.318 1.3.318.32 0 .61-.045.88-.136.26-.095.49-.235.69-.42.19-.186.34-.415.44-.688l1.61.29a2.87 2.87 0 0 1-.7 1.244 3.35 3.35 0 0 1-1.24.824c-.5.193-1.06.29-1.7.29zm5.45-.176v-8.728h1.65v1.387h.09c.16-.47.44-.839.84-1.108.4-.273.86-.409 1.37-.409a7 7 0 0 1 .72.039v1.625a3.077 3.077 0 0 0-.36-.062c-.17-.027-.35-.04-.52-.04-.4 0-.76.085-1.08.256-.31.167-.55.399-.74.699-.18.295-.27.632-.27 1.011v5.33h-1.7zM22.139 384.358c-.819 0-1.533-.188-2.142-.563a3.788 3.788 0 0 1-1.42-1.574c-.338-.674-.507-1.462-.507-2.363 0-.906.169-1.697.506-2.375a3.787 3.787 0 0 1 1.42-1.58c.61-.375 1.324-.562 2.143-.562.818 0 1.532.187 2.142.562.61.375 1.083.902 1.42 1.58.337.678.506 1.469.506 2.375 0 .901-.169 1.689-.506 2.363a3.789 3.789 0 0 1-1.42 1.574c-.61.375-1.324.563-2.142.563zm.005-1.426c.53 0 .97-.141 1.319-.421a2.46 2.46 0 0 0 .772-1.119 4.45 4.45 0 0 0 .256-1.54 4.42 4.42 0 0 0-.256-1.534 2.498 2.498 0 0 0-.773-1.131c-.348-.284-.787-.426-1.318-.426-.534 0-.977.142-1.33.426a2.538 2.538 0 0 0-.778 1.131c-.166.466-.25.977-.25 1.534 0 .561.084 1.074.25 1.54.17.466.43.839.779 1.119.352.28.795.421 1.33.421zm5.783 4.522v-12h1.66v1.415h.141a4.77 4.77 0 0 1 .426-.631 2.43 2.43 0 0 1 .773-.625c.33-.181.765-.272 1.307-.272.704 0 1.333.178 1.886.534.553.356.987.869 1.301 1.54.319.67.478 1.477.478 2.42 0 .943-.157 1.752-.472 2.426-.314.671-.746 1.188-1.295 1.551-.55.36-1.176.54-1.881.54-.53 0-.964-.089-1.301-.267a2.458 2.458 0 0 1-.784-.625 4.794 4.794 0 0 1-.438-.636h-.102v4.63h-1.699zm1.665-7.636c0 .614.089 1.152.267 1.614.178.462.435.824.773 1.085.337.257.75.386 1.238.386.508 0 .932-.134 1.273-.403.34-.273.599-.642.773-1.108.178-.466.267-.991.267-1.574a4.32 4.32 0 0 0-.262-1.551c-.17-.458-.428-.82-.772-1.085-.341-.266-.767-.398-1.279-.398-.492 0-.909.127-1.25.381-.337.253-.593.608-.767 1.062-.174.455-.261.985-.261 1.591zm11.796 4.54c-.86 0-1.6-.184-2.222-.551a3.741 3.741 0 0 1-1.432-1.563c-.333-.674-.5-1.464-.5-2.369 0-.894.167-1.682.5-2.364a3.876 3.876 0 0 1 1.41-1.596c.605-.383 1.314-.574 2.124-.574.493 0 .97.081 1.432.244.462.163.877.419 1.244.767.368.349.657.801.87 1.358.212.553.318 1.225.318 2.017v.602h-6.938v-1.272h5.273c0-.447-.09-.843-.273-1.188a2.067 2.067 0 0 0-.767-.824c-.325-.2-.708-.301-1.148-.301-.477 0-.893.118-1.25.352a2.366 2.366 0 0 0-.818.91c-.19.371-.284.774-.284 1.21v.994c0 .583.102 1.08.307 1.489.208.409.498.721.87.937.37.212.804.318 1.3.318a2.7 2.7 0 0 0 .881-.136c.265-.095.495-.235.688-.42a1.83 1.83 0 0 0 .443-.688l1.608.29c-.129.473-.36.888-.693 1.244a3.37 3.37 0 0 1-1.245.824c-.496.193-1.062.29-1.698.29zM48.54 379v5.182h-1.7v-8.728h1.631v1.421h.108c.201-.462.515-.834.944-1.114.431-.28.975-.42 1.63-.42.595 0 1.116.125 1.563.375.447.246.793.613 1.04 1.102.246.489.369 1.093.369 1.813v5.551h-1.699v-5.347c0-.633-.165-1.127-.494-1.483-.33-.36-.783-.54-1.358-.54a2.13 2.13 0 0 0-1.051.256c-.304.17-.544.42-.722.75-.174.326-.261.72-.261 1.182zm7.687 5.182v-8.728h1.63v1.421h.109c.182-.481.479-.856.892-1.125.413-.273.907-.409 1.483-.409.583 0 1.072.136 1.466.409.398.273.691.648.88 1.125h.091c.209-.466.54-.837.995-1.114.454-.28.996-.42 1.625-.42.791 0 1.437.248 1.937.744.504.496.756 1.244.756 2.244v5.853h-1.699v-5.694c0-.59-.161-1.018-.483-1.284a1.757 1.757 0 0 0-1.153-.397c-.553 0-.983.17-1.29.511-.307.337-.46.771-.46 1.301v5.563h-1.694v-5.801c0-.474-.147-.855-.443-1.143-.295-.287-.68-.431-1.153-.431-.322 0-.62.085-.892.255-.27.167-.487.4-.654.699a2.14 2.14 0 0 0-.244 1.04v5.381h-1.699zm17.726.176c-.86 0-1.6-.184-2.221-.551a3.741 3.741 0 0 1-1.432-1.563c-.334-.674-.5-1.464-.5-2.369 0-.894.166-1.682.5-2.364a3.876 3.876 0 0 1 1.409-1.596c.606-.383 1.314-.574 2.125-.574.492 0 .97.081 1.432.244.462.163.877.419 1.244.767.367.349.657.801.87 1.358.212.553.318 1.225.318 2.017v.602H70.76v-1.272h5.273c0-.447-.091-.843-.273-1.188a2.067 2.067 0 0 0-.767-.824c-.326-.2-.708-.301-1.148-.301-.477 0-.894.118-1.25.352a2.366 2.366 0 0 0-.818.91c-.19.371-.284.774-.284 1.21v.994c0 .583.102 1.08.307 1.489.208.409.498.721.87.937.37.212.804.318 1.3.318a2.7 2.7 0 0 0 .88-.136c.266-.095.495-.235.688-.42a1.83 1.83 0 0 0 .444-.688l1.608.29a2.92 2.92 0 0 1-.694 1.244c-.33.352-.744.627-1.244.824-.496.193-1.062.29-1.699.29zm9.527-8.904v1.364h-4.767v-1.364h4.767zm-3.488-2.091h1.699v8.256c0 .33.049.578.147.744a.774.774 0 0 0 .381.336c.16.057.331.085.517.085.136 0 .256-.01.358-.028l.239-.046.306 1.403a2.846 2.846 0 0 1-.42.114 3.32 3.32 0 0 1-.682.068 2.994 2.994 0 0 1-1.25-.238 2.15 2.15 0 0 1-.937-.773c-.239-.349-.358-.786-.358-1.313v-8.608zm5.192 10.819v-8.728h1.642v1.387h.09c.16-.47.44-.839.841-1.108a2.404 2.404 0 0 1 1.375-.409 6.778 6.778 0 0 1 .722.039v1.625a3.358 3.358 0 0 0-.364-.062 3.408 3.408 0 0 0-.522-.04c-.402 0-.76.085-1.074.256a1.897 1.897 0 0 0-1.012 1.71v5.33h-1.698zm5.964 0v-8.728h1.7v8.728h-1.7zm.858-10.074a1.08 1.08 0 0 1-.761-.296.959.959 0 0 1-.313-.716c0-.28.105-.519.313-.715.212-.201.466-.302.761-.302.296 0 .547.101.756.302a.938.938 0 0 1 .318.715.951.951 0 0 1-.318.716 1.06 1.06 0 0 1-.756.296zm6.627 10.25c-.845 0-1.572-.192-2.182-.574a3.799 3.799 0 0 1-1.398-1.597c-.326-.678-.488-1.454-.488-2.329 0-.887.166-1.669.5-2.347a3.823 3.823 0 0 1 1.409-1.596c.606-.383 1.32-.574 2.142-.574.663 0 1.254.123 1.772.369a3.17 3.17 0 0 1 1.256 1.023c.322.439.513.952.574 1.54h-1.653a1.98 1.98 0 0 0-.625-1.057c-.322-.296-.754-.443-1.296-.443a2.11 2.11 0 0 0-1.244.375c-.353.246-.627.598-.824 1.056-.197.455-.295.993-.295 1.614 0 .636.096 1.186.29 1.648.192.462.465.82.817 1.074.356.253.775.38 1.256.38.322 0 .614-.058.875-.176a1.78 1.78 0 0 0 .665-.517c.182-.223.309-.492.381-.807h1.653a3.218 3.218 0 0 1-.551 1.512 3.176 3.176 0 0 1-1.233 1.045c-.511.254-1.112.381-1.801.381zm11.766-6.773l-1.54.273a1.842 1.842 0 0 0-.307-.563 1.507 1.507 0 0 0-.557-.437c-.235-.114-.528-.171-.881-.171-.481 0-.882.108-1.204.324-.322.212-.483.487-.483.824 0 .292.108.527.324.705.216.178.564.323 1.045.437l1.387.318c.803.186 1.401.472 1.795.858.394.387.591.888.591 1.506 0 .523-.152.989-.455 1.398-.299.405-.717.723-1.255.954-.534.231-1.154.347-1.858.347-.977 0-1.775-.209-2.392-.625-.618-.421-.996-1.017-1.137-1.79l1.642-.25c.103.428.313.752.631.972.318.216.733.323 1.244.323.557 0 1.002-.115 1.336-.346.333-.235.5-.521.5-.858a.895.895 0 0 0-.307-.688c-.201-.185-.51-.325-.926-.42l-1.478-.324c-.814-.186-1.416-.481-1.806-.886-.387-.406-.58-.919-.58-1.54a2.2 2.2 0 0 1 .432-1.352c.288-.387.685-.688 1.193-.904.508-.219 1.089-.329 1.744-.329.944 0 1.686.204 2.228.613.541.406.899.949 1.074 1.631zm7.004.943V380h-5.159v-1.472h5.159zm5.849 5.83c-.859 0-1.6-.184-2.221-.551a3.737 3.737 0 0 1-1.432-1.563c-.333-.674-.5-1.464-.5-2.369 0-.894.167-1.682.5-2.364a3.877 3.877 0 0 1 1.409-1.596c.606-.383 1.315-.574 2.125-.574.493 0 .97.081 1.432.244.462.163.877.419 1.244.767.368.349.657.801.87 1.358.212.553.318 1.225.318 2.017v.602h-6.938v-1.272h5.273c0-.447-.091-.843-.273-1.188a2.065 2.065 0 0 0-.767-.824 2.149 2.149 0 0 0-1.147-.301c-.478 0-.894.118-1.25.352a2.37 2.37 0 0 0-.819.91 2.626 2.626 0 0 0-.284 1.21v.994c0 .583.103 1.08.307 1.489.208.409.498.721.869.937.372.212.805.318 1.302.318.321 0 .615-.045.88-.136.265-.095.495-.235.688-.42.193-.186.341-.415.443-.688l1.608.29c-.129.473-.36.888-.693 1.244a3.37 3.37 0 0 1-1.245.824c-.496.193-1.062.29-1.699.29zm6.592-8.904l1.926 3.398 1.943-3.398h1.858l-2.722 4.364 2.745 4.364h-1.858l-1.966-3.262-1.961 3.262h-1.863l2.716-4.364-2.682-4.364h1.864zm7.295 12v-12h1.659v1.415h.142a4.87 4.87 0 0 1 .426-.631 2.43 2.43 0 0 1 .773-.625c.33-.181.765-.272 1.307-.272.704 0 1.333.178 1.886.534.553.356.987.869 1.301 1.54.319.67.478 1.477.478 2.42 0 .943-.157 1.752-.472 2.426-.314.671-.746 1.188-1.295 1.551-.55.36-1.176.54-1.881.54-.53 0-.964-.089-1.301-.267a2.456 2.456 0 0 1-.784-.625 4.813 4.813 0 0 1-.438-.636h-.102v4.63h-1.699zm1.665-7.636c0 .614.089 1.152.267 1.614.178.462.436.824.773 1.085.337.257.75.386 1.238.386.508 0 .932-.134 1.273-.403.341-.273.599-.642.773-1.108.178-.466.267-.991.267-1.574a4.32 4.32 0 0 0-.262-1.551c-.17-.458-.428-.82-.772-1.085-.341-.266-.767-.398-1.279-.398-.492 0-.909.127-1.25.381-.337.253-.593.608-.767 1.062-.174.455-.261.985-.261 1.591zm11.71 4.54c-.818 0-1.532-.188-2.142-.563a3.786 3.786 0 0 1-1.42-1.574c-.337-.674-.506-1.462-.506-2.363 0-.906.169-1.697.506-2.375a3.784 3.784 0 0 1 1.42-1.58c.61-.375 1.324-.562 2.142-.562.818 0 1.532.187 2.142.562.61.375 1.084.902 1.421 1.58.337.678.505 1.469.505 2.375 0 .901-.168 1.689-.505 2.363a3.788 3.788 0 0 1-1.421 1.574c-.61.375-1.324.563-2.142.563zm.006-1.426c.53 0 .97-.141 1.318-.421a2.46 2.46 0 0 0 .773-1.119c.17-.466.256-.979.256-1.54 0-.557-.086-1.068-.256-1.534a2.497 2.497 0 0 0-.773-1.131c-.348-.284-.788-.426-1.318-.426-.534 0-.977.142-1.33.426a2.537 2.537 0 0 0-.778 1.131c-.167.466-.25.977-.25 1.534 0 .561.083 1.074.25 1.54.17.466.43.839.778 1.119.353.28.796.421 1.33.421zm5.783 1.25v-8.728h1.642v1.387h.091c.159-.47.439-.839.841-1.108a2.402 2.402 0 0 1 1.375-.409 6.778 6.778 0 0 1 .721.039v1.625a3.341 3.341 0 0 0-.363-.062 3.421 3.421 0 0 0-.523-.04c-.402 0-.76.085-1.074.256a1.896 1.896 0 0 0-1.011 1.71v5.33h-1.699zm10.554-8.728v1.364h-4.767v-1.364h4.767zm-3.489-2.091h1.699v8.256c0 .33.049.578.148.744a.772.772 0 0 0 .38.336c.16.057.332.085.518.085.136 0 .255-.01.357-.028l.239-.046.307 1.403a2.872 2.872 0 0 1-.421.114 3.311 3.311 0 0 1-.681.068 2.993 2.993 0 0 1-1.25-.238 2.15 2.15 0 0 1-.938-.773c-.238-.349-.358-.786-.358-1.313v-8.608zm8.86 10.995c-.86 0-1.601-.184-2.222-.551a3.743 3.743 0 0 1-1.432-1.563c-.333-.674-.5-1.464-.5-2.369 0-.894.167-1.682.5-2.364a3.877 3.877 0 0 1 1.409-1.596c.606-.383 1.315-.574 2.125-.574.493 0 .97.081 1.432.244.462.163.877.419 1.245.767.367.349.657.801.869 1.358.212.553.318 1.225.318 2.017v.602h-6.937v-1.272h5.272a2.52 2.52 0 0 0-.272-1.188 2.068 2.068 0 0 0-.768-.824c-.325-.2-.708-.301-1.147-.301-.478 0-.894.118-1.25.352a2.359 2.359 0 0 0-.818.91c-.19.371-.285.774-.285 1.21v.994c0 .583.103 1.08.307 1.489.209.409.498.721.87.937.371.212.805.318 1.301.318.322 0 .615-.045.88-.136.266-.095.495-.235.688-.42.193-.186.341-.415.443-.688l1.608.29c-.129.473-.36.888-.693 1.244-.33.352-.744.627-1.244.824-.497.193-1.063.29-1.699.29zm5.453-.176v-8.728h1.642v1.387h.091c.159-.47.439-.839.841-1.108a2.402 2.402 0 0 1 1.375-.409 6.778 6.778 0 0 1 .721.039v1.625a3.341 3.341 0 0 0-.363-.062 3.412 3.412 0 0 0-.523-.04c-.401 0-.759.085-1.074.256-.31.167-.557.399-.738.699a1.886 1.886 0 0 0-.273 1.011v5.33h-1.699zm-113.37 24.193a3.557 3.557 0 0 1-1.5-.307 2.523 2.523 0 0 1-1.062-.903c-.257-.394-.386-.877-.386-1.449 0-.493.095-.898.284-1.216.19-.318.445-.57.767-.756a4.003 4.003 0 0 1 1.08-.42c.397-.095.803-.167 1.216-.216l1.272-.148c.326-.042.563-.108.71-.199.148-.091.222-.238.222-.443v-.04c0-.496-.14-.88-.42-1.153-.277-.273-.69-.409-1.239-.409-.572 0-1.023.127-1.352.38-.326.25-.551.529-.676.836l-1.597-.364c.19-.53.466-.958.83-1.284.367-.33.79-.568 1.267-.716a4.928 4.928 0 0 1 1.505-.227c.349 0 .718.041 1.108.125a3.23 3.23 0 0 1 1.102.443c.345.216.627.525.847.926.22.398.33.915.33 1.551v5.796h-1.66v-1.194h-.068c-.11.22-.274.436-.494.648-.22.212-.502.388-.847.529-.344.14-.757.21-1.238.21zm.37-1.364c.47 0 .871-.093 1.205-.278.337-.186.593-.428.767-.727a1.89 1.89 0 0 0 .267-.972v-1.125c-.06.061-.178.117-.353.17-.17.05-.365.093-.585.131l-.642.097c-.208.026-.382.049-.523.068-.329.041-.63.112-.903.21a1.561 1.561 0 0 0-.648.426c-.159.182-.238.424-.238.727 0 .421.155.739.466.955.31.212.706.318 1.187.318zm6.024 1.171v-8.728h1.642v1.387h.091c.16-.47.44-.839.841-1.108a2.404 2.404 0 0 1 1.375-.409 6.778 6.778 0 0 1 .722.039v1.625a3.358 3.358 0 0 0-.364-.062 3.407 3.407 0 0 0-.522-.04c-.402 0-.76.085-1.074.256a1.896 1.896 0 0 0-1.012 1.71v5.33h-1.699zm10.555-8.728v1.364h-4.767v-1.364h4.767zm-3.49-2.091h1.7v8.256c0 .33.049.578.148.744a.774.774 0 0 0 .38.336c.16.057.332.085.517.085.137 0 .256-.01.358-.028l.239-.046.307 1.403a2.85 2.85 0 0 1-.42.114 3.32 3.32 0 0 1-.683.068 2.994 2.994 0 0 1-1.25-.238 2.15 2.15 0 0 1-.937-.773c-.239-.349-.358-.786-.358-1.313v-8.608zm5.193 10.819v-8.728h1.699v8.728h-1.7zm.858-10.074a1.08 1.08 0 0 1-.762-.296.959.959 0 0 1-.312-.716c0-.28.104-.519.312-.715a1.07 1.07 0 0 1 .762-.302c.295 0 .547.101.755.302a.938.938 0 0 1 .319.715.95.95 0 0 1-.319.716 1.06 1.06 0 0 1-.755.296zm7.104 1.346v1.364h-4.932v-1.364h4.932zm-3.58 8.728v-9.739c0-.545.12-.998.358-1.358a2.19 2.19 0 0 1 .949-.812 3.024 3.024 0 0 1 1.284-.273c.34 0 .632.028.875.085.242.053.422.102.54.148l-.398 1.375a8.916 8.916 0 0 0-.307-.08 1.753 1.753 0 0 0-.454-.051c-.413 0-.709.102-.887.307-.174.204-.261.5-.261.886v9.512h-1.699zm7.43.193a3.556 3.556 0 0 1-1.5-.307 2.523 2.523 0 0 1-1.062-.903c-.257-.394-.386-.877-.386-1.449 0-.493.094-.898.284-1.216.19-.318.445-.57.767-.756a4.004 4.004 0 0 1 1.08-.42 10.61 10.61 0 0 1 1.215-.216l1.273-.148c.326-.042.563-.108.71-.199.148-.091.222-.238.222-.443v-.04c0-.496-.14-.88-.42-1.153-.277-.273-.69-.409-1.24-.409-.571 0-1.022.127-1.352.38-.325.25-.55.529-.676.836l-1.596-.364c.19-.53.466-.958.83-1.284.367-.33.79-.568 1.266-.716a4.94 4.94 0 0 1 1.506-.227c.349 0 .718.041 1.108.125a3.23 3.23 0 0 1 1.102.443c.345.216.627.525.847.926.22.398.33.915.33 1.551v5.796h-1.66v-1.194h-.068a2.41 2.41 0 0 1-.494.648c-.22.212-.502.388-.847.529-.344.14-.757.21-1.238.21zm.37-1.364c.47 0 .871-.093 1.204-.278.338-.186.593-.428.767-.727a1.89 1.89 0 0 0 .267-.972v-1.125c-.06.061-.177.117-.352.17a5.32 5.32 0 0 1-.585.131l-.642.097a50.3 50.3 0 0 0-.523.068c-.33.041-.63.112-.903.21a1.562 1.562 0 0 0-.648.426c-.159.182-.239.424-.239.727 0 .421.156.739.466.955.311.212.707.318 1.188.318zm9.7 1.347c-.844 0-1.572-.192-2.182-.574a3.799 3.799 0 0 1-1.397-1.597c-.326-.678-.489-1.454-.489-2.329 0-.887.167-1.669.5-2.347a3.822 3.822 0 0 1 1.409-1.596c.606-.383 1.32-.574 2.142-.574.663 0 1.254.123 1.773.369.519.242.937.583 1.256 1.023.322.439.513.952.574 1.54h-1.654a1.976 1.976 0 0 0-.625-1.057c-.322-.296-.754-.443-1.295-.443-.474 0-.889.125-1.245.375-.352.246-.627.598-.824 1.056-.196.455-.295.993-.295 1.614 0 .636.097 1.186.29 1.648.193.462.466.82.818 1.074.356.253.775.38 1.256.38.322 0 .613-.058.875-.176.265-.121.486-.293.664-.517.182-.223.309-.492.381-.807h1.654a3.219 3.219 0 0 1-.552 1.512 3.162 3.162 0 0 1-1.233 1.045c-.511.254-1.111.381-1.801.381zm9.3-8.904v1.364h-4.767v-1.364h4.767zm-3.488-2.091h1.698v8.256c0 .33.05.578.148.744a.774.774 0 0 0 .381.336c.159.057.331.085.517.085.136 0 .256-.01.358-.028l.238-.046.307 1.403a2.817 2.817 0 0 1-.42.114 3.322 3.322 0 0 1-.682.068 2.993 2.993 0 0 1-1.25-.238 2.156 2.156 0 0 1-.938-.773c-.238-.349-.357-.786-.357-1.313v-8.608zm8.774 10.995c-.818 0-1.532-.188-2.142-.563a3.788 3.788 0 0 1-1.421-1.574c-.337-.674-.505-1.462-.505-2.363 0-.906.168-1.697.505-2.375a3.786 3.786 0 0 1 1.421-1.58c.61-.375 1.324-.562 2.142-.562.818 0 1.532.187 2.142.562.61.375 1.083.902 1.42 1.58.337.678.506 1.469.506 2.375 0 .901-.169 1.689-.506 2.363a3.786 3.786 0 0 1-1.42 1.574c-.61.375-1.324.563-2.142.563zm.005-1.426c.531 0 .97-.141 1.319-.421.348-.28.606-.653.772-1.119.171-.466.256-.979.256-1.54a4.42 4.42 0 0 0-.256-1.534 2.495 2.495 0 0 0-.772-1.131c-.349-.284-.788-.426-1.319-.426-.534 0-.977.142-1.329.426a2.53 2.53 0 0 0-.778 1.131c-.167.466-.25.977-.25 1.534 0 .561.083 1.074.25 1.54.17.466.429.839.778 1.119.352.28.795.421 1.329.421zm5.783 1.25v-8.728h1.642v1.387h.091c.159-.47.44-.839.841-1.108a2.404 2.404 0 0 1 1.375-.409 6.778 6.778 0 0 1 .722.039v1.625a3.372 3.372 0 0 0-.364-.062 3.402 3.402 0 0 0-.523-.04c-.401 0-.759.085-1.073.256a1.896 1.896 0 0 0-1.012 1.71v5.33h-1.699zm7.304 3.272c-.253 0-.484-.02-.693-.062a2.236 2.236 0 0 1-.466-.125l.409-1.392c.311.083.588.119.83.108a.996.996 0 0 0 .642-.273c.189-.17.356-.449.5-.835l.21-.58-3.193-8.841h1.818l2.21 6.773h.091l2.211-6.773h1.823l-3.596 9.892a3.951 3.951 0 0 1-.637 1.154 2.466 2.466 0 0 1-.92.716c-.356.159-.769.238-1.239.238zM85.949 179.273c-.254 0-.485-.021-.694-.063a2.154 2.154 0 0 1-.465-.125l.409-1.392c.31.084.587.12.83.108a.989.989 0 0 0 .641-.273c.19-.17.356-.448.5-.835l.21-.579-3.193-8.841h1.819l2.21 6.772h.09l2.21-6.772h1.825l-3.597 9.892a3.946 3.946 0 0 1-.636 1.153 2.47 2.47 0 0 1-.92.716c-.357.159-.77.239-1.24.239zm11.192-3.097c-.819 0-1.533-.187-2.142-.562a3.795 3.795 0 0 1-1.42-1.574c-.338-.674-.507-1.462-.507-2.364 0-.905.169-1.697.506-2.375a3.784 3.784 0 0 1 1.42-1.579c.61-.375 1.324-.563 2.143-.563.818 0 1.532.188 2.142.563.61.375 1.083.901 1.42 1.579.337.678.506 1.47.506 2.375 0 .902-.169 1.69-.506 2.364a3.794 3.794 0 0 1-1.42 1.574c-.61.375-1.324.562-2.142.562zm.005-1.426c.53 0 .97-.14 1.318-.42.349-.281.606-.654.773-1.12a4.45 4.45 0 0 0 .256-1.54c0-.556-.085-1.068-.256-1.534a2.5 2.5 0 0 0-.773-1.13c-.348-.284-.787-.426-1.318-.426-.534 0-.977.142-1.33.426a2.54 2.54 0 0 0-.778 1.13c-.166.466-.25.978-.25 1.534 0 .561.084 1.074.25 1.54.17.466.43.839.779 1.12.352.28.795.42 1.33.42zm11.311-2.369v-5.108h1.705V176h-1.67v-1.511h-.091a2.721 2.721 0 0 1-.966 1.164c-.44.307-.987.461-1.642.461-.561 0-1.057-.123-1.489-.37-.428-.25-.765-.619-1.011-1.108-.243-.488-.364-1.092-.364-1.812v-5.551h1.699v5.346c0 .595.165 1.068.494 1.421.33.352.758.528 1.284.528.319 0 .635-.079.949-.238.318-.16.582-.4.79-.722.212-.322.316-.731.312-1.227zm3.812 3.619v-8.727h1.642v1.386h.091c.159-.47.439-.839.841-1.108a2.402 2.402 0 0 1 1.375-.409c.106 0 .231.004.375.011.147.008.263.017.346.029v1.625a3.035 3.035 0 0 0-.364-.063 3.528 3.528 0 0 0-.522-.039c-.402 0-.76.085-1.074.255a1.904 1.904 0 0 0-1.011 1.71V176h-1.699zm-47.457 24.193a3.557 3.557 0 0 1-1.5-.307 2.523 2.523 0 0 1-1.063-.903c-.257-.394-.386-.877-.386-1.449 0-.492.095-.898.284-1.216.19-.318.445-.57.767-.756a4.036 4.036 0 0 1 1.08-.42c.397-.095.803-.167 1.216-.216l1.272-.148c.326-.041.563-.108.71-.198.148-.091.222-.239.222-.444v-.039c0-.497-.14-.881-.42-1.154-.277-.273-.69-.409-1.239-.409-.572 0-1.023.127-1.352.381-.326.25-.551.528-.676.835l-1.597-.364c.19-.53.466-.958.83-1.284.367-.329.79-.568 1.267-.716a4.959 4.959 0 0 1 1.505-.227c.349 0 .718.042 1.108.125.394.08.762.227 1.102.443.345.216.627.525.847.926.22.398.33.915.33 1.552V200h-1.66v-1.193h-.068c-.11.22-.274.435-.494.648-.22.212-.502.388-.847.528-.344.14-.757.21-1.238.21zm.37-1.363c.469 0 .87-.093 1.204-.279.337-.185.593-.428.767-.727.178-.303.267-.627.267-.972v-1.125c-.06.061-.178.118-.353.171-.17.049-.365.093-.585.13-.22.034-.433.067-.642.097l-.523.068a4.27 4.27 0 0 0-.903.21 1.553 1.553 0 0 0-.648.427c-.159.181-.238.424-.238.727 0 .42.155.738.466.954.31.212.706.319 1.187.319zm6.023 1.17v-8.727h1.642v1.386h.091c.16-.47.44-.839.841-1.108a2.404 2.404 0 0 1 1.375-.409c.106 0 .231.004.375.011.148.008.264.017.347.029v1.625a3.062 3.062 0 0 0-.364-.063 3.536 3.536 0 0 0-.522-.039c-.402 0-.76.085-1.074.255a1.904 1.904 0 0 0-1.012 1.71V200h-1.699zm10.555-8.727v1.363h-4.767v-1.363h4.767zm-3.49-2.091h1.7v8.256c0 .329.049.577.148.744a.772.772 0 0 0 .38.335c.16.057.332.085.517.085.137 0 .256-.009.358-.028.102-.019.182-.034.239-.046l.307 1.404a2.748 2.748 0 0 1-.42.113c-.183.042-.41.065-.683.069a2.995 2.995 0 0 1-1.25-.239 2.143 2.143 0 0 1-.937-.773c-.239-.348-.358-.786-.358-1.312v-8.608zM83.464 200v-8.727h1.699V200h-1.7zm.858-10.074a1.08 1.08 0 0 1-.762-.295.962.962 0 0 1-.312-.716c0-.281.104-.519.312-.716a1.07 1.07 0 0 1 .762-.301c.295 0 .547.1.755.301a.94.94 0 0 1 .319.716.954.954 0 0 1-.319.716 1.06 1.06 0 0 1-.755.295zm7.104 1.347v1.363h-4.932v-1.363h4.932zM87.845 200v-9.739c0-.545.12-.998.358-1.358a2.2 2.2 0 0 1 .949-.812 3.024 3.024 0 0 1 1.284-.273c.34 0 .632.029.875.085.242.053.422.103.54.148l-.398 1.375a7.28 7.28 0 0 0-.307-.079 1.707 1.707 0 0 0-.454-.052c-.413 0-.709.103-.887.307-.174.205-.261.5-.261.887V200h-1.699zm7.43.193a3.556 3.556 0 0 1-1.5-.307 2.523 2.523 0 0 1-1.062-.903c-.257-.394-.386-.877-.386-1.449 0-.492.094-.898.284-1.216.19-.318.445-.57.767-.756a4.037 4.037 0 0 1 1.08-.42 10.61 10.61 0 0 1 1.215-.216l1.273-.148c.326-.041.563-.108.71-.198.148-.091.222-.239.222-.444v-.039c0-.497-.14-.881-.42-1.154-.277-.273-.69-.409-1.24-.409-.571 0-1.022.127-1.352.381-.325.25-.55.528-.676.835l-1.596-.364c.19-.53.466-.958.83-1.284.367-.329.79-.568 1.266-.716a4.97 4.97 0 0 1 1.506-.227c.349 0 .718.042 1.108.125.394.08.761.227 1.102.443.345.216.627.525.847.926.22.398.33.915.33 1.552V200h-1.66v-1.193h-.068c-.11.22-.275.435-.494.648-.22.212-.502.388-.847.528-.344.14-.757.21-1.238.21zm.37-1.363c.47 0 .871-.093 1.204-.279.338-.185.593-.428.767-.727.178-.303.267-.627.267-.972v-1.125c-.06.061-.177.118-.352.171a5.34 5.34 0 0 1-.585.13c-.22.034-.434.067-.642.097l-.523.068c-.33.042-.63.112-.903.21a1.554 1.554 0 0 0-.648.427c-.159.181-.239.424-.239.727 0 .42.156.738.466.954.311.212.707.319 1.188.319zm9.7 1.346c-.844 0-1.572-.191-2.182-.574a3.796 3.796 0 0 1-1.397-1.596c-.326-.678-.489-1.455-.489-2.33 0-.886.167-1.668.5-2.346a3.83 3.83 0 0 1 1.409-1.597c.606-.383 1.32-.574 2.142-.574.663 0 1.254.123 1.773.369.519.243.937.584 1.256 1.023.322.44.513.953.574 1.54h-1.654a1.983 1.983 0 0 0-.625-1.057c-.322-.295-.754-.443-1.295-.443-.474 0-.889.125-1.245.375-.352.246-.627.598-.824 1.057-.196.454-.295.992-.295 1.613 0 .637.097 1.186.29 1.648.193.462.466.82.818 1.074.356.254.775.381 1.256.381.322 0 .613-.059.875-.177.265-.121.486-.293.664-.517a1.94 1.94 0 0 0 .381-.806h1.654a3.215 3.215 0 0 1-.552 1.511 3.154 3.154 0 0 1-1.233 1.045c-.511.254-1.111.381-1.801.381zm9.3-8.903v1.363h-4.767v-1.363h4.767zm-3.488-2.091h1.698v8.256c0 .329.05.577.148.744a.772.772 0 0 0 .381.335c.159.057.331.085.517.085.136 0 .256-.009.358-.028.102-.019.182-.034.238-.046l.307 1.404a2.718 2.718 0 0 1-.42.113 3.314 3.314 0 0 1-.682.069 2.994 2.994 0 0 1-1.25-.239 2.149 2.149 0 0 1-.938-.773c-.238-.348-.357-.786-.357-1.312v-8.608zm8.774 10.994c-.818 0-1.532-.187-2.142-.562a3.794 3.794 0 0 1-1.421-1.574c-.337-.674-.505-1.462-.505-2.364 0-.905.168-1.697.505-2.375a3.784 3.784 0 0 1 1.421-1.579c.61-.375 1.324-.563 2.142-.563.818 0 1.532.188 2.142.563.61.375 1.083.901 1.42 1.579.337.678.506 1.47.506 2.375 0 .902-.169 1.69-.506 2.364a3.792 3.792 0 0 1-1.42 1.574c-.61.375-1.324.562-2.142.562zm.005-1.426c.531 0 .97-.14 1.319-.42.348-.281.606-.654.772-1.12.171-.466.256-.979.256-1.54 0-.556-.085-1.068-.256-1.534a2.498 2.498 0 0 0-.772-1.13c-.349-.284-.788-.426-1.319-.426-.534 0-.977.142-1.329.426a2.532 2.532 0 0 0-.778 1.13 4.52 4.52 0 0 0-.25 1.534c0 .561.083 1.074.25 1.54a2.5 2.5 0 0 0 .778 1.12c.352.28.795.42 1.329.42zm5.783 1.25v-8.727h1.642v1.386h.091c.159-.47.44-.839.841-1.108a2.404 2.404 0 0 1 1.375-.409c.106 0 .231.004.375.011.148.008.263.017.347.029v1.625a3.074 3.074 0 0 0-.364-.063 3.53 3.53 0 0 0-.523-.039c-.401 0-.759.085-1.073.255a1.904 1.904 0 0 0-1.012 1.71V200h-1.699zm7.304 3.273c-.253 0-.484-.021-.693-.063a2.175 2.175 0 0 1-.466-.125l.409-1.392c.311.084.588.12.83.108a.99.99 0 0 0 .642-.273c.189-.17.356-.448.5-.835l.21-.579-3.193-8.841h1.818l2.21 6.772h.091l2.211-6.772h1.823l-3.596 9.892a3.945 3.945 0 0 1-.637 1.153 2.466 2.466 0 0 1-.92.716c-.356.159-.769.239-1.239.239z" fill="#C9CDD1"/><path d="M144 116.5a1.5 1.5 0 0 0 0 3v-3zM360 222l-15-8.66v17.32l15-8.66zM144 119.5h84v-3h-84v3zM250.5 142v56h3v-56h-3zm25.5 81.5h70.5v-3H276v3zM250.5 198c0 14.083 11.417 25.5 25.5 25.5v-3c-12.426 0-22.5-10.074-22.5-22.5h-3zM228 119.5c12.426 0 22.5 10.074 22.5 22.5h3c0-14.083-11.417-25.5-25.5-25.5v3z" fill="#939BA3"/><path d="M144 324.5a1.5 1.5 0 0 0 0 3v-3zM360 222l-15-8.66v17.32l15-8.66zM144 327.5h84v-3h-84v3zM253.5 302v-56h-3v56h3zm22.5-78.5h70.5v-3H276v3zM253.5 246c0-12.426 10.074-22.5 22.5-22.5v-3c-14.083 0-25.5 11.417-25.5 25.5h3zM228 327.5c14.083 0 25.5-11.417 25.5-25.5h-3c0 12.426-10.074 22.5-22.5 22.5v3zm220-107a1.5 1.5 0 0 0 0 3v-3zM602.5 319l-7.16 15h17.32l-7.16-15h-3zM448 223.5h37.5v-3H448v3zm118.5 0H580v-3h-13.5v3zm36 22.5v74.5h3V246h-3zM580 223.5c12.426 0 22.5 10.074 22.5 22.5h3c0-14.083-11.417-25.5-25.5-25.5v3z" fill="#939BA3"/><path d="M499.909 216.17c-.704 0-1.333-.179-1.886-.539-.55-.364-.981-.881-1.296-1.551-.31-.675-.466-1.483-.466-2.427 0-.943.158-1.75.472-2.42.318-.671.754-1.184 1.307-1.54a3.398 3.398 0 0 1 1.88-.534c.542 0 .978.091 1.307.273.334.178.591.386.773.625.186.238.33.449.432.631h.102v-4.324h1.699V216h-1.659v-1.358h-.142c-.102.186-.25.398-.443.636-.19.239-.451.447-.784.625-.334.178-.766.267-1.296.267zm.375-1.448c.489 0 .902-.129 1.239-.387.341-.261.598-.623.772-1.085.178-.462.267-1 .267-1.614 0-.606-.087-1.136-.261-1.591-.174-.454-.43-.808-.767-1.062s-.754-.381-1.25-.381c-.511 0-.937.133-1.278.398-.341.265-.599.627-.773 1.085-.17.459-.256.976-.256 1.551 0 .584.087 1.108.262 1.574.174.466.431.835.772 1.108.345.269.769.404 1.273.404zm9.959 1.454c-.86 0-1.6-.184-2.222-.551a3.735 3.735 0 0 1-1.431-1.563c-.334-.674-.5-1.464-.5-2.369 0-.894.166-1.682.5-2.363a3.88 3.88 0 0 1 1.409-1.597c.606-.383 1.314-.574 2.125-.574.492 0 .969.082 1.432.244.462.163.876.419 1.244.767.367.349.657.802.869 1.358.212.553.318 1.226.318 2.017v.603h-6.937v-1.273h5.273c0-.447-.091-.843-.273-1.187a2.06 2.06 0 0 0-.767-.824c-.326-.201-.709-.302-1.148-.302-.477 0-.894.118-1.25.353a2.364 2.364 0 0 0-.818.909 2.626 2.626 0 0 0-.284 1.21v.994c0 .584.102 1.08.307 1.489.208.409.498.722.869.938.371.212.805.318 1.301.318a2.7 2.7 0 0 0 .881-.137c.265-.094.494-.234.687-.42.193-.186.341-.415.443-.688l1.608.29a2.892 2.892 0 0 1-.693 1.244 3.346 3.346 0 0 1-1.244.824c-.496.194-1.063.29-1.699.29zm9.527-8.903v1.363h-4.767v-1.363h4.767zm-3.488-2.091h1.698v8.256c0 .329.05.577.148.744a.772.772 0 0 0 .381.335c.159.057.331.085.517.085.136 0 .256-.009.358-.028.102-.019.182-.034.238-.046l.307 1.404a2.718 2.718 0 0 1-.42.113 3.314 3.314 0 0 1-.682.069 2.994 2.994 0 0 1-1.25-.239 2.149 2.149 0 0 1-.938-.773c-.238-.348-.357-.786-.357-1.312v-8.608zm7.731 11.011a3.557 3.557 0 0 1-1.5-.307 2.52 2.52 0 0 1-1.062-.903c-.258-.394-.387-.877-.387-1.449 0-.492.095-.898.284-1.216.19-.318.445-.57.767-.756a4.035 4.035 0 0 1 1.08-.42 10.62 10.62 0 0 1 1.216-.216l1.273-.148c.325-.041.562-.108.71-.198.148-.091.221-.239.221-.444v-.039c0-.497-.14-.881-.42-1.154-.277-.273-.689-.409-1.239-.409-.572 0-1.022.127-1.352.381-.326.25-.551.528-.676.835l-1.597-.364c.19-.53.466-.958.83-1.284.367-.329.79-.568 1.267-.716a4.96 4.96 0 0 1 1.506-.227c.348 0 .717.042 1.108.125.394.08.761.227 1.102.443.345.216.627.525.846.926.22.398.33.915.33 1.552V216h-1.659v-1.193h-.068c-.11.22-.275.435-.495.648a2.611 2.611 0 0 1-.846.528c-.345.14-.758.21-1.239.21zm.37-1.363c.469 0 .871-.093 1.204-.279.337-.185.593-.428.767-.727.178-.303.267-.627.267-.972v-1.125c-.06.061-.178.118-.352.171a5.398 5.398 0 0 1-.585.13c-.22.034-.434.067-.642.097l-.523.068c-.33.042-.631.112-.904.21a1.558 1.558 0 0 0-.647.427c-.159.181-.239.424-.239.727 0 .42.155.738.466.954.311.212.706.319 1.188.319zm6.024 1.17v-8.727h1.699V216h-1.699zm.858-10.074c-.296 0-.549-.098-.762-.295a.963.963 0 0 1-.312-.716c0-.281.104-.519.312-.716a1.07 1.07 0 0 1 .762-.301c.295 0 .547.1.755.301a.938.938 0 0 1 .319.716.952.952 0 0 1-.319.716c-.208.197-.46.295-.755.295zm4.649-1.562V216h-1.699v-11.636h1.699zm5.871 11.812c-.86 0-1.6-.184-2.222-.551a3.735 3.735 0 0 1-1.431-1.563c-.334-.674-.5-1.464-.5-2.369 0-.894.166-1.682.5-2.363a3.88 3.88 0 0 1 1.409-1.597c.606-.383 1.314-.574 2.125-.574.492 0 .969.082 1.431.244.463.163.877.419 1.245.767.367.349.657.802.869 1.358.212.553.318 1.226.318 2.017v.603h-6.937v-1.273h5.272a2.5 2.5 0 0 0-.272-1.187 2.06 2.06 0 0 0-.767-.824c-.326-.201-.709-.302-1.148-.302-.477 0-.894.118-1.25.353a2.364 2.364 0 0 0-.818.909c-.19.371-.284.774-.284 1.21v.994c0 .584.102 1.08.307 1.489.208.409.498.722.869.938.371.212.805.318 1.301.318.322 0 .615-.046.881-.137.265-.094.494-.234.687-.42.193-.186.341-.415.443-.688l1.608.29c-.129.474-.36.888-.693 1.244a3.346 3.346 0 0 1-1.244.824c-.496.194-1.063.29-1.699.29zm8.72-.006c-.704 0-1.333-.179-1.886-.539-.549-.364-.981-.881-1.296-1.551-.31-.675-.466-1.483-.466-2.427 0-.943.158-1.75.472-2.42.318-.671.754-1.184 1.307-1.54a3.4 3.4 0 0 1 1.881-.534c.541 0 .977.091 1.306.273.334.178.591.386.773.625.186.238.33.449.432.631h.102v-4.324h1.699V216h-1.659v-1.358h-.142c-.102.186-.25.398-.443.636-.19.239-.451.447-.784.625-.334.178-.765.267-1.296.267zm.375-1.448c.489 0 .902-.129 1.239-.387.341-.261.598-.623.773-1.085.178-.462.267-1 .267-1.614 0-.606-.087-1.136-.262-1.591-.174-.454-.43-.808-.767-1.062s-.754-.381-1.25-.381c-.511 0-.937.133-1.278.398-.341.265-.599.627-.773 1.085-.17.459-.256.976-.256 1.551 0 .584.088 1.108.262 1.574.174.466.432.835.772 1.108.345.269.769.404 1.273.404zm-46.772 16.551L500.943 240h-1.818l-3.17-8.727h1.823l2.211 6.716h.091l2.204-6.716h1.824zm1.421 8.727v-8.727h1.698V240h-1.698zm.858-10.074a1.08 1.08 0 0 1-.762-.295.963.963 0 0 1-.312-.716c0-.281.104-.519.312-.716.212-.201.466-.301.762-.301.295 0 .547.1.755.301a.94.94 0 0 1 .318.716.954.954 0 0 1-.318.716c-.208.197-.46.295-.755.295zm6.711 10.25c-.86 0-1.6-.184-2.221-.551a3.731 3.731 0 0 1-1.432-1.563c-.333-.674-.5-1.464-.5-2.369 0-.894.167-1.682.5-2.363a3.886 3.886 0 0 1 1.409-1.597c.606-.383 1.314-.574 2.125-.574a4.3 4.3 0 0 1 1.432.244c.462.163.877.419 1.244.767.368.349.657.802.869 1.358.213.553.319 1.226.319 2.017v.603h-6.938v-1.273h5.273c0-.447-.091-.843-.273-1.187a2.052 2.052 0 0 0-.767-.824c-.326-.201-.708-.302-1.148-.302-.477 0-.894.118-1.25.353a2.364 2.364 0 0 0-.818.909 2.626 2.626 0 0 0-.284 1.21v.994c0 .584.102 1.08.307 1.489.208.409.498.722.869.938.371.212.805.318 1.301.318a2.7 2.7 0 0 0 .881-.137c.265-.094.494-.234.688-.42a1.84 1.84 0 0 0 .443-.688l1.608.29c-.129.474-.36.888-.694 1.244a3.346 3.346 0 0 1-1.244.824c-.496.194-1.062.29-1.699.29zm7.33-.176l-2.568-8.727h1.755l1.711 6.409h.085l1.716-6.409h1.756l1.704 6.38h.085l1.699-6.38h1.756L527.564 240h-1.733l-1.772-6.301h-.131L522.155 240h-1.727z" fill="#C9CDD1"/><path d="M523 404.5a1.5 1.5 0 0 0 0 3v-3zm163 1.5l-15-8.66v17.32l15-8.66zm-163 1.5h40.5v-3H523v3zm122.5 0h27v-3h-27v3z" fill="#939BA3"/><path d="M579.074 399.818l-3.75 13.932h-1.517l3.75-13.932h1.517zM580.341 412v-8.727h1.631v1.42h.108c.182-.481.479-.856.892-1.125.413-.273.907-.409 1.483-.409.583 0 1.072.136 1.466.409.397.273.691.648.88 1.125h.091c.209-.466.54-.837.994-1.113.455-.281.997-.421 1.625-.421.792 0 1.438.248 1.938.744.504.497.756 1.245.756 2.245V412h-1.699v-5.693c0-.591-.161-1.019-.483-1.284a1.76 1.76 0 0 0-1.154-.398c-.553 0-.983.17-1.289.511-.307.337-.461.771-.461 1.302V412h-1.693v-5.801c0-.474-.147-.854-.443-1.142-.295-.288-.68-.432-1.153-.432-.322 0-.62.085-.892.256a1.87 1.87 0 0 0-.654.699 2.135 2.135 0 0 0-.244 1.039V412h-1.699zm17.726.176c-.86 0-1.6-.184-2.222-.551a3.735 3.735 0 0 1-1.431-1.563c-.334-.674-.5-1.464-.5-2.369 0-.894.166-1.682.5-2.363a3.88 3.88 0 0 1 1.409-1.597c.606-.383 1.314-.574 2.125-.574.492 0 .969.082 1.432.244.462.163.876.419 1.244.767.367.349.657.802.869 1.358.212.553.318 1.226.318 2.017v.603h-6.937v-1.273h5.273c0-.447-.091-.843-.273-1.187a2.06 2.06 0 0 0-.767-.824c-.326-.201-.709-.302-1.148-.302-.477 0-.894.118-1.25.353a2.364 2.364 0 0 0-.818.909 2.626 2.626 0 0 0-.284 1.21v.994c0 .584.102 1.08.307 1.489.208.409.498.722.869.938.371.212.805.318 1.301.318a2.7 2.7 0 0 0 .881-.137c.265-.094.494-.234.687-.42.193-.186.341-.415.443-.688l1.608.29a2.892 2.892 0 0 1-.693 1.244 3.346 3.346 0 0 1-1.244.824c-.496.194-1.063.29-1.699.29zm9.527-8.903v1.363h-4.767v-1.363h4.767zm-3.488-2.091h1.698v8.256c0 .329.05.577.148.744a.772.772 0 0 0 .381.335c.159.057.331.085.517.085.136 0 .256-.009.358-.028.102-.019.182-.034.238-.046l.307 1.404a2.718 2.718 0 0 1-.42.113 3.314 3.314 0 0 1-.682.069 2.994 2.994 0 0 1-1.25-.239 2.149 2.149 0 0 1-.938-.773c-.238-.348-.357-.786-.357-1.312v-8.608zM609.297 412v-8.727h1.642v1.386h.091c.159-.47.44-.839.841-1.108a2.407 2.407 0 0 1 1.375-.409c.106 0 .231.004.375.011.148.008.264.017.347.029v1.625a3.074 3.074 0 0 0-.364-.063 3.528 3.528 0 0 0-.522-.039c-.402 0-.76.085-1.074.255a1.904 1.904 0 0 0-1.012 1.71V412h-1.699zm5.965 0v-8.727h1.699V412h-1.699zm.858-10.074a1.08 1.08 0 0 1-.761-.295.96.96 0 0 1-.313-.716c0-.281.104-.519.313-.716.212-.201.466-.301.761-.301s.547.1.756.301a.94.94 0 0 1 .318.716.954.954 0 0 1-.318.716 1.062 1.062 0 0 1-.756.295zm6.627 10.25c-.845 0-1.572-.191-2.182-.574a3.798 3.798 0 0 1-1.398-1.596c-.326-.678-.489-1.455-.489-2.33 0-.886.167-1.668.5-2.346a3.837 3.837 0 0 1 1.409-1.597c.607-.383 1.321-.574 2.143-.574.662 0 1.253.123 1.772.369.519.243.938.584 1.256 1.023.322.44.513.953.574 1.54h-1.654a1.983 1.983 0 0 0-.625-1.057c-.322-.295-.753-.443-1.295-.443-.474 0-.888.125-1.244.375-.353.246-.627.598-.824 1.057-.197.454-.296.992-.296 1.613 0 .637.097 1.186.29 1.648.193.462.466.82.818 1.074.356.254.775.381 1.256.381.322 0 .614-.059.875-.177a1.78 1.78 0 0 0 .665-.517c.182-.223.308-.492.38-.806h1.654a3.225 3.225 0 0 1-.551 1.511 3.168 3.168 0 0 1-1.233 1.045c-.512.254-1.112.381-1.801.381zm11.765-6.773l-1.539.273a1.838 1.838 0 0 0-.307-.562 1.528 1.528 0 0 0-.557-.438c-.235-.114-.528-.17-.881-.17-.481 0-.882.108-1.204.324-.322.212-.483.486-.483.823 0 .292.108.527.324.705.216.178.564.324 1.045.437l1.386.319c.803.185 1.402.471 1.796.858.394.386.591.888.591 1.505 0 .523-.152.989-.455 1.398-.299.405-.718.723-1.255.955-.535.231-1.154.346-1.858.346-.978 0-1.775-.208-2.392-.625-.618-.42-.997-1.017-1.137-1.79l1.642-.25c.103.428.313.752.631.972.318.216.733.324 1.244.324.557 0 1.002-.116 1.335-.347.334-.235.5-.521.5-.858a.892.892 0 0 0-.306-.687c-.201-.186-.51-.326-.926-.421l-1.478-.324c-.814-.185-1.416-.481-1.807-.886-.386-.405-.579-.918-.579-1.54a2.2 2.2 0 0 1 .432-1.352c.288-.386.685-.687 1.193-.903.507-.22 1.089-.33 1.744-.33.943 0 1.686.205 2.227.614.542.405.9.949 1.074 1.63z" fill="#C9CDD1"/><path d="M859 428.5l-15-7.16v17.32l15-7.16v-3zm194-79.318l-8.66 15h17.32l-8.66-15zM857.5 431.5H889v-3h-31.5v3zm150.5 0h21v-3h-21v3zm46.5-25.5v-43.318h-3V406h3zm-25.5 25.5c14.08 0 25.5-11.417 25.5-25.5h-3c0 12.426-10.07 22.5-22.5 22.5v3z" fill="#939BA3"/><path d="M900.142 436v-8.727h1.642v1.386h.091c.159-.47.439-.839.841-1.108a2.404 2.404 0 0 1 1.375-.409c.106 0 .231.004.375.011.148.008.263.017.346.029v1.625a3.047 3.047 0 0 0-.363-.063 3.54 3.54 0 0 0-.523-.039c-.401 0-.759.085-1.074.255a1.9 1.9 0 0 0-1.011 1.71V436h-1.699zm9.414.176c-.86 0-1.601-.184-2.222-.551a3.738 3.738 0 0 1-1.432-1.563c-.333-.674-.5-1.464-.5-2.369 0-.894.167-1.682.5-2.363a3.886 3.886 0 0 1 1.409-1.597c.606-.383 1.315-.574 2.125-.574.493 0 .97.082 1.432.244.462.163.877.419 1.244.767.368.349.658.802.87 1.358.212.553.318 1.226.318 2.017v.603h-6.938v-1.273h5.273c0-.447-.091-.843-.273-1.187a2.045 2.045 0 0 0-.767-.824c-.325-.201-.708-.302-1.147-.302-.478 0-.894.118-1.25.353a2.366 2.366 0 0 0-.819.909 2.626 2.626 0 0 0-.284 1.21v.994c0 .584.103 1.08.307 1.489.208.409.498.722.869.938.372.212.805.318 1.302.318.322 0 .615-.046.88-.137.265-.094.495-.234.688-.42.193-.186.341-.415.443-.688l1.608.29c-.129.474-.36.888-.693 1.244-.33.353-.745.627-1.245.824-.496.194-1.062.29-1.698.29zm5.453-.176v-8.727h1.63v1.42h.108a2.26 2.26 0 0 1 .892-1.125c.413-.273.908-.409 1.483-.409.584 0 1.072.136 1.466.409.398.273.692.648.881 1.125h.091c.208-.466.54-.837.994-1.113.455-.281.996-.421 1.625-.421.792 0 1.438.248 1.938.744.504.497.755 1.245.755 2.245V436h-1.698v-5.693c0-.591-.161-1.019-.483-1.284a1.76 1.76 0 0 0-1.154-.398c-.553 0-.983.17-1.29.511-.306.337-.46.771-.46 1.302V436h-1.693v-5.801c0-.474-.148-.854-.443-1.142-.296-.288-.68-.432-1.154-.432-.322 0-.619.085-.892.256a1.867 1.867 0 0 0-.653.699 2.135 2.135 0 0 0-.244 1.039V436h-1.699zm17.641.176c-.819 0-1.533-.187-2.142-.562a3.794 3.794 0 0 1-1.421-1.574c-.337-.674-.506-1.462-.506-2.364 0-.905.169-1.697.506-2.375a3.784 3.784 0 0 1 1.421-1.579c.609-.375 1.323-.563 2.142-.563.818 0 1.532.188 2.142.563a3.788 3.788 0 0 1 1.42 1.579c.337.678.506 1.47.506 2.375 0 .902-.169 1.69-.506 2.364a3.799 3.799 0 0 1-1.42 1.574c-.61.375-1.324.562-2.142.562zm.005-1.426c.531 0 .97-.14 1.318-.42.349-.281.606-.654.773-1.12.171-.466.256-.979.256-1.54 0-.556-.085-1.068-.256-1.534a2.5 2.5 0 0 0-.773-1.13c-.348-.284-.787-.426-1.318-.426-.534 0-.977.142-1.329.426a2.541 2.541 0 0 0-.779 1.13c-.166.466-.25.978-.25 1.534 0 .561.084 1.074.25 1.54.171.466.43.839.779 1.12.352.28.795.42 1.329.42zm9.857-7.477v1.363h-4.767v-1.363h4.767zm-3.489-2.091h1.699v8.256c0 .329.049.577.148.744a.767.767 0 0 0 .381.335c.159.057.331.085.517.085.136 0 .255-.009.358-.028l.238-.046.307 1.404a2.75 2.75 0 0 1-.42.113c-.182.042-.41.065-.682.069a2.994 2.994 0 0 1-1.25-.239 2.143 2.143 0 0 1-.938-.773c-.238-.348-.358-.786-.358-1.312v-8.608zm8.86 10.994c-.86 0-1.601-.184-2.222-.551a3.738 3.738 0 0 1-1.432-1.563c-.333-.674-.5-1.464-.5-2.369 0-.894.167-1.682.5-2.363a3.886 3.886 0 0 1 1.409-1.597c.607-.383 1.315-.574 2.125-.574.493 0 .97.082 1.432.244.462.163.877.419 1.245.767.367.349.657.802.869 1.358.212.553.318 1.226.318 2.017v.603h-6.937v-1.273h5.272c0-.447-.091-.843-.272-1.187a2.06 2.06 0 0 0-.767-.824c-.326-.201-.709-.302-1.148-.302-.477 0-.894.118-1.25.353a2.364 2.364 0 0 0-.818.909c-.19.371-.284.774-.284 1.21v.994c0 .584.102 1.08.306 1.489.209.409.498.722.87.938.371.212.805.318 1.301.318.322 0 .615-.046.881-.137.265-.094.494-.234.687-.42.193-.186.341-.415.443-.688l1.608.29c-.129.474-.36.888-.693 1.244-.33.353-.744.627-1.244.824-.497.194-1.063.29-1.699.29zm11.686-.176v1.443h-7.392V436h7.392zm2.842 0l-2.568-8.727h1.756l1.71 6.409h.085l1.716-6.409h1.756l1.705 6.38h.085l1.699-6.38h1.755L969.548 436h-1.733l-1.773-6.301h-.131L964.139 436h-1.728zm11.136 0v-8.727h1.642v1.386h.091a2.11 2.11 0 0 1 .84-1.108 2.407 2.407 0 0 1 1.375-.409c.106 0 .231.004.375.011.148.008.264.017.347.029v1.625a3.035 3.035 0 0 0-.364-.063 3.528 3.528 0 0 0-.522-.039c-.402 0-.76.085-1.074.255a1.904 1.904 0 0 0-1.012 1.71V436h-1.698zm5.964 0v-8.727h1.699V436h-1.699zm.858-10.074a1.08 1.08 0 0 1-.761-.295.96.96 0 0 1-.313-.716c0-.281.104-.519.313-.716.212-.201.466-.301.761-.301.296 0 .547.1.756.301a.94.94 0 0 1 .318.716.954.954 0 0 1-.318.716 1.06 1.06 0 0 1-.756.295zm7.024 1.347v1.363h-4.767v-1.363h4.767zm-3.488-2.091h1.699v8.256c0 .329.049.577.147.744a.776.776 0 0 0 .381.335c.159.057.331.085.517.085.136 0 .256-.009.358-.028.102-.019.182-.034.239-.046l.306 1.404a2.718 2.718 0 0 1-.42.113 3.314 3.314 0 0 1-.682.069 2.997 2.997 0 0 1-1.25-.239 2.14 2.14 0 0 1-.937-.773c-.239-.348-.358-.786-.358-1.312v-8.608zm8.859 10.994c-.86 0-1.6-.184-2.221-.551a3.731 3.731 0 0 1-1.432-1.563c-.333-.674-.5-1.464-.5-2.369 0-.894.167-1.682.5-2.363a3.886 3.886 0 0 1 1.409-1.597c.606-.383 1.314-.574 2.125-.574a4.3 4.3 0 0 1 1.432.244c.462.163.877.419 1.244.767.368.349.657.802.869 1.358.213.553.319 1.226.319 2.017v.603h-6.938v-1.273h5.273c0-.447-.091-.843-.273-1.187a2.052 2.052 0 0 0-.767-.824c-.326-.201-.708-.302-1.148-.302-.477 0-.894.118-1.25.353a2.364 2.364 0 0 0-.818.909 2.626 2.626 0 0 0-.284 1.21v.994c0 .584.102 1.08.307 1.489.208.409.498.722.869.938.371.212.805.318 1.301.318a2.7 2.7 0 0 0 .881-.137c.265-.094.494-.234.688-.42a1.84 1.84 0 0 0 .443-.688l1.608.29c-.129.474-.36.888-.694 1.244a3.346 3.346 0 0 1-1.244.824c-.496.194-1.062.29-1.699.29z" fill="#C9CDD1"/><rect x=".5" y=".5" width="1159" height="607" rx="15.5" stroke="#fff" stroke-opacity=".05"/></svg>